%TF.GenerationSoftware,KiCad,Pcbnew,9.0.7*%
%TF.CreationDate,2026-05-14T04:55:41+05:30*%
%TF.ProjectId,prj-kicad,70726a2d-6b69-4636-9164-2e6b69636164,rev?*%
%TF.SameCoordinates,Original*%
%TF.FileFunction,AssemblyDrawing,Bot*%
%FSLAX45Y45*%
G04 Gerber Fmt 4.5, Leading zero omitted, Abs format (unit mm)*
G04 Created by KiCad (PCBNEW 9.0.7) date 2026-05-14 04:55:41*
%MOMM*%
%LPD*%
G01*
G04 APERTURE LIST*
%ADD10C,0.150000*%
%ADD11C,0.040000*%
%ADD12C,0.105000*%
%ADD13C,0.100000*%
%ADD14C,0.025400*%
G04 APERTURE END LIST*
D10*
X12161482Y-5041821D02*
X12161482Y-5051345D01*
X12161482Y-5051345D02*
X12166244Y-5060869D01*
X12166244Y-5060869D02*
X12171006Y-5065631D01*
X12171006Y-5065631D02*
X12180529Y-5070393D01*
X12180529Y-5070393D02*
X12199577Y-5075155D01*
X12199577Y-5075155D02*
X12223387Y-5075155D01*
X12223387Y-5075155D02*
X12242434Y-5070393D01*
X12242434Y-5070393D02*
X12251958Y-5065631D01*
X12251958Y-5065631D02*
X12256720Y-5060869D01*
X12256720Y-5060869D02*
X12261482Y-5051345D01*
X12261482Y-5051345D02*
X12261482Y-5041821D01*
X12261482Y-5041821D02*
X12256720Y-5032298D01*
X12256720Y-5032298D02*
X12251958Y-5027536D01*
X12251958Y-5027536D02*
X12242434Y-5022774D01*
X12242434Y-5022774D02*
X12223387Y-5018012D01*
X12223387Y-5018012D02*
X12199577Y-5018012D01*
X12199577Y-5018012D02*
X12180529Y-5022774D01*
X12180529Y-5022774D02*
X12171006Y-5027536D01*
X12171006Y-5027536D02*
X12166244Y-5032298D01*
X12166244Y-5032298D02*
X12161482Y-5041821D01*
X12251958Y-5118012D02*
X12256720Y-5122774D01*
X12256720Y-5122774D02*
X12261482Y-5118012D01*
X12261482Y-5118012D02*
X12256720Y-5113250D01*
X12256720Y-5113250D02*
X12251958Y-5118012D01*
X12251958Y-5118012D02*
X12261482Y-5118012D01*
X12261482Y-5218012D02*
X12261482Y-5160869D01*
X12261482Y-5189440D02*
X12161482Y-5189440D01*
X12161482Y-5189440D02*
X12175768Y-5179917D01*
X12175768Y-5179917D02*
X12185291Y-5170393D01*
X12185291Y-5170393D02*
X12190053Y-5160869D01*
X12194815Y-5303726D02*
X12261482Y-5303726D01*
X12194815Y-5260869D02*
X12247196Y-5260869D01*
X12247196Y-5260869D02*
X12256720Y-5265631D01*
X12256720Y-5265631D02*
X12261482Y-5275155D01*
X12261482Y-5275155D02*
X12261482Y-5289440D01*
X12261482Y-5289440D02*
X12256720Y-5298964D01*
X12256720Y-5298964D02*
X12251958Y-5303726D01*
D11*
X12108976Y-5147179D02*
X12110167Y-5145988D01*
X12110167Y-5145988D02*
X12111357Y-5142417D01*
X12111357Y-5142417D02*
X12111357Y-5140036D01*
X12111357Y-5140036D02*
X12110167Y-5136464D01*
X12110167Y-5136464D02*
X12107786Y-5134083D01*
X12107786Y-5134083D02*
X12105405Y-5132893D01*
X12105405Y-5132893D02*
X12100643Y-5131702D01*
X12100643Y-5131702D02*
X12097072Y-5131702D01*
X12097072Y-5131702D02*
X12092310Y-5132893D01*
X12092310Y-5132893D02*
X12089929Y-5134083D01*
X12089929Y-5134083D02*
X12087548Y-5136464D01*
X12087548Y-5136464D02*
X12086357Y-5140036D01*
X12086357Y-5140036D02*
X12086357Y-5142417D01*
X12086357Y-5142417D02*
X12087548Y-5145988D01*
X12087548Y-5145988D02*
X12088738Y-5147179D01*
X12111357Y-5170988D02*
X12111357Y-5156702D01*
X12111357Y-5163845D02*
X12086357Y-5163845D01*
X12086357Y-5163845D02*
X12089929Y-5161464D01*
X12089929Y-5161464D02*
X12092310Y-5159083D01*
X12092310Y-5159083D02*
X12093500Y-5156702D01*
X12097072Y-5185274D02*
X12095881Y-5182893D01*
X12095881Y-5182893D02*
X12094691Y-5181702D01*
X12094691Y-5181702D02*
X12092310Y-5180512D01*
X12092310Y-5180512D02*
X12091119Y-5180512D01*
X12091119Y-5180512D02*
X12088738Y-5181702D01*
X12088738Y-5181702D02*
X12087548Y-5182893D01*
X12087548Y-5182893D02*
X12086357Y-5185274D01*
X12086357Y-5185274D02*
X12086357Y-5190036D01*
X12086357Y-5190036D02*
X12087548Y-5192417D01*
X12087548Y-5192417D02*
X12088738Y-5193607D01*
X12088738Y-5193607D02*
X12091119Y-5194798D01*
X12091119Y-5194798D02*
X12092310Y-5194798D01*
X12092310Y-5194798D02*
X12094691Y-5193607D01*
X12094691Y-5193607D02*
X12095881Y-5192417D01*
X12095881Y-5192417D02*
X12097072Y-5190036D01*
X12097072Y-5190036D02*
X12097072Y-5185274D01*
X12097072Y-5185274D02*
X12098262Y-5182893D01*
X12098262Y-5182893D02*
X12099453Y-5181702D01*
X12099453Y-5181702D02*
X12101834Y-5180512D01*
X12101834Y-5180512D02*
X12106595Y-5180512D01*
X12106595Y-5180512D02*
X12108976Y-5181702D01*
X12108976Y-5181702D02*
X12110167Y-5182893D01*
X12110167Y-5182893D02*
X12111357Y-5185274D01*
X12111357Y-5185274D02*
X12111357Y-5190036D01*
X12111357Y-5190036D02*
X12110167Y-5192417D01*
X12110167Y-5192417D02*
X12108976Y-5193607D01*
X12108976Y-5193607D02*
X12106595Y-5194798D01*
X12106595Y-5194798D02*
X12101834Y-5194798D01*
X12101834Y-5194798D02*
X12099453Y-5193607D01*
X12099453Y-5193607D02*
X12098262Y-5192417D01*
X12098262Y-5192417D02*
X12097072Y-5190036D01*
D10*
X11719697Y-5487232D02*
X11719697Y-5387232D01*
X11614936Y-5477708D02*
X11619698Y-5482470D01*
X11619698Y-5482470D02*
X11633983Y-5487232D01*
X11633983Y-5487232D02*
X11643507Y-5487232D01*
X11643507Y-5487232D02*
X11657793Y-5482470D01*
X11657793Y-5482470D02*
X11667317Y-5472946D01*
X11667317Y-5472946D02*
X11672078Y-5463422D01*
X11672078Y-5463422D02*
X11676840Y-5444375D01*
X11676840Y-5444375D02*
X11676840Y-5430089D01*
X11676840Y-5430089D02*
X11672078Y-5411041D01*
X11672078Y-5411041D02*
X11667317Y-5401518D01*
X11667317Y-5401518D02*
X11657793Y-5391994D01*
X11657793Y-5391994D02*
X11643507Y-5387232D01*
X11643507Y-5387232D02*
X11633983Y-5387232D01*
X11633983Y-5387232D02*
X11619698Y-5391994D01*
X11619698Y-5391994D02*
X11614936Y-5396756D01*
X11572078Y-5487232D02*
X11572078Y-5387232D01*
X11572078Y-5387232D02*
X11538745Y-5458660D01*
X11538745Y-5458660D02*
X11505412Y-5387232D01*
X11505412Y-5387232D02*
X11505412Y-5487232D01*
X11457793Y-5449137D02*
X11381602Y-5449137D01*
X11291126Y-5420565D02*
X11291126Y-5487232D01*
X11314936Y-5382470D02*
X11338745Y-5453899D01*
X11338745Y-5453899D02*
X11276840Y-5453899D01*
X11243507Y-5396756D02*
X11238745Y-5391994D01*
X11238745Y-5391994D02*
X11229221Y-5387232D01*
X11229221Y-5387232D02*
X11205412Y-5387232D01*
X11205412Y-5387232D02*
X11195888Y-5391994D01*
X11195888Y-5391994D02*
X11191126Y-5396756D01*
X11191126Y-5396756D02*
X11186364Y-5406280D01*
X11186364Y-5406280D02*
X11186364Y-5415803D01*
X11186364Y-5415803D02*
X11191126Y-5430089D01*
X11191126Y-5430089D02*
X11248269Y-5487232D01*
X11248269Y-5487232D02*
X11186364Y-5487232D01*
X11100650Y-5387232D02*
X11119698Y-5387232D01*
X11119698Y-5387232D02*
X11129221Y-5391994D01*
X11129221Y-5391994D02*
X11133983Y-5396756D01*
X11133983Y-5396756D02*
X11143507Y-5411041D01*
X11143507Y-5411041D02*
X11148269Y-5430089D01*
X11148269Y-5430089D02*
X11148269Y-5468184D01*
X11148269Y-5468184D02*
X11143507Y-5477708D01*
X11143507Y-5477708D02*
X11138745Y-5482470D01*
X11138745Y-5482470D02*
X11129221Y-5487232D01*
X11129221Y-5487232D02*
X11110174Y-5487232D01*
X11110174Y-5487232D02*
X11100650Y-5482470D01*
X11100650Y-5482470D02*
X11095888Y-5477708D01*
X11095888Y-5477708D02*
X11091126Y-5468184D01*
X11091126Y-5468184D02*
X11091126Y-5444375D01*
X11091126Y-5444375D02*
X11095888Y-5434851D01*
X11095888Y-5434851D02*
X11100650Y-5430089D01*
X11100650Y-5430089D02*
X11110174Y-5425327D01*
X11110174Y-5425327D02*
X11129221Y-5425327D01*
X11129221Y-5425327D02*
X11138745Y-5430089D01*
X11138745Y-5430089D02*
X11143507Y-5434851D01*
X11143507Y-5434851D02*
X11148269Y-5444375D01*
X11057793Y-5387232D02*
X10991126Y-5387232D01*
X10991126Y-5387232D02*
X11033983Y-5487232D01*
X10933983Y-5387232D02*
X10924460Y-5387232D01*
X10924460Y-5387232D02*
X10914936Y-5391994D01*
X10914936Y-5391994D02*
X10910174Y-5396756D01*
X10910174Y-5396756D02*
X10905412Y-5406280D01*
X10905412Y-5406280D02*
X10900650Y-5425327D01*
X10900650Y-5425327D02*
X10900650Y-5449137D01*
X10900650Y-5449137D02*
X10905412Y-5468184D01*
X10905412Y-5468184D02*
X10910174Y-5477708D01*
X10910174Y-5477708D02*
X10914936Y-5482470D01*
X10914936Y-5482470D02*
X10924460Y-5487232D01*
X10924460Y-5487232D02*
X10933983Y-5487232D01*
X10933983Y-5487232D02*
X10943507Y-5482470D01*
X10943507Y-5482470D02*
X10948269Y-5477708D01*
X10948269Y-5477708D02*
X10953031Y-5468184D01*
X10953031Y-5468184D02*
X10957793Y-5449137D01*
X10957793Y-5449137D02*
X10957793Y-5425327D01*
X10957793Y-5425327D02*
X10953031Y-5406280D01*
X10953031Y-5406280D02*
X10948269Y-5396756D01*
X10948269Y-5396756D02*
X10943507Y-5391994D01*
X10943507Y-5391994D02*
X10933983Y-5387232D01*
X10857793Y-5449137D02*
X10781602Y-5449137D01*
X10733983Y-5487232D02*
X10733983Y-5387232D01*
X10733983Y-5387232D02*
X10695888Y-5387232D01*
X10695888Y-5387232D02*
X10686364Y-5391994D01*
X10686364Y-5391994D02*
X10681602Y-5396756D01*
X10681602Y-5396756D02*
X10676841Y-5406280D01*
X10676841Y-5406280D02*
X10676841Y-5420565D01*
X10676841Y-5420565D02*
X10681602Y-5430089D01*
X10681602Y-5430089D02*
X10686364Y-5434851D01*
X10686364Y-5434851D02*
X10695888Y-5439613D01*
X10695888Y-5439613D02*
X10733983Y-5439613D01*
X11294630Y-5287232D02*
X11294630Y-5311041D01*
X11318439Y-5301518D02*
X11294630Y-5311041D01*
X11294630Y-5311041D02*
X11270820Y-5301518D01*
X11308916Y-5330089D02*
X11294630Y-5311041D01*
X11294630Y-5311041D02*
X11280344Y-5330089D01*
X11294630Y-5287232D02*
X11294630Y-5311041D01*
X11318439Y-5301518D02*
X11294630Y-5311041D01*
X11294630Y-5311041D02*
X11270820Y-5301518D01*
X11308916Y-5330089D02*
X11294630Y-5311041D01*
X11294630Y-5311041D02*
X11280344Y-5330089D01*
X11276840Y-5387232D02*
X11276840Y-5468184D01*
X11276840Y-5468184D02*
X11272078Y-5477708D01*
X11272078Y-5477708D02*
X11267317Y-5482470D01*
X11267317Y-5482470D02*
X11257793Y-5487232D01*
X11257793Y-5487232D02*
X11238745Y-5487232D01*
X11238745Y-5487232D02*
X11229221Y-5482470D01*
X11229221Y-5482470D02*
X11224459Y-5477708D01*
X11224459Y-5477708D02*
X11219698Y-5468184D01*
X11219698Y-5468184D02*
X11219698Y-5387232D01*
X11181602Y-5387232D02*
X11119698Y-5387232D01*
X11119698Y-5387232D02*
X11153031Y-5425327D01*
X11153031Y-5425327D02*
X11138745Y-5425327D01*
X11138745Y-5425327D02*
X11129221Y-5430089D01*
X11129221Y-5430089D02*
X11124460Y-5434851D01*
X11124460Y-5434851D02*
X11119698Y-5444375D01*
X11119698Y-5444375D02*
X11119698Y-5468184D01*
X11119698Y-5468184D02*
X11124460Y-5477708D01*
X11124460Y-5477708D02*
X11129221Y-5482470D01*
X11129221Y-5482470D02*
X11138745Y-5487232D01*
X11138745Y-5487232D02*
X11167317Y-5487232D01*
X11167317Y-5487232D02*
X11176840Y-5482470D01*
X11176840Y-5482470D02*
X11181602Y-5477708D01*
X12162131Y-5435815D02*
X12162131Y-5502482D01*
X12185940Y-5397720D02*
X12209750Y-5469149D01*
X12209750Y-5469149D02*
X12147845Y-5469149D01*
X12109750Y-5492958D02*
X12104988Y-5497720D01*
X12104988Y-5497720D02*
X12109750Y-5502482D01*
X12109750Y-5502482D02*
X12114512Y-5497720D01*
X12114512Y-5497720D02*
X12109750Y-5492958D01*
X12109750Y-5492958D02*
X12109750Y-5502482D01*
X12071655Y-5402482D02*
X12004988Y-5402482D01*
X12004988Y-5402482D02*
X12047845Y-5502482D01*
X11966893Y-5502482D02*
X11966893Y-5402482D01*
X11909750Y-5502482D02*
X11952607Y-5445339D01*
X11909750Y-5402482D02*
X11966893Y-5459625D01*
D11*
X12064083Y-5351820D02*
X12072750Y-5339439D01*
X12078940Y-5351820D02*
X12078940Y-5325820D01*
X12078940Y-5325820D02*
X12069036Y-5325820D01*
X12069036Y-5325820D02*
X12066559Y-5327058D01*
X12066559Y-5327058D02*
X12065321Y-5328296D01*
X12065321Y-5328296D02*
X12064083Y-5330772D01*
X12064083Y-5330772D02*
X12064083Y-5334487D01*
X12064083Y-5334487D02*
X12065321Y-5336963D01*
X12065321Y-5336963D02*
X12066559Y-5338201D01*
X12066559Y-5338201D02*
X12069036Y-5339439D01*
X12069036Y-5339439D02*
X12078940Y-5339439D01*
X12055417Y-5325820D02*
X12038083Y-5325820D01*
X12038083Y-5325820D02*
X12049226Y-5351820D01*
D10*
X11313417Y-5689482D02*
X11370559Y-5689482D01*
X11341988Y-5689482D02*
X11341988Y-5589482D01*
X11341988Y-5589482D02*
X11351512Y-5603768D01*
X11351512Y-5603768D02*
X11361036Y-5613291D01*
X11361036Y-5613291D02*
X11370559Y-5618053D01*
X11227702Y-5622815D02*
X11227702Y-5689482D01*
X11270559Y-5622815D02*
X11270559Y-5675196D01*
X11270559Y-5675196D02*
X11265797Y-5684720D01*
X11265797Y-5684720D02*
X11256274Y-5689482D01*
X11256274Y-5689482D02*
X11241988Y-5689482D01*
X11241988Y-5689482D02*
X11232464Y-5684720D01*
X11232464Y-5684720D02*
X11227702Y-5679958D01*
D11*
X11300917Y-5768976D02*
X11302107Y-5770167D01*
X11302107Y-5770167D02*
X11305678Y-5771357D01*
X11305678Y-5771357D02*
X11308059Y-5771357D01*
X11308059Y-5771357D02*
X11311631Y-5770167D01*
X11311631Y-5770167D02*
X11314012Y-5767786D01*
X11314012Y-5767786D02*
X11315202Y-5765405D01*
X11315202Y-5765405D02*
X11316393Y-5760643D01*
X11316393Y-5760643D02*
X11316393Y-5757072D01*
X11316393Y-5757072D02*
X11315202Y-5752310D01*
X11315202Y-5752310D02*
X11314012Y-5749929D01*
X11314012Y-5749929D02*
X11311631Y-5747548D01*
X11311631Y-5747548D02*
X11308059Y-5746357D01*
X11308059Y-5746357D02*
X11305678Y-5746357D01*
X11305678Y-5746357D02*
X11302107Y-5747548D01*
X11302107Y-5747548D02*
X11300917Y-5748738D01*
X11292583Y-5746357D02*
X11277107Y-5746357D01*
X11277107Y-5746357D02*
X11285440Y-5755881D01*
X11285440Y-5755881D02*
X11281869Y-5755881D01*
X11281869Y-5755881D02*
X11279488Y-5757072D01*
X11279488Y-5757072D02*
X11278297Y-5758262D01*
X11278297Y-5758262D02*
X11277107Y-5760643D01*
X11277107Y-5760643D02*
X11277107Y-5766595D01*
X11277107Y-5766595D02*
X11278297Y-5768976D01*
X11278297Y-5768976D02*
X11279488Y-5770167D01*
X11279488Y-5770167D02*
X11281869Y-5771357D01*
X11281869Y-5771357D02*
X11289012Y-5771357D01*
X11289012Y-5771357D02*
X11291393Y-5770167D01*
X11291393Y-5770167D02*
X11292583Y-5768976D01*
D10*
X12340869Y-6014815D02*
X12340869Y-6081482D01*
X12364678Y-5976720D02*
X12388488Y-6048148D01*
X12388488Y-6048148D02*
X12326583Y-6048148D01*
X12288488Y-6071958D02*
X12283726Y-6076720D01*
X12283726Y-6076720D02*
X12288488Y-6081482D01*
X12288488Y-6081482D02*
X12293250Y-6076720D01*
X12293250Y-6076720D02*
X12288488Y-6071958D01*
X12288488Y-6071958D02*
X12288488Y-6081482D01*
X12250393Y-5981482D02*
X12183726Y-5981482D01*
X12183726Y-5981482D02*
X12226583Y-6081482D01*
X12102774Y-6014815D02*
X12102774Y-6081482D01*
X12145631Y-6014815D02*
X12145631Y-6067196D01*
X12145631Y-6067196D02*
X12140869Y-6076720D01*
X12140869Y-6076720D02*
X12131345Y-6081482D01*
X12131345Y-6081482D02*
X12117059Y-6081482D01*
X12117059Y-6081482D02*
X12107536Y-6076720D01*
X12107536Y-6076720D02*
X12102774Y-6071958D01*
D11*
X12247417Y-5928976D02*
X12248607Y-5930167D01*
X12248607Y-5930167D02*
X12252178Y-5931357D01*
X12252178Y-5931357D02*
X12254559Y-5931357D01*
X12254559Y-5931357D02*
X12258131Y-5930167D01*
X12258131Y-5930167D02*
X12260512Y-5927786D01*
X12260512Y-5927786D02*
X12261702Y-5925405D01*
X12261702Y-5925405D02*
X12262893Y-5920643D01*
X12262893Y-5920643D02*
X12262893Y-5917072D01*
X12262893Y-5917072D02*
X12261702Y-5912310D01*
X12261702Y-5912310D02*
X12260512Y-5909929D01*
X12260512Y-5909929D02*
X12258131Y-5907548D01*
X12258131Y-5907548D02*
X12254559Y-5906357D01*
X12254559Y-5906357D02*
X12252178Y-5906357D01*
X12252178Y-5906357D02*
X12248607Y-5907548D01*
X12248607Y-5907548D02*
X12247417Y-5908738D01*
X12233131Y-5917072D02*
X12235512Y-5915881D01*
X12235512Y-5915881D02*
X12236702Y-5914691D01*
X12236702Y-5914691D02*
X12237893Y-5912310D01*
X12237893Y-5912310D02*
X12237893Y-5911119D01*
X12237893Y-5911119D02*
X12236702Y-5908738D01*
X12236702Y-5908738D02*
X12235512Y-5907548D01*
X12235512Y-5907548D02*
X12233131Y-5906357D01*
X12233131Y-5906357D02*
X12228369Y-5906357D01*
X12228369Y-5906357D02*
X12225988Y-5907548D01*
X12225988Y-5907548D02*
X12224797Y-5908738D01*
X12224797Y-5908738D02*
X12223607Y-5911119D01*
X12223607Y-5911119D02*
X12223607Y-5912310D01*
X12223607Y-5912310D02*
X12224797Y-5914691D01*
X12224797Y-5914691D02*
X12225988Y-5915881D01*
X12225988Y-5915881D02*
X12228369Y-5917072D01*
X12228369Y-5917072D02*
X12233131Y-5917072D01*
X12233131Y-5917072D02*
X12235512Y-5918262D01*
X12235512Y-5918262D02*
X12236702Y-5919453D01*
X12236702Y-5919453D02*
X12237893Y-5921834D01*
X12237893Y-5921834D02*
X12237893Y-5926595D01*
X12237893Y-5926595D02*
X12236702Y-5928976D01*
X12236702Y-5928976D02*
X12235512Y-5930167D01*
X12235512Y-5930167D02*
X12233131Y-5931357D01*
X12233131Y-5931357D02*
X12228369Y-5931357D01*
X12228369Y-5931357D02*
X12225988Y-5930167D01*
X12225988Y-5930167D02*
X12224797Y-5928976D01*
X12224797Y-5928976D02*
X12223607Y-5926595D01*
X12223607Y-5926595D02*
X12223607Y-5921834D01*
X12223607Y-5921834D02*
X12224797Y-5919453D01*
X12224797Y-5919453D02*
X12225988Y-5918262D01*
X12225988Y-5918262D02*
X12228369Y-5917072D01*
D10*
X11418178Y-5721482D02*
X11408655Y-5721482D01*
X11408655Y-5721482D02*
X11399131Y-5726244D01*
X11399131Y-5726244D02*
X11394369Y-5731006D01*
X11394369Y-5731006D02*
X11389607Y-5740529D01*
X11389607Y-5740529D02*
X11384845Y-5759577D01*
X11384845Y-5759577D02*
X11384845Y-5783387D01*
X11384845Y-5783387D02*
X11389607Y-5802434D01*
X11389607Y-5802434D02*
X11394369Y-5811958D01*
X11394369Y-5811958D02*
X11399131Y-5816720D01*
X11399131Y-5816720D02*
X11408655Y-5821482D01*
X11408655Y-5821482D02*
X11418178Y-5821482D01*
X11418178Y-5821482D02*
X11427702Y-5816720D01*
X11427702Y-5816720D02*
X11432464Y-5811958D01*
X11432464Y-5811958D02*
X11437226Y-5802434D01*
X11437226Y-5802434D02*
X11441988Y-5783387D01*
X11441988Y-5783387D02*
X11441988Y-5759577D01*
X11441988Y-5759577D02*
X11437226Y-5740529D01*
X11437226Y-5740529D02*
X11432464Y-5731006D01*
X11432464Y-5731006D02*
X11427702Y-5726244D01*
X11427702Y-5726244D02*
X11418178Y-5721482D01*
X11341988Y-5811958D02*
X11337226Y-5816720D01*
X11337226Y-5816720D02*
X11341988Y-5821482D01*
X11341988Y-5821482D02*
X11346750Y-5816720D01*
X11346750Y-5816720D02*
X11341988Y-5811958D01*
X11341988Y-5811958D02*
X11341988Y-5821482D01*
X11241988Y-5821482D02*
X11299131Y-5821482D01*
X11270559Y-5821482D02*
X11270559Y-5721482D01*
X11270559Y-5721482D02*
X11280083Y-5735768D01*
X11280083Y-5735768D02*
X11289607Y-5745291D01*
X11289607Y-5745291D02*
X11299131Y-5750053D01*
X11156274Y-5754815D02*
X11156274Y-5821482D01*
X11199131Y-5754815D02*
X11199131Y-5807196D01*
X11199131Y-5807196D02*
X11194369Y-5816720D01*
X11194369Y-5816720D02*
X11184845Y-5821482D01*
X11184845Y-5821482D02*
X11170560Y-5821482D01*
X11170560Y-5821482D02*
X11161036Y-5816720D01*
X11161036Y-5816720D02*
X11156274Y-5811958D01*
D11*
X11312821Y-5668976D02*
X11314012Y-5670167D01*
X11314012Y-5670167D02*
X11317583Y-5671357D01*
X11317583Y-5671357D02*
X11319964Y-5671357D01*
X11319964Y-5671357D02*
X11323536Y-5670167D01*
X11323536Y-5670167D02*
X11325917Y-5667786D01*
X11325917Y-5667786D02*
X11327107Y-5665405D01*
X11327107Y-5665405D02*
X11328297Y-5660643D01*
X11328297Y-5660643D02*
X11328297Y-5657072D01*
X11328297Y-5657072D02*
X11327107Y-5652310D01*
X11327107Y-5652310D02*
X11325917Y-5649929D01*
X11325917Y-5649929D02*
X11323536Y-5647548D01*
X11323536Y-5647548D02*
X11319964Y-5646357D01*
X11319964Y-5646357D02*
X11317583Y-5646357D01*
X11317583Y-5646357D02*
X11314012Y-5647548D01*
X11314012Y-5647548D02*
X11312821Y-5648738D01*
X11303297Y-5648738D02*
X11302107Y-5647548D01*
X11302107Y-5647548D02*
X11299726Y-5646357D01*
X11299726Y-5646357D02*
X11293774Y-5646357D01*
X11293774Y-5646357D02*
X11291393Y-5647548D01*
X11291393Y-5647548D02*
X11290202Y-5648738D01*
X11290202Y-5648738D02*
X11289012Y-5651119D01*
X11289012Y-5651119D02*
X11289012Y-5653500D01*
X11289012Y-5653500D02*
X11290202Y-5657072D01*
X11290202Y-5657072D02*
X11304488Y-5671357D01*
X11304488Y-5671357D02*
X11289012Y-5671357D01*
X11279488Y-5648738D02*
X11278298Y-5647548D01*
X11278298Y-5647548D02*
X11275917Y-5646357D01*
X11275917Y-5646357D02*
X11269964Y-5646357D01*
X11269964Y-5646357D02*
X11267583Y-5647548D01*
X11267583Y-5647548D02*
X11266393Y-5648738D01*
X11266393Y-5648738D02*
X11265202Y-5651119D01*
X11265202Y-5651119D02*
X11265202Y-5653500D01*
X11265202Y-5653500D02*
X11266393Y-5657072D01*
X11266393Y-5657072D02*
X11280678Y-5671357D01*
X11280678Y-5671357D02*
X11265202Y-5671357D01*
D10*
X12138178Y-5749482D02*
X12128655Y-5749482D01*
X12128655Y-5749482D02*
X12119131Y-5754244D01*
X12119131Y-5754244D02*
X12114369Y-5759006D01*
X12114369Y-5759006D02*
X12109607Y-5768529D01*
X12109607Y-5768529D02*
X12104845Y-5787577D01*
X12104845Y-5787577D02*
X12104845Y-5811387D01*
X12104845Y-5811387D02*
X12109607Y-5830434D01*
X12109607Y-5830434D02*
X12114369Y-5839958D01*
X12114369Y-5839958D02*
X12119131Y-5844720D01*
X12119131Y-5844720D02*
X12128655Y-5849482D01*
X12128655Y-5849482D02*
X12138178Y-5849482D01*
X12138178Y-5849482D02*
X12147702Y-5844720D01*
X12147702Y-5844720D02*
X12152464Y-5839958D01*
X12152464Y-5839958D02*
X12157226Y-5830434D01*
X12157226Y-5830434D02*
X12161988Y-5811387D01*
X12161988Y-5811387D02*
X12161988Y-5787577D01*
X12161988Y-5787577D02*
X12157226Y-5768529D01*
X12157226Y-5768529D02*
X12152464Y-5759006D01*
X12152464Y-5759006D02*
X12147702Y-5754244D01*
X12147702Y-5754244D02*
X12138178Y-5749482D01*
X12061988Y-5839958D02*
X12057226Y-5844720D01*
X12057226Y-5844720D02*
X12061988Y-5849482D01*
X12061988Y-5849482D02*
X12066750Y-5844720D01*
X12066750Y-5844720D02*
X12061988Y-5839958D01*
X12061988Y-5839958D02*
X12061988Y-5849482D01*
X11961988Y-5849482D02*
X12019131Y-5849482D01*
X11990559Y-5849482D02*
X11990559Y-5749482D01*
X11990559Y-5749482D02*
X12000083Y-5763768D01*
X12000083Y-5763768D02*
X12009607Y-5773291D01*
X12009607Y-5773291D02*
X12019131Y-5778053D01*
X11876274Y-5782815D02*
X11876274Y-5849482D01*
X11919131Y-5782815D02*
X11919131Y-5835196D01*
X11919131Y-5835196D02*
X11914369Y-5844720D01*
X11914369Y-5844720D02*
X11904845Y-5849482D01*
X11904845Y-5849482D02*
X11890559Y-5849482D01*
X11890559Y-5849482D02*
X11881036Y-5844720D01*
X11881036Y-5844720D02*
X11876274Y-5839958D01*
D11*
X12032821Y-5928976D02*
X12034012Y-5930167D01*
X12034012Y-5930167D02*
X12037583Y-5931357D01*
X12037583Y-5931357D02*
X12039964Y-5931357D01*
X12039964Y-5931357D02*
X12043536Y-5930167D01*
X12043536Y-5930167D02*
X12045917Y-5927786D01*
X12045917Y-5927786D02*
X12047107Y-5925405D01*
X12047107Y-5925405D02*
X12048297Y-5920643D01*
X12048297Y-5920643D02*
X12048297Y-5917072D01*
X12048297Y-5917072D02*
X12047107Y-5912310D01*
X12047107Y-5912310D02*
X12045917Y-5909929D01*
X12045917Y-5909929D02*
X12043536Y-5907548D01*
X12043536Y-5907548D02*
X12039964Y-5906357D01*
X12039964Y-5906357D02*
X12037583Y-5906357D01*
X12037583Y-5906357D02*
X12034012Y-5907548D01*
X12034012Y-5907548D02*
X12032821Y-5908738D01*
X12009012Y-5931357D02*
X12023297Y-5931357D01*
X12016155Y-5931357D02*
X12016155Y-5906357D01*
X12016155Y-5906357D02*
X12018536Y-5909929D01*
X12018536Y-5909929D02*
X12020917Y-5912310D01*
X12020917Y-5912310D02*
X12023297Y-5913500D01*
X11987583Y-5906357D02*
X11992345Y-5906357D01*
X11992345Y-5906357D02*
X11994726Y-5907548D01*
X11994726Y-5907548D02*
X11995917Y-5908738D01*
X11995917Y-5908738D02*
X11998298Y-5912310D01*
X11998298Y-5912310D02*
X11999488Y-5917072D01*
X11999488Y-5917072D02*
X11999488Y-5926595D01*
X11999488Y-5926595D02*
X11998298Y-5928976D01*
X11998298Y-5928976D02*
X11997107Y-5930167D01*
X11997107Y-5930167D02*
X11994726Y-5931357D01*
X11994726Y-5931357D02*
X11989964Y-5931357D01*
X11989964Y-5931357D02*
X11987583Y-5930167D01*
X11987583Y-5930167D02*
X11986393Y-5928976D01*
X11986393Y-5928976D02*
X11985202Y-5926595D01*
X11985202Y-5926595D02*
X11985202Y-5920643D01*
X11985202Y-5920643D02*
X11986393Y-5918262D01*
X11986393Y-5918262D02*
X11987583Y-5917072D01*
X11987583Y-5917072D02*
X11989964Y-5915881D01*
X11989964Y-5915881D02*
X11994726Y-5915881D01*
X11994726Y-5915881D02*
X11997107Y-5917072D01*
X11997107Y-5917072D02*
X11998298Y-5918262D01*
X11998298Y-5918262D02*
X11999488Y-5920643D01*
D10*
X12502482Y-5343095D02*
X12402482Y-5343095D01*
X12402482Y-5343095D02*
X12473910Y-5376429D01*
X12473910Y-5376429D02*
X12402482Y-5409762D01*
X12402482Y-5409762D02*
X12502482Y-5409762D01*
X12473910Y-5452619D02*
X12473910Y-5500238D01*
X12502482Y-5443095D02*
X12402482Y-5476429D01*
X12402482Y-5476429D02*
X12502482Y-5509762D01*
X12402482Y-5533571D02*
X12502482Y-5600238D01*
X12402482Y-5600238D02*
X12502482Y-5533571D01*
X12402482Y-5628809D02*
X12402482Y-5690714D01*
X12402482Y-5690714D02*
X12440577Y-5657381D01*
X12440577Y-5657381D02*
X12440577Y-5671667D01*
X12440577Y-5671667D02*
X12445339Y-5681190D01*
X12445339Y-5681190D02*
X12450101Y-5685952D01*
X12450101Y-5685952D02*
X12459625Y-5690714D01*
X12459625Y-5690714D02*
X12483434Y-5690714D01*
X12483434Y-5690714D02*
X12492958Y-5685952D01*
X12492958Y-5685952D02*
X12497720Y-5681190D01*
X12497720Y-5681190D02*
X12502482Y-5671667D01*
X12502482Y-5671667D02*
X12502482Y-5643095D01*
X12502482Y-5643095D02*
X12497720Y-5633571D01*
X12497720Y-5633571D02*
X12492958Y-5628809D01*
X12402482Y-5752619D02*
X12402482Y-5762143D01*
X12402482Y-5762143D02*
X12407244Y-5771667D01*
X12407244Y-5771667D02*
X12412006Y-5776428D01*
X12412006Y-5776428D02*
X12421529Y-5781190D01*
X12421529Y-5781190D02*
X12440577Y-5785952D01*
X12440577Y-5785952D02*
X12464387Y-5785952D01*
X12464387Y-5785952D02*
X12483434Y-5781190D01*
X12483434Y-5781190D02*
X12492958Y-5776428D01*
X12492958Y-5776428D02*
X12497720Y-5771667D01*
X12497720Y-5771667D02*
X12502482Y-5762143D01*
X12502482Y-5762143D02*
X12502482Y-5752619D01*
X12502482Y-5752619D02*
X12497720Y-5743095D01*
X12497720Y-5743095D02*
X12492958Y-5738333D01*
X12492958Y-5738333D02*
X12483434Y-5733571D01*
X12483434Y-5733571D02*
X12464387Y-5728809D01*
X12464387Y-5728809D02*
X12440577Y-5728809D01*
X12440577Y-5728809D02*
X12421529Y-5733571D01*
X12421529Y-5733571D02*
X12412006Y-5738333D01*
X12412006Y-5738333D02*
X12407244Y-5743095D01*
X12407244Y-5743095D02*
X12402482Y-5752619D01*
X12502482Y-5881190D02*
X12502482Y-5824048D01*
X12502482Y-5852619D02*
X12402482Y-5852619D01*
X12402482Y-5852619D02*
X12416768Y-5843095D01*
X12416768Y-5843095D02*
X12426291Y-5833571D01*
X12426291Y-5833571D02*
X12431053Y-5824048D01*
X12402482Y-5943095D02*
X12402482Y-5952619D01*
X12402482Y-5952619D02*
X12407244Y-5962143D01*
X12407244Y-5962143D02*
X12412006Y-5966905D01*
X12412006Y-5966905D02*
X12421529Y-5971667D01*
X12421529Y-5971667D02*
X12440577Y-5976428D01*
X12440577Y-5976428D02*
X12464387Y-5976428D01*
X12464387Y-5976428D02*
X12483434Y-5971667D01*
X12483434Y-5971667D02*
X12492958Y-5966905D01*
X12492958Y-5966905D02*
X12497720Y-5962143D01*
X12497720Y-5962143D02*
X12502482Y-5952619D01*
X12502482Y-5952619D02*
X12502482Y-5943095D01*
X12502482Y-5943095D02*
X12497720Y-5933571D01*
X12497720Y-5933571D02*
X12492958Y-5928809D01*
X12492958Y-5928809D02*
X12483434Y-5924048D01*
X12483434Y-5924048D02*
X12464387Y-5919286D01*
X12464387Y-5919286D02*
X12440577Y-5919286D01*
X12440577Y-5919286D02*
X12421529Y-5924048D01*
X12421529Y-5924048D02*
X12412006Y-5928809D01*
X12412006Y-5928809D02*
X12407244Y-5933571D01*
X12407244Y-5933571D02*
X12402482Y-5943095D01*
X12412006Y-6014524D02*
X12407244Y-6019286D01*
X12407244Y-6019286D02*
X12402482Y-6028809D01*
X12402482Y-6028809D02*
X12402482Y-6052619D01*
X12402482Y-6052619D02*
X12407244Y-6062143D01*
X12407244Y-6062143D02*
X12412006Y-6066905D01*
X12412006Y-6066905D02*
X12421529Y-6071667D01*
X12421529Y-6071667D02*
X12431053Y-6071667D01*
X12431053Y-6071667D02*
X12445339Y-6066905D01*
X12445339Y-6066905D02*
X12502482Y-6009762D01*
X12502482Y-6009762D02*
X12502482Y-6071667D01*
D12*
X12092333Y-5541837D02*
X12092333Y-5598504D01*
X12092333Y-5598504D02*
X12089000Y-5605171D01*
X12089000Y-5605171D02*
X12085667Y-5608504D01*
X12085667Y-5608504D02*
X12079000Y-5611837D01*
X12079000Y-5611837D02*
X12065667Y-5611837D01*
X12065667Y-5611837D02*
X12059000Y-5608504D01*
X12059000Y-5608504D02*
X12055667Y-5605171D01*
X12055667Y-5605171D02*
X12052333Y-5598504D01*
X12052333Y-5598504D02*
X12052333Y-5541837D01*
X11985667Y-5541837D02*
X12019000Y-5541837D01*
X12019000Y-5541837D02*
X12022333Y-5575171D01*
X12022333Y-5575171D02*
X12019000Y-5571837D01*
X12019000Y-5571837D02*
X12012333Y-5568504D01*
X12012333Y-5568504D02*
X11995667Y-5568504D01*
X11995667Y-5568504D02*
X11989000Y-5571837D01*
X11989000Y-5571837D02*
X11985667Y-5575171D01*
X11985667Y-5575171D02*
X11982333Y-5581837D01*
X11982333Y-5581837D02*
X11982333Y-5598504D01*
X11982333Y-5598504D02*
X11985667Y-5605171D01*
X11985667Y-5605171D02*
X11989000Y-5608504D01*
X11989000Y-5608504D02*
X11995667Y-5611837D01*
X11995667Y-5611837D02*
X12012333Y-5611837D01*
X12012333Y-5611837D02*
X12019000Y-5608504D01*
X12019000Y-5608504D02*
X12022333Y-5605171D01*
D10*
X12389482Y-5846583D02*
X12389482Y-5789440D01*
X12389482Y-5818012D02*
X12289482Y-5818012D01*
X12289482Y-5818012D02*
X12303768Y-5808488D01*
X12303768Y-5808488D02*
X12313291Y-5798964D01*
X12313291Y-5798964D02*
X12318053Y-5789440D01*
X12322815Y-5932298D02*
X12389482Y-5932298D01*
X12322815Y-5889440D02*
X12375196Y-5889440D01*
X12375196Y-5889440D02*
X12384720Y-5894202D01*
X12384720Y-5894202D02*
X12389482Y-5903726D01*
X12389482Y-5903726D02*
X12389482Y-5918012D01*
X12389482Y-5918012D02*
X12384720Y-5927536D01*
X12384720Y-5927536D02*
X12379958Y-5932298D01*
D11*
X12468976Y-5847178D02*
X12470167Y-5845988D01*
X12470167Y-5845988D02*
X12471357Y-5842417D01*
X12471357Y-5842417D02*
X12471357Y-5840036D01*
X12471357Y-5840036D02*
X12470167Y-5836464D01*
X12470167Y-5836464D02*
X12467786Y-5834083D01*
X12467786Y-5834083D02*
X12465405Y-5832893D01*
X12465405Y-5832893D02*
X12460643Y-5831702D01*
X12460643Y-5831702D02*
X12457072Y-5831702D01*
X12457072Y-5831702D02*
X12452310Y-5832893D01*
X12452310Y-5832893D02*
X12449929Y-5834083D01*
X12449929Y-5834083D02*
X12447548Y-5836464D01*
X12447548Y-5836464D02*
X12446357Y-5840036D01*
X12446357Y-5840036D02*
X12446357Y-5842417D01*
X12446357Y-5842417D02*
X12447548Y-5845988D01*
X12447548Y-5845988D02*
X12448738Y-5847178D01*
X12471357Y-5870988D02*
X12471357Y-5856702D01*
X12471357Y-5863845D02*
X12446357Y-5863845D01*
X12446357Y-5863845D02*
X12449929Y-5861464D01*
X12449929Y-5861464D02*
X12452310Y-5859083D01*
X12452310Y-5859083D02*
X12453500Y-5856702D01*
X12446357Y-5893607D02*
X12446357Y-5881702D01*
X12446357Y-5881702D02*
X12458262Y-5880512D01*
X12458262Y-5880512D02*
X12457072Y-5881702D01*
X12457072Y-5881702D02*
X12455881Y-5884083D01*
X12455881Y-5884083D02*
X12455881Y-5890036D01*
X12455881Y-5890036D02*
X12457072Y-5892417D01*
X12457072Y-5892417D02*
X12458262Y-5893607D01*
X12458262Y-5893607D02*
X12460643Y-5894798D01*
X12460643Y-5894798D02*
X12466595Y-5894798D01*
X12466595Y-5894798D02*
X12468976Y-5893607D01*
X12468976Y-5893607D02*
X12470167Y-5892417D01*
X12470167Y-5892417D02*
X12471357Y-5890036D01*
X12471357Y-5890036D02*
X12471357Y-5884083D01*
X12471357Y-5884083D02*
X12470167Y-5881702D01*
X12470167Y-5881702D02*
X12468976Y-5880512D01*
D10*
X11059917Y-5149482D02*
X11117059Y-5149482D01*
X11088488Y-5149482D02*
X11088488Y-5049482D01*
X11088488Y-5049482D02*
X11098012Y-5063768D01*
X11098012Y-5063768D02*
X11107536Y-5073291D01*
X11107536Y-5073291D02*
X11117059Y-5078053D01*
X10974202Y-5082815D02*
X10974202Y-5149482D01*
X11017059Y-5082815D02*
X11017059Y-5135196D01*
X11017059Y-5135196D02*
X11012298Y-5144720D01*
X11012298Y-5144720D02*
X11002774Y-5149482D01*
X11002774Y-5149482D02*
X10988488Y-5149482D01*
X10988488Y-5149482D02*
X10978964Y-5144720D01*
X10978964Y-5144720D02*
X10974202Y-5139958D01*
D11*
X11047417Y-5228977D02*
X11048607Y-5230167D01*
X11048607Y-5230167D02*
X11052179Y-5231357D01*
X11052179Y-5231357D02*
X11054559Y-5231357D01*
X11054559Y-5231357D02*
X11058131Y-5230167D01*
X11058131Y-5230167D02*
X11060512Y-5227786D01*
X11060512Y-5227786D02*
X11061702Y-5225405D01*
X11061702Y-5225405D02*
X11062893Y-5220643D01*
X11062893Y-5220643D02*
X11062893Y-5217072D01*
X11062893Y-5217072D02*
X11061702Y-5212310D01*
X11061702Y-5212310D02*
X11060512Y-5209929D01*
X11060512Y-5209929D02*
X11058131Y-5207548D01*
X11058131Y-5207548D02*
X11054559Y-5206357D01*
X11054559Y-5206357D02*
X11052179Y-5206357D01*
X11052179Y-5206357D02*
X11048607Y-5207548D01*
X11048607Y-5207548D02*
X11047417Y-5208738D01*
X11023607Y-5231357D02*
X11037893Y-5231357D01*
X11030750Y-5231357D02*
X11030750Y-5206357D01*
X11030750Y-5206357D02*
X11033131Y-5209929D01*
X11033131Y-5209929D02*
X11035512Y-5212310D01*
X11035512Y-5212310D02*
X11037893Y-5213500D01*
D10*
X12094815Y-5065631D02*
X12161482Y-5065631D01*
X12056720Y-5041821D02*
X12128148Y-5018012D01*
X12128148Y-5018012D02*
X12128148Y-5079917D01*
X12151958Y-5118012D02*
X12156720Y-5122774D01*
X12156720Y-5122774D02*
X12161482Y-5118012D01*
X12161482Y-5118012D02*
X12156720Y-5113250D01*
X12156720Y-5113250D02*
X12151958Y-5118012D01*
X12151958Y-5118012D02*
X12161482Y-5118012D01*
X12061482Y-5156107D02*
X12061482Y-5222774D01*
X12061482Y-5222774D02*
X12161482Y-5179917D01*
X12094815Y-5303726D02*
X12161482Y-5303726D01*
X12094815Y-5260869D02*
X12147196Y-5260869D01*
X12147196Y-5260869D02*
X12156720Y-5265631D01*
X12156720Y-5265631D02*
X12161482Y-5275155D01*
X12161482Y-5275155D02*
X12161482Y-5289440D01*
X12161482Y-5289440D02*
X12156720Y-5298964D01*
X12156720Y-5298964D02*
X12151958Y-5303726D01*
D11*
X12008976Y-5147179D02*
X12010167Y-5145988D01*
X12010167Y-5145988D02*
X12011357Y-5142417D01*
X12011357Y-5142417D02*
X12011357Y-5140036D01*
X12011357Y-5140036D02*
X12010167Y-5136464D01*
X12010167Y-5136464D02*
X12007786Y-5134083D01*
X12007786Y-5134083D02*
X12005405Y-5132893D01*
X12005405Y-5132893D02*
X12000643Y-5131702D01*
X12000643Y-5131702D02*
X11997072Y-5131702D01*
X11997072Y-5131702D02*
X11992310Y-5132893D01*
X11992310Y-5132893D02*
X11989929Y-5134083D01*
X11989929Y-5134083D02*
X11987548Y-5136464D01*
X11987548Y-5136464D02*
X11986357Y-5140036D01*
X11986357Y-5140036D02*
X11986357Y-5142417D01*
X11986357Y-5142417D02*
X11987548Y-5145988D01*
X11987548Y-5145988D02*
X11988738Y-5147179D01*
X12011357Y-5170988D02*
X12011357Y-5156702D01*
X12011357Y-5163845D02*
X11986357Y-5163845D01*
X11986357Y-5163845D02*
X11989929Y-5161464D01*
X11989929Y-5161464D02*
X11992310Y-5159083D01*
X11992310Y-5159083D02*
X11993500Y-5156702D01*
X11986357Y-5179321D02*
X11986357Y-5195988D01*
X11986357Y-5195988D02*
X12011357Y-5185274D01*
D10*
X11909298Y-5748482D02*
X11966440Y-5748482D01*
X11937869Y-5748482D02*
X11937869Y-5648482D01*
X11937869Y-5648482D02*
X11947393Y-5662768D01*
X11947393Y-5662768D02*
X11956917Y-5672291D01*
X11956917Y-5672291D02*
X11966440Y-5677053D01*
X11847393Y-5648482D02*
X11837869Y-5648482D01*
X11837869Y-5648482D02*
X11828345Y-5653244D01*
X11828345Y-5653244D02*
X11823583Y-5658006D01*
X11823583Y-5658006D02*
X11818821Y-5667529D01*
X11818821Y-5667529D02*
X11814059Y-5686577D01*
X11814059Y-5686577D02*
X11814059Y-5710387D01*
X11814059Y-5710387D02*
X11818821Y-5729434D01*
X11818821Y-5729434D02*
X11823583Y-5738958D01*
X11823583Y-5738958D02*
X11828345Y-5743720D01*
X11828345Y-5743720D02*
X11837869Y-5748482D01*
X11837869Y-5748482D02*
X11847393Y-5748482D01*
X11847393Y-5748482D02*
X11856917Y-5743720D01*
X11856917Y-5743720D02*
X11861678Y-5738958D01*
X11861678Y-5738958D02*
X11866440Y-5729434D01*
X11866440Y-5729434D02*
X11871202Y-5710387D01*
X11871202Y-5710387D02*
X11871202Y-5686577D01*
X11871202Y-5686577D02*
X11866440Y-5667529D01*
X11866440Y-5667529D02*
X11861678Y-5658006D01*
X11861678Y-5658006D02*
X11856917Y-5653244D01*
X11856917Y-5653244D02*
X11847393Y-5648482D01*
X11771202Y-5748482D02*
X11771202Y-5648482D01*
X11714059Y-5748482D02*
X11756917Y-5691339D01*
X11714059Y-5648482D02*
X11771202Y-5705625D01*
D11*
X11844583Y-5831820D02*
X11853250Y-5819439D01*
X11859440Y-5831820D02*
X11859440Y-5805820D01*
X11859440Y-5805820D02*
X11849536Y-5805820D01*
X11849536Y-5805820D02*
X11847059Y-5807058D01*
X11847059Y-5807058D02*
X11845821Y-5808296D01*
X11845821Y-5808296D02*
X11844583Y-5810772D01*
X11844583Y-5810772D02*
X11844583Y-5814487D01*
X11844583Y-5814487D02*
X11845821Y-5816963D01*
X11845821Y-5816963D02*
X11847059Y-5818201D01*
X11847059Y-5818201D02*
X11849536Y-5819439D01*
X11849536Y-5819439D02*
X11859440Y-5819439D01*
X11829726Y-5816963D02*
X11832202Y-5815725D01*
X11832202Y-5815725D02*
X11833440Y-5814487D01*
X11833440Y-5814487D02*
X11834678Y-5812010D01*
X11834678Y-5812010D02*
X11834678Y-5810772D01*
X11834678Y-5810772D02*
X11833440Y-5808296D01*
X11833440Y-5808296D02*
X11832202Y-5807058D01*
X11832202Y-5807058D02*
X11829726Y-5805820D01*
X11829726Y-5805820D02*
X11824774Y-5805820D01*
X11824774Y-5805820D02*
X11822297Y-5807058D01*
X11822297Y-5807058D02*
X11821059Y-5808296D01*
X11821059Y-5808296D02*
X11819821Y-5810772D01*
X11819821Y-5810772D02*
X11819821Y-5812010D01*
X11819821Y-5812010D02*
X11821059Y-5814487D01*
X11821059Y-5814487D02*
X11822297Y-5815725D01*
X11822297Y-5815725D02*
X11824774Y-5816963D01*
X11824774Y-5816963D02*
X11829726Y-5816963D01*
X11829726Y-5816963D02*
X11832202Y-5818201D01*
X11832202Y-5818201D02*
X11833440Y-5819439D01*
X11833440Y-5819439D02*
X11834678Y-5821915D01*
X11834678Y-5821915D02*
X11834678Y-5826868D01*
X11834678Y-5826868D02*
X11833440Y-5829344D01*
X11833440Y-5829344D02*
X11832202Y-5830582D01*
X11832202Y-5830582D02*
X11829726Y-5831820D01*
X11829726Y-5831820D02*
X11824774Y-5831820D01*
X11824774Y-5831820D02*
X11822297Y-5830582D01*
X11822297Y-5830582D02*
X11821059Y-5829344D01*
X11821059Y-5829344D02*
X11819821Y-5826868D01*
X11819821Y-5826868D02*
X11819821Y-5821915D01*
X11819821Y-5821915D02*
X11821059Y-5819439D01*
X11821059Y-5819439D02*
X11822297Y-5818201D01*
X11822297Y-5818201D02*
X11824774Y-5816963D01*
D10*
X11296667Y-5378232D02*
X11353809Y-5378232D01*
X11325238Y-5378232D02*
X11325238Y-5278232D01*
X11325238Y-5278232D02*
X11334762Y-5292518D01*
X11334762Y-5292518D02*
X11344286Y-5302041D01*
X11344286Y-5302041D02*
X11353809Y-5306803D01*
X11210952Y-5311565D02*
X11210952Y-5378232D01*
X11253809Y-5311565D02*
X11253809Y-5363946D01*
X11253809Y-5363946D02*
X11249047Y-5373470D01*
X11249047Y-5373470D02*
X11239524Y-5378232D01*
X11239524Y-5378232D02*
X11225238Y-5378232D01*
X11225238Y-5378232D02*
X11215714Y-5373470D01*
X11215714Y-5373470D02*
X11210952Y-5368708D01*
D11*
X11296071Y-5225727D02*
X11297262Y-5226917D01*
X11297262Y-5226917D02*
X11300833Y-5228107D01*
X11300833Y-5228107D02*
X11303214Y-5228107D01*
X11303214Y-5228107D02*
X11306786Y-5226917D01*
X11306786Y-5226917D02*
X11309167Y-5224536D01*
X11309167Y-5224536D02*
X11310357Y-5222155D01*
X11310357Y-5222155D02*
X11311547Y-5217393D01*
X11311547Y-5217393D02*
X11311547Y-5213822D01*
X11311547Y-5213822D02*
X11310357Y-5209060D01*
X11310357Y-5209060D02*
X11309167Y-5206679D01*
X11309167Y-5206679D02*
X11306786Y-5204298D01*
X11306786Y-5204298D02*
X11303214Y-5203107D01*
X11303214Y-5203107D02*
X11300833Y-5203107D01*
X11300833Y-5203107D02*
X11297262Y-5204298D01*
X11297262Y-5204298D02*
X11296071Y-5205488D01*
X11286547Y-5205488D02*
X11285357Y-5204298D01*
X11285357Y-5204298D02*
X11282976Y-5203107D01*
X11282976Y-5203107D02*
X11277024Y-5203107D01*
X11277024Y-5203107D02*
X11274643Y-5204298D01*
X11274643Y-5204298D02*
X11273452Y-5205488D01*
X11273452Y-5205488D02*
X11272262Y-5207869D01*
X11272262Y-5207869D02*
X11272262Y-5210250D01*
X11272262Y-5210250D02*
X11273452Y-5213822D01*
X11273452Y-5213822D02*
X11287738Y-5228107D01*
X11287738Y-5228107D02*
X11272262Y-5228107D01*
X11248452Y-5228107D02*
X11262738Y-5228107D01*
X11255595Y-5228107D02*
X11255595Y-5203107D01*
X11255595Y-5203107D02*
X11257976Y-5206679D01*
X11257976Y-5206679D02*
X11260357Y-5209060D01*
X11260357Y-5209060D02*
X11262738Y-5210250D01*
D10*
X11401428Y-5178232D02*
X11391905Y-5178232D01*
X11391905Y-5178232D02*
X11382381Y-5182994D01*
X11382381Y-5182994D02*
X11377619Y-5187756D01*
X11377619Y-5187756D02*
X11372857Y-5197280D01*
X11372857Y-5197280D02*
X11368095Y-5216327D01*
X11368095Y-5216327D02*
X11368095Y-5240137D01*
X11368095Y-5240137D02*
X11372857Y-5259184D01*
X11372857Y-5259184D02*
X11377619Y-5268708D01*
X11377619Y-5268708D02*
X11382381Y-5273470D01*
X11382381Y-5273470D02*
X11391905Y-5278232D01*
X11391905Y-5278232D02*
X11401428Y-5278232D01*
X11401428Y-5278232D02*
X11410952Y-5273470D01*
X11410952Y-5273470D02*
X11415714Y-5268708D01*
X11415714Y-5268708D02*
X11420476Y-5259184D01*
X11420476Y-5259184D02*
X11425238Y-5240137D01*
X11425238Y-5240137D02*
X11425238Y-5216327D01*
X11425238Y-5216327D02*
X11420476Y-5197280D01*
X11420476Y-5197280D02*
X11415714Y-5187756D01*
X11415714Y-5187756D02*
X11410952Y-5182994D01*
X11410952Y-5182994D02*
X11401428Y-5178232D01*
X11325238Y-5268708D02*
X11320476Y-5273470D01*
X11320476Y-5273470D02*
X11325238Y-5278232D01*
X11325238Y-5278232D02*
X11330000Y-5273470D01*
X11330000Y-5273470D02*
X11325238Y-5268708D01*
X11325238Y-5268708D02*
X11325238Y-5278232D01*
X11225238Y-5278232D02*
X11282381Y-5278232D01*
X11253809Y-5278232D02*
X11253809Y-5178232D01*
X11253809Y-5178232D02*
X11263333Y-5192518D01*
X11263333Y-5192518D02*
X11272857Y-5202041D01*
X11272857Y-5202041D02*
X11282381Y-5206803D01*
X11139524Y-5211565D02*
X11139524Y-5278232D01*
X11182381Y-5211565D02*
X11182381Y-5263946D01*
X11182381Y-5263946D02*
X11177619Y-5273470D01*
X11177619Y-5273470D02*
X11168095Y-5278232D01*
X11168095Y-5278232D02*
X11153810Y-5278232D01*
X11153810Y-5278232D02*
X11144286Y-5273470D01*
X11144286Y-5273470D02*
X11139524Y-5268708D01*
D11*
X11296071Y-5125727D02*
X11297262Y-5126917D01*
X11297262Y-5126917D02*
X11300833Y-5128107D01*
X11300833Y-5128107D02*
X11303214Y-5128107D01*
X11303214Y-5128107D02*
X11306786Y-5126917D01*
X11306786Y-5126917D02*
X11309167Y-5124536D01*
X11309167Y-5124536D02*
X11310357Y-5122155D01*
X11310357Y-5122155D02*
X11311547Y-5117393D01*
X11311547Y-5117393D02*
X11311547Y-5113822D01*
X11311547Y-5113822D02*
X11310357Y-5109060D01*
X11310357Y-5109060D02*
X11309167Y-5106679D01*
X11309167Y-5106679D02*
X11306786Y-5104298D01*
X11306786Y-5104298D02*
X11303214Y-5103107D01*
X11303214Y-5103107D02*
X11300833Y-5103107D01*
X11300833Y-5103107D02*
X11297262Y-5104298D01*
X11297262Y-5104298D02*
X11296071Y-5105488D01*
X11272262Y-5128107D02*
X11286547Y-5128107D01*
X11279405Y-5128107D02*
X11279405Y-5103107D01*
X11279405Y-5103107D02*
X11281786Y-5106679D01*
X11281786Y-5106679D02*
X11284167Y-5109060D01*
X11284167Y-5109060D02*
X11286547Y-5110250D01*
X11260357Y-5128107D02*
X11255595Y-5128107D01*
X11255595Y-5128107D02*
X11253214Y-5126917D01*
X11253214Y-5126917D02*
X11252024Y-5125727D01*
X11252024Y-5125727D02*
X11249643Y-5122155D01*
X11249643Y-5122155D02*
X11248452Y-5117393D01*
X11248452Y-5117393D02*
X11248452Y-5107869D01*
X11248452Y-5107869D02*
X11249643Y-5105488D01*
X11249643Y-5105488D02*
X11250833Y-5104298D01*
X11250833Y-5104298D02*
X11253214Y-5103107D01*
X11253214Y-5103107D02*
X11257976Y-5103107D01*
X11257976Y-5103107D02*
X11260357Y-5104298D01*
X11260357Y-5104298D02*
X11261548Y-5105488D01*
X11261548Y-5105488D02*
X11262738Y-5107869D01*
X11262738Y-5107869D02*
X11262738Y-5113822D01*
X11262738Y-5113822D02*
X11261548Y-5116203D01*
X11261548Y-5116203D02*
X11260357Y-5117393D01*
X11260357Y-5117393D02*
X11257976Y-5118584D01*
X11257976Y-5118584D02*
X11253214Y-5118584D01*
X11253214Y-5118584D02*
X11250833Y-5117393D01*
X11250833Y-5117393D02*
X11249643Y-5116203D01*
X11249643Y-5116203D02*
X11248452Y-5113822D01*
D10*
X11729482Y-5041821D02*
X11729482Y-5051345D01*
X11729482Y-5051345D02*
X11734244Y-5060869D01*
X11734244Y-5060869D02*
X11739006Y-5065631D01*
X11739006Y-5065631D02*
X11748529Y-5070393D01*
X11748529Y-5070393D02*
X11767577Y-5075155D01*
X11767577Y-5075155D02*
X11791387Y-5075155D01*
X11791387Y-5075155D02*
X11810434Y-5070393D01*
X11810434Y-5070393D02*
X11819958Y-5065631D01*
X11819958Y-5065631D02*
X11824720Y-5060869D01*
X11824720Y-5060869D02*
X11829482Y-5051345D01*
X11829482Y-5051345D02*
X11829482Y-5041821D01*
X11829482Y-5041821D02*
X11824720Y-5032298D01*
X11824720Y-5032298D02*
X11819958Y-5027536D01*
X11819958Y-5027536D02*
X11810434Y-5022774D01*
X11810434Y-5022774D02*
X11791387Y-5018012D01*
X11791387Y-5018012D02*
X11767577Y-5018012D01*
X11767577Y-5018012D02*
X11748529Y-5022774D01*
X11748529Y-5022774D02*
X11739006Y-5027536D01*
X11739006Y-5027536D02*
X11734244Y-5032298D01*
X11734244Y-5032298D02*
X11729482Y-5041821D01*
X11819958Y-5118012D02*
X11824720Y-5122774D01*
X11824720Y-5122774D02*
X11829482Y-5118012D01*
X11829482Y-5118012D02*
X11824720Y-5113250D01*
X11824720Y-5113250D02*
X11819958Y-5118012D01*
X11819958Y-5118012D02*
X11829482Y-5118012D01*
X11829482Y-5218012D02*
X11829482Y-5160869D01*
X11829482Y-5189440D02*
X11729482Y-5189440D01*
X11729482Y-5189440D02*
X11743768Y-5179917D01*
X11743768Y-5179917D02*
X11753291Y-5170393D01*
X11753291Y-5170393D02*
X11758053Y-5160869D01*
X11762815Y-5303726D02*
X11829482Y-5303726D01*
X11762815Y-5260869D02*
X11815196Y-5260869D01*
X11815196Y-5260869D02*
X11824720Y-5265631D01*
X11824720Y-5265631D02*
X11829482Y-5275155D01*
X11829482Y-5275155D02*
X11829482Y-5289440D01*
X11829482Y-5289440D02*
X11824720Y-5298964D01*
X11824720Y-5298964D02*
X11819958Y-5303726D01*
D11*
X11908976Y-5159083D02*
X11910167Y-5157893D01*
X11910167Y-5157893D02*
X11911357Y-5154321D01*
X11911357Y-5154321D02*
X11911357Y-5151941D01*
X11911357Y-5151941D02*
X11910167Y-5148369D01*
X11910167Y-5148369D02*
X11907786Y-5145988D01*
X11907786Y-5145988D02*
X11905405Y-5144798D01*
X11905405Y-5144798D02*
X11900643Y-5143607D01*
X11900643Y-5143607D02*
X11897072Y-5143607D01*
X11897072Y-5143607D02*
X11892310Y-5144798D01*
X11892310Y-5144798D02*
X11889929Y-5145988D01*
X11889929Y-5145988D02*
X11887548Y-5148369D01*
X11887548Y-5148369D02*
X11886357Y-5151941D01*
X11886357Y-5151941D02*
X11886357Y-5154321D01*
X11886357Y-5154321D02*
X11887548Y-5157893D01*
X11887548Y-5157893D02*
X11888738Y-5159083D01*
X11886357Y-5181702D02*
X11886357Y-5169798D01*
X11886357Y-5169798D02*
X11898262Y-5168607D01*
X11898262Y-5168607D02*
X11897072Y-5169798D01*
X11897072Y-5169798D02*
X11895881Y-5172179D01*
X11895881Y-5172179D02*
X11895881Y-5178131D01*
X11895881Y-5178131D02*
X11897072Y-5180512D01*
X11897072Y-5180512D02*
X11898262Y-5181702D01*
X11898262Y-5181702D02*
X11900643Y-5182893D01*
X11900643Y-5182893D02*
X11906595Y-5182893D01*
X11906595Y-5182893D02*
X11908976Y-5181702D01*
X11908976Y-5181702D02*
X11910167Y-5180512D01*
X11910167Y-5180512D02*
X11911357Y-5178131D01*
X11911357Y-5178131D02*
X11911357Y-5172179D01*
X11911357Y-5172179D02*
X11910167Y-5169798D01*
X11910167Y-5169798D02*
X11908976Y-5168607D01*
D10*
X11821482Y-5041821D02*
X11821482Y-5051345D01*
X11821482Y-5051345D02*
X11826244Y-5060869D01*
X11826244Y-5060869D02*
X11831006Y-5065631D01*
X11831006Y-5065631D02*
X11840529Y-5070393D01*
X11840529Y-5070393D02*
X11859577Y-5075155D01*
X11859577Y-5075155D02*
X11883387Y-5075155D01*
X11883387Y-5075155D02*
X11902434Y-5070393D01*
X11902434Y-5070393D02*
X11911958Y-5065631D01*
X11911958Y-5065631D02*
X11916720Y-5060869D01*
X11916720Y-5060869D02*
X11921482Y-5051345D01*
X11921482Y-5051345D02*
X11921482Y-5041821D01*
X11921482Y-5041821D02*
X11916720Y-5032298D01*
X11916720Y-5032298D02*
X11911958Y-5027536D01*
X11911958Y-5027536D02*
X11902434Y-5022774D01*
X11902434Y-5022774D02*
X11883387Y-5018012D01*
X11883387Y-5018012D02*
X11859577Y-5018012D01*
X11859577Y-5018012D02*
X11840529Y-5022774D01*
X11840529Y-5022774D02*
X11831006Y-5027536D01*
X11831006Y-5027536D02*
X11826244Y-5032298D01*
X11826244Y-5032298D02*
X11821482Y-5041821D01*
X11911958Y-5118012D02*
X11916720Y-5122774D01*
X11916720Y-5122774D02*
X11921482Y-5118012D01*
X11921482Y-5118012D02*
X11916720Y-5113250D01*
X11916720Y-5113250D02*
X11911958Y-5118012D01*
X11911958Y-5118012D02*
X11921482Y-5118012D01*
X11921482Y-5218012D02*
X11921482Y-5160869D01*
X11921482Y-5189440D02*
X11821482Y-5189440D01*
X11821482Y-5189440D02*
X11835768Y-5179917D01*
X11835768Y-5179917D02*
X11845291Y-5170393D01*
X11845291Y-5170393D02*
X11850053Y-5160869D01*
X11854815Y-5303726D02*
X11921482Y-5303726D01*
X11854815Y-5260869D02*
X11907196Y-5260869D01*
X11907196Y-5260869D02*
X11916720Y-5265631D01*
X11916720Y-5265631D02*
X11921482Y-5275155D01*
X11921482Y-5275155D02*
X11921482Y-5289440D01*
X11921482Y-5289440D02*
X11916720Y-5298964D01*
X11916720Y-5298964D02*
X11911958Y-5303726D01*
D11*
X11768976Y-5147179D02*
X11770167Y-5145988D01*
X11770167Y-5145988D02*
X11771357Y-5142417D01*
X11771357Y-5142417D02*
X11771357Y-5140036D01*
X11771357Y-5140036D02*
X11770167Y-5136464D01*
X11770167Y-5136464D02*
X11767786Y-5134083D01*
X11767786Y-5134083D02*
X11765405Y-5132893D01*
X11765405Y-5132893D02*
X11760643Y-5131702D01*
X11760643Y-5131702D02*
X11757072Y-5131702D01*
X11757072Y-5131702D02*
X11752310Y-5132893D01*
X11752310Y-5132893D02*
X11749929Y-5134083D01*
X11749929Y-5134083D02*
X11747548Y-5136464D01*
X11747548Y-5136464D02*
X11746357Y-5140036D01*
X11746357Y-5140036D02*
X11746357Y-5142417D01*
X11746357Y-5142417D02*
X11747548Y-5145988D01*
X11747548Y-5145988D02*
X11748738Y-5147179D01*
X11771357Y-5170988D02*
X11771357Y-5156702D01*
X11771357Y-5163845D02*
X11746357Y-5163845D01*
X11746357Y-5163845D02*
X11749929Y-5161464D01*
X11749929Y-5161464D02*
X11752310Y-5159083D01*
X11752310Y-5159083D02*
X11753500Y-5156702D01*
X11754691Y-5192417D02*
X11771357Y-5192417D01*
X11745167Y-5186464D02*
X11763024Y-5180512D01*
X11763024Y-5180512D02*
X11763024Y-5195988D01*
D10*
X12198178Y-5649482D02*
X12188655Y-5649482D01*
X12188655Y-5649482D02*
X12179131Y-5654244D01*
X12179131Y-5654244D02*
X12174369Y-5659006D01*
X12174369Y-5659006D02*
X12169607Y-5668529D01*
X12169607Y-5668529D02*
X12164845Y-5687577D01*
X12164845Y-5687577D02*
X12164845Y-5711387D01*
X12164845Y-5711387D02*
X12169607Y-5730434D01*
X12169607Y-5730434D02*
X12174369Y-5739958D01*
X12174369Y-5739958D02*
X12179131Y-5744720D01*
X12179131Y-5744720D02*
X12188655Y-5749482D01*
X12188655Y-5749482D02*
X12198178Y-5749482D01*
X12198178Y-5749482D02*
X12207702Y-5744720D01*
X12207702Y-5744720D02*
X12212464Y-5739958D01*
X12212464Y-5739958D02*
X12217226Y-5730434D01*
X12217226Y-5730434D02*
X12221988Y-5711387D01*
X12221988Y-5711387D02*
X12221988Y-5687577D01*
X12221988Y-5687577D02*
X12217226Y-5668529D01*
X12217226Y-5668529D02*
X12212464Y-5659006D01*
X12212464Y-5659006D02*
X12207702Y-5654244D01*
X12207702Y-5654244D02*
X12198178Y-5649482D01*
X12121988Y-5739958D02*
X12117226Y-5744720D01*
X12117226Y-5744720D02*
X12121988Y-5749482D01*
X12121988Y-5749482D02*
X12126750Y-5744720D01*
X12126750Y-5744720D02*
X12121988Y-5739958D01*
X12121988Y-5739958D02*
X12121988Y-5749482D01*
X12021988Y-5749482D02*
X12079131Y-5749482D01*
X12050559Y-5749482D02*
X12050559Y-5649482D01*
X12050559Y-5649482D02*
X12060083Y-5663768D01*
X12060083Y-5663768D02*
X12069607Y-5673291D01*
X12069607Y-5673291D02*
X12079131Y-5678053D01*
X11936274Y-5682815D02*
X11936274Y-5749482D01*
X11979131Y-5682815D02*
X11979131Y-5735196D01*
X11979131Y-5735196D02*
X11974369Y-5744720D01*
X11974369Y-5744720D02*
X11964845Y-5749482D01*
X11964845Y-5749482D02*
X11950559Y-5749482D01*
X11950559Y-5749482D02*
X11941036Y-5744720D01*
X11941036Y-5744720D02*
X11936274Y-5739958D01*
D11*
X12080917Y-5828976D02*
X12082107Y-5830167D01*
X12082107Y-5830167D02*
X12085678Y-5831357D01*
X12085678Y-5831357D02*
X12088059Y-5831357D01*
X12088059Y-5831357D02*
X12091631Y-5830167D01*
X12091631Y-5830167D02*
X12094012Y-5827786D01*
X12094012Y-5827786D02*
X12095202Y-5825405D01*
X12095202Y-5825405D02*
X12096393Y-5820643D01*
X12096393Y-5820643D02*
X12096393Y-5817072D01*
X12096393Y-5817072D02*
X12095202Y-5812310D01*
X12095202Y-5812310D02*
X12094012Y-5809929D01*
X12094012Y-5809929D02*
X12091631Y-5807548D01*
X12091631Y-5807548D02*
X12088059Y-5806357D01*
X12088059Y-5806357D02*
X12085678Y-5806357D01*
X12085678Y-5806357D02*
X12082107Y-5807548D01*
X12082107Y-5807548D02*
X12080917Y-5808738D01*
X12072583Y-5806357D02*
X12055917Y-5806357D01*
X12055917Y-5806357D02*
X12066631Y-5831357D01*
D10*
X12461482Y-5041821D02*
X12461482Y-5051345D01*
X12461482Y-5051345D02*
X12466244Y-5060869D01*
X12466244Y-5060869D02*
X12471006Y-5065631D01*
X12471006Y-5065631D02*
X12480529Y-5070393D01*
X12480529Y-5070393D02*
X12499577Y-5075155D01*
X12499577Y-5075155D02*
X12523387Y-5075155D01*
X12523387Y-5075155D02*
X12542434Y-5070393D01*
X12542434Y-5070393D02*
X12551958Y-5065631D01*
X12551958Y-5065631D02*
X12556720Y-5060869D01*
X12556720Y-5060869D02*
X12561482Y-5051345D01*
X12561482Y-5051345D02*
X12561482Y-5041821D01*
X12561482Y-5041821D02*
X12556720Y-5032298D01*
X12556720Y-5032298D02*
X12551958Y-5027536D01*
X12551958Y-5027536D02*
X12542434Y-5022774D01*
X12542434Y-5022774D02*
X12523387Y-5018012D01*
X12523387Y-5018012D02*
X12499577Y-5018012D01*
X12499577Y-5018012D02*
X12480529Y-5022774D01*
X12480529Y-5022774D02*
X12471006Y-5027536D01*
X12471006Y-5027536D02*
X12466244Y-5032298D01*
X12466244Y-5032298D02*
X12461482Y-5041821D01*
X12551958Y-5118012D02*
X12556720Y-5122774D01*
X12556720Y-5122774D02*
X12561482Y-5118012D01*
X12561482Y-5118012D02*
X12556720Y-5113250D01*
X12556720Y-5113250D02*
X12551958Y-5118012D01*
X12551958Y-5118012D02*
X12561482Y-5118012D01*
X12561482Y-5218012D02*
X12561482Y-5160869D01*
X12561482Y-5189440D02*
X12461482Y-5189440D01*
X12461482Y-5189440D02*
X12475768Y-5179917D01*
X12475768Y-5179917D02*
X12485291Y-5170393D01*
X12485291Y-5170393D02*
X12490053Y-5160869D01*
X12494815Y-5303726D02*
X12561482Y-5303726D01*
X12494815Y-5260869D02*
X12547196Y-5260869D01*
X12547196Y-5260869D02*
X12556720Y-5265631D01*
X12556720Y-5265631D02*
X12561482Y-5275155D01*
X12561482Y-5275155D02*
X12561482Y-5289440D01*
X12561482Y-5289440D02*
X12556720Y-5298964D01*
X12556720Y-5298964D02*
X12551958Y-5303726D01*
D11*
X12408976Y-5159083D02*
X12410167Y-5157893D01*
X12410167Y-5157893D02*
X12411357Y-5154321D01*
X12411357Y-5154321D02*
X12411357Y-5151941D01*
X12411357Y-5151941D02*
X12410167Y-5148369D01*
X12410167Y-5148369D02*
X12407786Y-5145988D01*
X12407786Y-5145988D02*
X12405405Y-5144798D01*
X12405405Y-5144798D02*
X12400643Y-5143607D01*
X12400643Y-5143607D02*
X12397072Y-5143607D01*
X12397072Y-5143607D02*
X12392310Y-5144798D01*
X12392310Y-5144798D02*
X12389929Y-5145988D01*
X12389929Y-5145988D02*
X12387548Y-5148369D01*
X12387548Y-5148369D02*
X12386357Y-5151941D01*
X12386357Y-5151941D02*
X12386357Y-5154321D01*
X12386357Y-5154321D02*
X12387548Y-5157893D01*
X12387548Y-5157893D02*
X12388738Y-5159083D01*
X12386357Y-5180512D02*
X12386357Y-5175750D01*
X12386357Y-5175750D02*
X12387548Y-5173369D01*
X12387548Y-5173369D02*
X12388738Y-5172179D01*
X12388738Y-5172179D02*
X12392310Y-5169798D01*
X12392310Y-5169798D02*
X12397072Y-5168607D01*
X12397072Y-5168607D02*
X12406595Y-5168607D01*
X12406595Y-5168607D02*
X12408976Y-5169798D01*
X12408976Y-5169798D02*
X12410167Y-5170988D01*
X12410167Y-5170988D02*
X12411357Y-5173369D01*
X12411357Y-5173369D02*
X12411357Y-5178131D01*
X12411357Y-5178131D02*
X12410167Y-5180512D01*
X12410167Y-5180512D02*
X12408976Y-5181702D01*
X12408976Y-5181702D02*
X12406595Y-5182893D01*
X12406595Y-5182893D02*
X12400643Y-5182893D01*
X12400643Y-5182893D02*
X12398262Y-5181702D01*
X12398262Y-5181702D02*
X12397072Y-5180512D01*
X12397072Y-5180512D02*
X12395881Y-5178131D01*
X12395881Y-5178131D02*
X12395881Y-5173369D01*
X12395881Y-5173369D02*
X12397072Y-5170988D01*
X12397072Y-5170988D02*
X12398262Y-5169798D01*
X12398262Y-5169798D02*
X12400643Y-5168607D01*
D10*
X11922631Y-5201815D02*
X11922631Y-5268482D01*
X11946440Y-5163720D02*
X11970250Y-5235149D01*
X11970250Y-5235149D02*
X11908345Y-5235149D01*
X11870250Y-5258958D02*
X11865488Y-5263720D01*
X11865488Y-5263720D02*
X11870250Y-5268482D01*
X11870250Y-5268482D02*
X11875012Y-5263720D01*
X11875012Y-5263720D02*
X11870250Y-5258958D01*
X11870250Y-5258958D02*
X11870250Y-5268482D01*
X11832155Y-5168482D02*
X11765488Y-5168482D01*
X11765488Y-5168482D02*
X11808345Y-5268482D01*
X11727393Y-5268482D02*
X11727393Y-5168482D01*
X11670250Y-5268482D02*
X11713107Y-5211339D01*
X11670250Y-5168482D02*
X11727393Y-5225625D01*
D11*
X11824583Y-5351820D02*
X11833250Y-5339439D01*
X11839440Y-5351820D02*
X11839440Y-5325820D01*
X11839440Y-5325820D02*
X11829536Y-5325820D01*
X11829536Y-5325820D02*
X11827059Y-5327058D01*
X11827059Y-5327058D02*
X11825821Y-5328296D01*
X11825821Y-5328296D02*
X11824583Y-5330772D01*
X11824583Y-5330772D02*
X11824583Y-5334487D01*
X11824583Y-5334487D02*
X11825821Y-5336963D01*
X11825821Y-5336963D02*
X11827059Y-5338201D01*
X11827059Y-5338201D02*
X11829536Y-5339439D01*
X11829536Y-5339439D02*
X11839440Y-5339439D01*
X11802297Y-5325820D02*
X11807250Y-5325820D01*
X11807250Y-5325820D02*
X11809726Y-5327058D01*
X11809726Y-5327058D02*
X11810964Y-5328296D01*
X11810964Y-5328296D02*
X11813440Y-5332011D01*
X11813440Y-5332011D02*
X11814678Y-5336963D01*
X11814678Y-5336963D02*
X11814678Y-5346868D01*
X11814678Y-5346868D02*
X11813440Y-5349344D01*
X11813440Y-5349344D02*
X11812202Y-5350582D01*
X11812202Y-5350582D02*
X11809726Y-5351820D01*
X11809726Y-5351820D02*
X11804774Y-5351820D01*
X11804774Y-5351820D02*
X11802297Y-5350582D01*
X11802297Y-5350582D02*
X11801059Y-5349344D01*
X11801059Y-5349344D02*
X11799821Y-5346868D01*
X11799821Y-5346868D02*
X11799821Y-5340677D01*
X11799821Y-5340677D02*
X11801059Y-5338201D01*
X11801059Y-5338201D02*
X11802297Y-5336963D01*
X11802297Y-5336963D02*
X11804774Y-5335725D01*
X11804774Y-5335725D02*
X11809726Y-5335725D01*
X11809726Y-5335725D02*
X11812202Y-5336963D01*
X11812202Y-5336963D02*
X11813440Y-5338201D01*
X11813440Y-5338201D02*
X11814678Y-5340677D01*
D10*
X11174815Y-5625631D02*
X11241482Y-5625631D01*
X11136720Y-5601821D02*
X11208148Y-5578012D01*
X11208148Y-5578012D02*
X11208148Y-5639917D01*
X11231958Y-5678012D02*
X11236720Y-5682774D01*
X11236720Y-5682774D02*
X11241482Y-5678012D01*
X11241482Y-5678012D02*
X11236720Y-5673250D01*
X11236720Y-5673250D02*
X11231958Y-5678012D01*
X11231958Y-5678012D02*
X11241482Y-5678012D01*
X11141482Y-5716107D02*
X11141482Y-5782774D01*
X11141482Y-5782774D02*
X11241482Y-5739917D01*
X11174815Y-5863726D02*
X11241482Y-5863726D01*
X11174815Y-5820869D02*
X11227196Y-5820869D01*
X11227196Y-5820869D02*
X11236720Y-5825631D01*
X11236720Y-5825631D02*
X11241482Y-5835155D01*
X11241482Y-5835155D02*
X11241482Y-5849440D01*
X11241482Y-5849440D02*
X11236720Y-5858964D01*
X11236720Y-5858964D02*
X11231958Y-5863726D01*
D11*
X11088977Y-5719083D02*
X11090167Y-5717893D01*
X11090167Y-5717893D02*
X11091357Y-5714321D01*
X11091357Y-5714321D02*
X11091357Y-5711940D01*
X11091357Y-5711940D02*
X11090167Y-5708369D01*
X11090167Y-5708369D02*
X11087786Y-5705988D01*
X11087786Y-5705988D02*
X11085405Y-5704798D01*
X11085405Y-5704798D02*
X11080643Y-5703607D01*
X11080643Y-5703607D02*
X11077072Y-5703607D01*
X11077072Y-5703607D02*
X11072310Y-5704798D01*
X11072310Y-5704798D02*
X11069929Y-5705988D01*
X11069929Y-5705988D02*
X11067548Y-5708369D01*
X11067548Y-5708369D02*
X11066357Y-5711940D01*
X11066357Y-5711940D02*
X11066357Y-5714321D01*
X11066357Y-5714321D02*
X11067548Y-5717893D01*
X11067548Y-5717893D02*
X11068738Y-5719083D01*
X11074691Y-5740512D02*
X11091357Y-5740512D01*
X11065167Y-5734559D02*
X11083024Y-5728607D01*
X11083024Y-5728607D02*
X11083024Y-5744083D01*
D10*
X12261482Y-5041821D02*
X12261482Y-5051345D01*
X12261482Y-5051345D02*
X12266244Y-5060869D01*
X12266244Y-5060869D02*
X12271006Y-5065631D01*
X12271006Y-5065631D02*
X12280529Y-5070393D01*
X12280529Y-5070393D02*
X12299577Y-5075155D01*
X12299577Y-5075155D02*
X12323387Y-5075155D01*
X12323387Y-5075155D02*
X12342434Y-5070393D01*
X12342434Y-5070393D02*
X12351958Y-5065631D01*
X12351958Y-5065631D02*
X12356720Y-5060869D01*
X12356720Y-5060869D02*
X12361482Y-5051345D01*
X12361482Y-5051345D02*
X12361482Y-5041821D01*
X12361482Y-5041821D02*
X12356720Y-5032298D01*
X12356720Y-5032298D02*
X12351958Y-5027536D01*
X12351958Y-5027536D02*
X12342434Y-5022774D01*
X12342434Y-5022774D02*
X12323387Y-5018012D01*
X12323387Y-5018012D02*
X12299577Y-5018012D01*
X12299577Y-5018012D02*
X12280529Y-5022774D01*
X12280529Y-5022774D02*
X12271006Y-5027536D01*
X12271006Y-5027536D02*
X12266244Y-5032298D01*
X12266244Y-5032298D02*
X12261482Y-5041821D01*
X12351958Y-5118012D02*
X12356720Y-5122774D01*
X12356720Y-5122774D02*
X12361482Y-5118012D01*
X12361482Y-5118012D02*
X12356720Y-5113250D01*
X12356720Y-5113250D02*
X12351958Y-5118012D01*
X12351958Y-5118012D02*
X12361482Y-5118012D01*
X12361482Y-5218012D02*
X12361482Y-5160869D01*
X12361482Y-5189440D02*
X12261482Y-5189440D01*
X12261482Y-5189440D02*
X12275768Y-5179917D01*
X12275768Y-5179917D02*
X12285291Y-5170393D01*
X12285291Y-5170393D02*
X12290053Y-5160869D01*
X12294815Y-5303726D02*
X12361482Y-5303726D01*
X12294815Y-5260869D02*
X12347196Y-5260869D01*
X12347196Y-5260869D02*
X12356720Y-5265631D01*
X12356720Y-5265631D02*
X12361482Y-5275155D01*
X12361482Y-5275155D02*
X12361482Y-5289440D01*
X12361482Y-5289440D02*
X12356720Y-5298964D01*
X12356720Y-5298964D02*
X12351958Y-5303726D01*
D11*
X12208976Y-5147179D02*
X12210167Y-5145988D01*
X12210167Y-5145988D02*
X12211357Y-5142417D01*
X12211357Y-5142417D02*
X12211357Y-5140036D01*
X12211357Y-5140036D02*
X12210167Y-5136464D01*
X12210167Y-5136464D02*
X12207786Y-5134083D01*
X12207786Y-5134083D02*
X12205405Y-5132893D01*
X12205405Y-5132893D02*
X12200643Y-5131702D01*
X12200643Y-5131702D02*
X12197072Y-5131702D01*
X12197072Y-5131702D02*
X12192310Y-5132893D01*
X12192310Y-5132893D02*
X12189929Y-5134083D01*
X12189929Y-5134083D02*
X12187548Y-5136464D01*
X12187548Y-5136464D02*
X12186357Y-5140036D01*
X12186357Y-5140036D02*
X12186357Y-5142417D01*
X12186357Y-5142417D02*
X12187548Y-5145988D01*
X12187548Y-5145988D02*
X12188738Y-5147179D01*
X12211357Y-5170988D02*
X12211357Y-5156702D01*
X12211357Y-5163845D02*
X12186357Y-5163845D01*
X12186357Y-5163845D02*
X12189929Y-5161464D01*
X12189929Y-5161464D02*
X12192310Y-5159083D01*
X12192310Y-5159083D02*
X12193500Y-5156702D01*
X12186357Y-5186464D02*
X12186357Y-5188845D01*
X12186357Y-5188845D02*
X12187548Y-5191226D01*
X12187548Y-5191226D02*
X12188738Y-5192417D01*
X12188738Y-5192417D02*
X12191119Y-5193607D01*
X12191119Y-5193607D02*
X12195881Y-5194798D01*
X12195881Y-5194798D02*
X12201834Y-5194798D01*
X12201834Y-5194798D02*
X12206595Y-5193607D01*
X12206595Y-5193607D02*
X12208976Y-5192417D01*
X12208976Y-5192417D02*
X12210167Y-5191226D01*
X12210167Y-5191226D02*
X12211357Y-5188845D01*
X12211357Y-5188845D02*
X12211357Y-5186464D01*
X12211357Y-5186464D02*
X12210167Y-5184083D01*
X12210167Y-5184083D02*
X12208976Y-5182893D01*
X12208976Y-5182893D02*
X12206595Y-5181702D01*
X12206595Y-5181702D02*
X12201834Y-5180512D01*
X12201834Y-5180512D02*
X12195881Y-5180512D01*
X12195881Y-5180512D02*
X12191119Y-5181702D01*
X12191119Y-5181702D02*
X12188738Y-5182893D01*
X12188738Y-5182893D02*
X12187548Y-5184083D01*
X12187548Y-5184083D02*
X12186357Y-5186464D01*
D10*
X12361482Y-5035321D02*
X12361482Y-5044845D01*
X12361482Y-5044845D02*
X12366244Y-5054369D01*
X12366244Y-5054369D02*
X12371006Y-5059131D01*
X12371006Y-5059131D02*
X12380529Y-5063893D01*
X12380529Y-5063893D02*
X12399577Y-5068655D01*
X12399577Y-5068655D02*
X12423387Y-5068655D01*
X12423387Y-5068655D02*
X12442434Y-5063893D01*
X12442434Y-5063893D02*
X12451958Y-5059131D01*
X12451958Y-5059131D02*
X12456720Y-5054369D01*
X12456720Y-5054369D02*
X12461482Y-5044845D01*
X12461482Y-5044845D02*
X12461482Y-5035321D01*
X12461482Y-5035321D02*
X12456720Y-5025798D01*
X12456720Y-5025798D02*
X12451958Y-5021036D01*
X12451958Y-5021036D02*
X12442434Y-5016274D01*
X12442434Y-5016274D02*
X12423387Y-5011512D01*
X12423387Y-5011512D02*
X12399577Y-5011512D01*
X12399577Y-5011512D02*
X12380529Y-5016274D01*
X12380529Y-5016274D02*
X12371006Y-5021036D01*
X12371006Y-5021036D02*
X12366244Y-5025798D01*
X12366244Y-5025798D02*
X12361482Y-5035321D01*
X12451958Y-5111512D02*
X12456720Y-5116274D01*
X12456720Y-5116274D02*
X12461482Y-5111512D01*
X12461482Y-5111512D02*
X12456720Y-5106750D01*
X12456720Y-5106750D02*
X12451958Y-5111512D01*
X12451958Y-5111512D02*
X12461482Y-5111512D01*
X12461482Y-5211512D02*
X12461482Y-5154369D01*
X12461482Y-5182940D02*
X12361482Y-5182940D01*
X12361482Y-5182940D02*
X12375768Y-5173417D01*
X12375768Y-5173417D02*
X12385291Y-5163893D01*
X12385291Y-5163893D02*
X12390053Y-5154369D01*
X12394815Y-5297226D02*
X12461482Y-5297226D01*
X12394815Y-5254369D02*
X12447196Y-5254369D01*
X12447196Y-5254369D02*
X12456720Y-5259131D01*
X12456720Y-5259131D02*
X12461482Y-5268655D01*
X12461482Y-5268655D02*
X12461482Y-5282940D01*
X12461482Y-5282940D02*
X12456720Y-5292464D01*
X12456720Y-5292464D02*
X12451958Y-5297226D01*
D11*
X12308976Y-5140679D02*
X12310167Y-5139488D01*
X12310167Y-5139488D02*
X12311357Y-5135917D01*
X12311357Y-5135917D02*
X12311357Y-5133536D01*
X12311357Y-5133536D02*
X12310167Y-5129964D01*
X12310167Y-5129964D02*
X12307786Y-5127583D01*
X12307786Y-5127583D02*
X12305405Y-5126393D01*
X12305405Y-5126393D02*
X12300643Y-5125202D01*
X12300643Y-5125202D02*
X12297072Y-5125202D01*
X12297072Y-5125202D02*
X12292310Y-5126393D01*
X12292310Y-5126393D02*
X12289929Y-5127583D01*
X12289929Y-5127583D02*
X12287548Y-5129964D01*
X12287548Y-5129964D02*
X12286357Y-5133536D01*
X12286357Y-5133536D02*
X12286357Y-5135917D01*
X12286357Y-5135917D02*
X12287548Y-5139488D01*
X12287548Y-5139488D02*
X12288738Y-5140679D01*
X12311357Y-5164488D02*
X12311357Y-5150202D01*
X12311357Y-5157345D02*
X12286357Y-5157345D01*
X12286357Y-5157345D02*
X12289929Y-5154964D01*
X12289929Y-5154964D02*
X12292310Y-5152583D01*
X12292310Y-5152583D02*
X12293500Y-5150202D01*
X12311357Y-5188298D02*
X12311357Y-5174012D01*
X12311357Y-5181155D02*
X12286357Y-5181155D01*
X12286357Y-5181155D02*
X12289929Y-5178774D01*
X12289929Y-5178774D02*
X12292310Y-5176393D01*
X12292310Y-5176393D02*
X12293500Y-5174012D01*
%TO.C,C18*%
D13*
X12075000Y-5113250D02*
X12125000Y-5113250D01*
X12125000Y-5213250D01*
X12075000Y-5213250D01*
X12075000Y-5113250D01*
D14*
%TO.C,U3*%
X11048250Y-5314750D02*
X11048250Y-5314750D01*
X11048250Y-5314750D02*
X11353050Y-5314750D01*
X11048250Y-5351510D02*
X11048250Y-5381990D01*
X11048250Y-5381990D02*
X11053330Y-5381990D01*
X11048250Y-5401510D02*
X11048250Y-5431990D01*
X11048250Y-5431990D02*
X11053330Y-5431990D01*
X11048250Y-5451510D02*
X11048250Y-5481990D01*
X11048250Y-5481990D02*
X11053330Y-5481990D01*
X11048250Y-5501510D02*
X11048250Y-5531990D01*
X11048250Y-5531990D02*
X11053330Y-5531990D01*
X11048250Y-5568750D02*
X11048250Y-5314750D01*
X11048250Y-5568750D02*
X11048250Y-5568750D01*
X11053330Y-5351510D02*
X11048250Y-5351510D01*
X11053330Y-5381990D02*
X11053330Y-5351510D01*
X11053330Y-5401510D02*
X11048250Y-5401510D01*
X11053330Y-5431990D02*
X11053330Y-5401510D01*
X11053330Y-5451510D02*
X11048250Y-5451510D01*
X11053330Y-5481990D02*
X11053330Y-5451510D01*
X11053330Y-5501510D02*
X11048250Y-5501510D01*
X11053330Y-5531990D02*
X11053330Y-5501510D01*
X11135410Y-5314750D02*
X11135410Y-5319830D01*
X11135410Y-5319830D02*
X11165890Y-5319830D01*
X11135410Y-5563670D02*
X11135410Y-5568750D01*
X11135410Y-5568750D02*
X11165890Y-5568750D01*
X11165890Y-5314750D02*
X11135410Y-5314750D01*
X11165890Y-5319830D02*
X11165890Y-5314750D01*
X11165890Y-5563670D02*
X11135410Y-5563670D01*
X11165890Y-5568750D02*
X11165890Y-5563670D01*
X11185410Y-5314750D02*
X11185410Y-5319830D01*
X11185410Y-5319830D02*
X11215890Y-5319830D01*
X11185410Y-5563670D02*
X11185410Y-5568750D01*
X11185410Y-5568750D02*
X11215890Y-5568750D01*
X11215890Y-5314750D02*
X11185410Y-5314750D01*
X11215890Y-5319830D02*
X11215890Y-5314750D01*
X11215890Y-5563670D02*
X11185410Y-5563670D01*
X11215890Y-5568750D02*
X11215890Y-5563670D01*
X11235410Y-5314750D02*
X11235410Y-5319830D01*
X11235410Y-5319830D02*
X11265890Y-5319830D01*
X11235410Y-5563670D02*
X11235410Y-5568750D01*
X11235410Y-5568750D02*
X11265890Y-5568750D01*
X11265890Y-5314750D02*
X11235410Y-5314750D01*
X11265890Y-5319830D02*
X11265890Y-5314750D01*
X11265890Y-5563670D02*
X11235410Y-5563670D01*
X11265890Y-5568750D02*
X11265890Y-5563670D01*
X11347970Y-5351510D02*
X11347970Y-5381990D01*
X11347970Y-5381990D02*
X11353050Y-5381990D01*
X11347970Y-5401510D02*
X11347970Y-5431990D01*
X11347970Y-5431990D02*
X11353050Y-5431990D01*
X11347970Y-5451510D02*
X11347970Y-5481990D01*
X11347970Y-5481990D02*
X11353050Y-5481990D01*
X11347970Y-5501510D02*
X11347970Y-5531990D01*
X11347970Y-5531990D02*
X11353050Y-5531990D01*
X11353050Y-5314750D02*
X11353050Y-5314750D01*
X11353050Y-5314750D02*
X11353050Y-5568750D01*
X11353050Y-5351510D02*
X11347970Y-5351510D01*
X11353050Y-5381990D02*
X11353050Y-5351510D01*
X11353050Y-5401510D02*
X11347970Y-5401510D01*
X11353050Y-5431990D02*
X11353050Y-5401510D01*
X11353050Y-5441750D02*
X11226050Y-5314750D01*
X11353050Y-5451510D02*
X11347970Y-5451510D01*
X11353050Y-5481990D02*
X11353050Y-5451510D01*
X11353050Y-5501510D02*
X11347970Y-5501510D01*
X11353050Y-5531990D02*
X11353050Y-5501510D01*
X11353050Y-5568750D02*
X11048250Y-5568750D01*
X11353050Y-5568750D02*
X11353050Y-5568750D01*
%TO.C,R7*%
D13*
X12112250Y-5313000D02*
X12007250Y-5313000D01*
X12007250Y-5367000D01*
X12112250Y-5367000D01*
X12112250Y-5313000D01*
%TO.C,C3*%
X11246750Y-5785000D02*
X11346750Y-5785000D01*
X11346750Y-5735000D01*
X11246750Y-5735000D01*
X11246750Y-5785000D01*
%TO.C,C8*%
X12293250Y-5895000D02*
X12193250Y-5895000D01*
X12193250Y-5945000D01*
X12293250Y-5945000D01*
X12293250Y-5895000D01*
%TO.C,C22*%
X11346750Y-5635000D02*
X11246750Y-5635000D01*
X11246750Y-5685000D01*
X11346750Y-5685000D01*
X11346750Y-5635000D01*
%TO.C,C16*%
X11966750Y-5945000D02*
X12066750Y-5945000D01*
X12066750Y-5895000D01*
X11966750Y-5895000D01*
X11966750Y-5945000D01*
%TO.C,U5*%
X11759000Y-5495000D02*
X11759000Y-5745000D01*
X11839000Y-5415000D02*
X11759000Y-5495000D01*
X12319000Y-5415000D02*
X11839000Y-5415000D01*
X12319000Y-5415000D02*
X12319000Y-5745000D01*
X12319000Y-5745000D02*
X11759000Y-5745000D01*
%TO.C,C15*%
X12485000Y-5913250D02*
X12435000Y-5913250D01*
X12435000Y-5813250D01*
X12485000Y-5813250D01*
X12485000Y-5913250D01*
%TO.C,C1*%
X10993250Y-5245000D02*
X11093250Y-5245000D01*
X11093250Y-5195000D01*
X10993250Y-5195000D01*
X10993250Y-5245000D01*
%TO.C,C17*%
X11975000Y-5113250D02*
X12025000Y-5113250D01*
X12025000Y-5213250D01*
X11975000Y-5213250D01*
X11975000Y-5113250D01*
%TO.C,R8*%
X11787750Y-5847000D02*
X11892750Y-5847000D01*
X11892750Y-5793000D01*
X11787750Y-5793000D01*
X11787750Y-5847000D01*
%TO.C,C21*%
X11330000Y-5191750D02*
X11230000Y-5191750D01*
X11230000Y-5241750D01*
X11330000Y-5241750D01*
X11330000Y-5191750D01*
%TO.C,C19*%
X11330000Y-5091750D02*
X11230000Y-5091750D01*
X11230000Y-5141750D01*
X11330000Y-5141750D01*
X11330000Y-5091750D01*
%TO.C,C5*%
X11925000Y-5213250D02*
X11875000Y-5213250D01*
X11875000Y-5113250D01*
X11925000Y-5113250D01*
X11925000Y-5213250D01*
%TO.C,C14*%
X11735000Y-5113250D02*
X11785000Y-5113250D01*
X11785000Y-5213250D01*
X11735000Y-5213250D01*
X11735000Y-5113250D01*
%TO.C,C7*%
X12026750Y-5845000D02*
X12126750Y-5845000D01*
X12126750Y-5795000D01*
X12026750Y-5795000D01*
X12026750Y-5845000D01*
%TO.C,C6*%
X12375000Y-5113250D02*
X12425000Y-5113250D01*
X12425000Y-5213250D01*
X12375000Y-5213250D01*
X12375000Y-5113250D01*
%TO.C,R6*%
X11767750Y-5367000D02*
X11872750Y-5367000D01*
X11872750Y-5313000D01*
X11767750Y-5313000D01*
X11767750Y-5367000D01*
%TO.C,C4*%
X11055000Y-5673250D02*
X11105000Y-5673250D01*
X11105000Y-5773250D01*
X11055000Y-5773250D01*
X11055000Y-5673250D01*
%TO.C,C10*%
X12175000Y-5113250D02*
X12225000Y-5113250D01*
X12225000Y-5213250D01*
X12175000Y-5213250D01*
X12175000Y-5113250D01*
%TO.C,C11*%
X12275000Y-5106750D02*
X12325000Y-5106750D01*
X12325000Y-5206750D01*
X12275000Y-5206750D01*
X12275000Y-5106750D01*
%TD*%
M02*
