%TF.GenerationSoftware,KiCad,Pcbnew,9.0.7*%
%TF.CreationDate,2026-05-14T04:55:41+05:30*%
%TF.ProjectId,prj-kicad,70726a2d-6b69-4636-9164-2e6b69636164,rev?*%
%TF.SameCoordinates,Original*%
%TF.FileFunction,Paste,Bot*%
%TF.FilePolarity,Positive*%
%FSLAX45Y45*%
G04 Gerber Fmt 4.5, Leading zero omitted, Abs format (unit mm)*
G04 Created by KiCad (PCBNEW 9.0.7) date 2026-05-14 04:55:41*
%MOMM*%
%LPD*%
G01*
G04 APERTURE LIST*
G04 Aperture macros list*
%AMRoundRect*
0 Rectangle with rounded corners*
0 $1 Rounding radius*
0 $2 $3 $4 $5 $6 $7 $8 $9 X,Y pos of 4 corners*
0 Add a 4 corners polygon primitive as box body*
4,1,4,$2,$3,$4,$5,$6,$7,$8,$9,$2,$3,0*
0 Add four circle primitives for the rounded corners*
1,1,$1+$1,$2,$3*
1,1,$1+$1,$4,$5*
1,1,$1+$1,$6,$7*
1,1,$1+$1,$8,$9*
0 Add four rect primitives between the rounded corners*
20,1,$1+$1,$2,$3,$4,$5,0*
20,1,$1+$1,$4,$5,$6,$7,0*
20,1,$1+$1,$6,$7,$8,$9,0*
20,1,$1+$1,$8,$9,$2,$3,0*%
G04 Aperture macros list end*
%ADD10RoundRect,0.155000X-0.155000X0.212500X-0.155000X-0.212500X0.155000X-0.212500X0.155000X0.212500X0*%
%ADD11R,0.533400X0.304800*%
%ADD12R,0.304800X0.533400*%
%ADD13RoundRect,0.160000X0.197500X0.160000X-0.197500X0.160000X-0.197500X-0.160000X0.197500X-0.160000X0*%
%ADD14RoundRect,0.155000X-0.212500X-0.155000X0.212500X-0.155000X0.212500X0.155000X-0.212500X0.155000X0*%
%ADD15RoundRect,0.155000X0.212500X0.155000X-0.212500X0.155000X-0.212500X-0.155000X0.212500X-0.155000X0*%
%ADD16RoundRect,0.087500X-0.087500X0.287500X-0.087500X-0.287500X0.087500X-0.287500X0.087500X0.287500X0*%
%ADD17RoundRect,0.155000X0.155000X-0.212500X0.155000X0.212500X-0.155000X0.212500X-0.155000X-0.212500X0*%
%ADD18RoundRect,0.160000X-0.197500X-0.160000X0.197500X-0.160000X0.197500X0.160000X-0.197500X0.160000X0*%
G04 APERTURE END LIST*
D10*
%TO.C,C18*%
X12100000Y-5106500D03*
X12100000Y-5220000D03*
%TD*%
D11*
%TO.C,U3*%
X11321300Y-5366750D03*
X11321300Y-5416750D03*
X11321300Y-5466750D03*
X11321300Y-5516750D03*
D12*
X11250650Y-5537000D03*
X11200650Y-5537000D03*
X11150650Y-5537000D03*
D11*
X11080000Y-5516750D03*
X11080000Y-5466750D03*
X11080000Y-5416750D03*
X11080000Y-5366750D03*
D12*
X11150650Y-5346500D03*
X11200650Y-5346500D03*
X11250650Y-5346500D03*
%TD*%
D13*
%TO.C,R7*%
X12119500Y-5340000D03*
X12000000Y-5340000D03*
%TD*%
D14*
%TO.C,C3*%
X11240000Y-5760000D03*
X11353500Y-5760000D03*
%TD*%
D15*
%TO.C,C8*%
X12300000Y-5920000D03*
X12186500Y-5920000D03*
%TD*%
%TO.C,C22*%
X11353500Y-5660000D03*
X11240000Y-5660000D03*
%TD*%
D14*
%TO.C,C16*%
X11960000Y-5920000D03*
X12073500Y-5920000D03*
%TD*%
D16*
%TO.C,U5*%
X11800000Y-5460000D03*
X11880000Y-5460000D03*
X11960000Y-5460000D03*
X12040000Y-5460000D03*
X12120000Y-5460000D03*
X12200000Y-5460000D03*
X12280000Y-5460000D03*
X12280000Y-5700000D03*
X12200000Y-5700000D03*
X12120000Y-5700000D03*
X12040000Y-5700000D03*
X11960000Y-5700000D03*
X11880000Y-5700000D03*
X11800000Y-5700000D03*
%TD*%
D17*
%TO.C,C15*%
X12460000Y-5920000D03*
X12460000Y-5806500D03*
%TD*%
D14*
%TO.C,C1*%
X10986500Y-5220000D03*
X11100000Y-5220000D03*
%TD*%
D10*
%TO.C,C17*%
X12000000Y-5106500D03*
X12000000Y-5220000D03*
%TD*%
D18*
%TO.C,R8*%
X11780500Y-5820000D03*
X11900000Y-5820000D03*
%TD*%
D15*
%TO.C,C21*%
X11336750Y-5216750D03*
X11223250Y-5216750D03*
%TD*%
%TO.C,C19*%
X11336750Y-5116750D03*
X11223250Y-5116750D03*
%TD*%
D17*
%TO.C,C5*%
X11900000Y-5220000D03*
X11900000Y-5106500D03*
%TD*%
D10*
%TO.C,C14*%
X11760000Y-5106500D03*
X11760000Y-5220000D03*
%TD*%
D14*
%TO.C,C7*%
X12020000Y-5820000D03*
X12133500Y-5820000D03*
%TD*%
D10*
%TO.C,C6*%
X12400000Y-5106500D03*
X12400000Y-5220000D03*
%TD*%
D18*
%TO.C,R6*%
X11760500Y-5340000D03*
X11880000Y-5340000D03*
%TD*%
D10*
%TO.C,C4*%
X11080000Y-5666500D03*
X11080000Y-5780000D03*
%TD*%
%TO.C,C10*%
X12200000Y-5106500D03*
X12200000Y-5220000D03*
%TD*%
%TO.C,C11*%
X12300000Y-5100000D03*
X12300000Y-5213500D03*
%TD*%
M02*
