%TF.GenerationSoftware,KiCad,Pcbnew,9.0.7*%
%TF.CreationDate,2026-05-14T04:55:41+05:30*%
%TF.ProjectId,prj-kicad,70726a2d-6b69-4636-9164-2e6b69636164,rev?*%
%TF.SameCoordinates,Original*%
%TF.FileFunction,Soldermask,Top*%
%TF.FilePolarity,Negative*%
%FSLAX45Y45*%
G04 Gerber Fmt 4.5, Leading zero omitted, Abs format (unit mm)*
G04 Created by KiCad (PCBNEW 9.0.7) date 2026-05-14 04:55:41*
%MOMM*%
%LPD*%
G01*
G04 APERTURE LIST*
G04 Aperture macros list*
%AMRoundRect*
0 Rectangle with rounded corners*
0 $1 Rounding radius*
0 $2 $3 $4 $5 $6 $7 $8 $9 X,Y pos of 4 corners*
0 Add a 4 corners polygon primitive as box body*
4,1,4,$2,$3,$4,$5,$6,$7,$8,$9,$2,$3,0*
0 Add four circle primitives for the rounded corners*
1,1,$1+$1,$2,$3*
1,1,$1+$1,$4,$5*
1,1,$1+$1,$6,$7*
1,1,$1+$1,$8,$9*
0 Add four rect primitives between the rounded corners*
20,1,$1+$1,$2,$3,$4,$5,0*
20,1,$1+$1,$4,$5,$6,$7,0*
20,1,$1+$1,$6,$7,$8,$9,0*
20,1,$1+$1,$8,$9,$2,$3,0*%
G04 Aperture macros list end*
%ADD10R,1.600200X0.863600*%
%ADD11RoundRect,0.160000X-0.197500X-0.160000X0.197500X-0.160000X0.197500X0.160000X-0.197500X0.160000X0*%
%ADD12RoundRect,0.155000X0.155000X-0.212500X0.155000X0.212500X-0.155000X0.212500X-0.155000X-0.212500X0*%
%ADD13R,0.762000X0.254000*%
%ADD14R,0.254000X0.762000*%
%ADD15R,3.606800X3.606800*%
%ADD16RoundRect,0.250000X-0.250000X-0.750000X0.250000X-0.750000X0.250000X0.750000X-0.250000X0.750000X0*%
%ADD17RoundRect,0.150000X0.512500X0.150000X-0.512500X0.150000X-0.512500X-0.150000X0.512500X-0.150000X0*%
%ADD18RoundRect,0.155000X0.212500X0.155000X-0.212500X0.155000X-0.212500X-0.155000X0.212500X-0.155000X0*%
%ADD19O,1.200000X1.200000*%
%ADD20RoundRect,0.160000X0.160000X-0.222500X0.160000X0.222500X-0.160000X0.222500X-0.160000X-0.222500X0*%
%ADD21RoundRect,0.160000X0.160000X-0.197500X0.160000X0.197500X-0.160000X0.197500X-0.160000X-0.197500X0*%
%ADD22RoundRect,0.102000X0.425000X0.375000X-0.425000X0.375000X-0.425000X-0.375000X0.425000X-0.375000X0*%
%ADD23RoundRect,0.155000X-0.155000X0.212500X-0.155000X-0.212500X0.155000X-0.212500X0.155000X0.212500X0*%
G04 APERTURE END LIST*
D10*
%TO.C,U6*%
X13040000Y-5584760D03*
X13040000Y-5280000D03*
%TD*%
D11*
%TO.C,R4*%
X11240000Y-5560000D03*
X11359500Y-5560000D03*
%TD*%
D12*
%TO.C,C9*%
X12740000Y-5700000D03*
X12740000Y-5586500D03*
%TD*%
D13*
%TO.C,U2*%
X11780000Y-5462430D03*
X11780000Y-5512430D03*
X11780000Y-5562430D03*
X11780000Y-5612430D03*
X11780000Y-5662430D03*
X11780000Y-5712430D03*
X11780000Y-5762430D03*
X11780000Y-5812430D03*
D14*
X11847570Y-5880000D03*
X11897570Y-5880000D03*
X11947570Y-5880000D03*
X11997570Y-5880000D03*
X12047570Y-5880000D03*
X12097570Y-5880000D03*
X12147570Y-5880000D03*
X12197570Y-5880000D03*
D13*
X12265140Y-5812430D03*
X12265140Y-5762430D03*
X12265140Y-5712430D03*
X12265140Y-5662430D03*
X12265140Y-5612430D03*
X12265140Y-5562430D03*
X12265140Y-5512430D03*
X12265140Y-5462430D03*
D14*
X12197570Y-5394860D03*
X12147570Y-5394860D03*
X12097570Y-5394860D03*
X12047570Y-5394860D03*
X11997570Y-5394860D03*
X11947570Y-5394860D03*
X11897570Y-5394860D03*
X11847570Y-5394860D03*
D15*
X12022570Y-5637430D03*
%TD*%
D16*
%TO.C,J2*%
X11000000Y-5580000D03*
%TD*%
D17*
%TO.C,U1*%
X11420000Y-5430000D03*
X11420000Y-5335000D03*
X11420000Y-5240000D03*
X11192500Y-5240000D03*
X11192500Y-5430000D03*
%TD*%
%TO.C,U4*%
X11420000Y-5890000D03*
X11420000Y-5795000D03*
X11420000Y-5700000D03*
X11192500Y-5700000D03*
X11192500Y-5890000D03*
%TD*%
D18*
%TO.C,C2*%
X11413500Y-5100000D03*
X11300000Y-5100000D03*
%TD*%
D19*
%TO.C,J4*%
X12440000Y-5920000D03*
X12440000Y-5780000D03*
X12440000Y-5640000D03*
X12440000Y-5500000D03*
X12440000Y-5360000D03*
%TD*%
D12*
%TO.C,C12*%
X12300000Y-5260000D03*
X12300000Y-5146500D03*
%TD*%
D20*
%TO.C,L1*%
X12840000Y-5700000D03*
X12840000Y-5585500D03*
%TD*%
D16*
%TO.C,J1*%
X11000000Y-5840000D03*
%TD*%
D21*
%TO.C,R1*%
X11000000Y-5380000D03*
X11000000Y-5260500D03*
%TD*%
D22*
%TO.C,Y2*%
X12115000Y-5135000D03*
X11980000Y-5135000D03*
X11980000Y-5240000D03*
X12115000Y-5240000D03*
%TD*%
D23*
%TO.C,C13*%
X11860000Y-5146500D03*
X11860000Y-5260000D03*
%TD*%
D19*
%TO.C,J3*%
X11140000Y-5120000D03*
X11000000Y-5120000D03*
%TD*%
M02*
