M48
; DRILL file {KiCad 9.0.7} date 2026-05-14T04:55:41+0530
; FORMAT={-:-/ absolute / inch / decimal}
; #@! TF.CreationDate,2026-05-14T04:55:41+05:30
; #@! TF.GenerationSoftware,Kicad,Pcbnew,9.0.7
; #@! TF.FileFunction,MixedPlating,1,2
FMAT,2
INCH
; #@! TA.AperFunction,Plated,PTH,ViaDrill
T1C0.0039
%
G90
G05
T1
X4.3307Y-2.0711
X4.3591Y-1.998
X4.376Y-2.189
X4.3907Y-2.0623
X4.3937Y-2.2756
X4.4252Y-2.2224
X4.4252Y-2.2913
X4.4255Y-2.189
X4.439Y-2.0472
X4.4424Y-2.0701
X4.4451Y-2.1169
X4.4495Y-2.265
X4.4572Y-2.1129
X4.4633Y-2.0145
X4.4722Y-2.189
X4.4961Y-2.2815
X4.5118Y-2.0394
X4.5222Y-2.3021
X4.5276Y-2.2047
X4.6299Y-2.0104
X4.6301Y-2.1024
X4.638Y-2.2913
X4.6535Y-2.315
X4.7244Y-2.0104
X4.7333Y-2.2195
X4.7385Y-2.125
X4.7402Y-2.0797
X4.7402Y-2.1496
X4.7628Y-2.1248
X4.7716Y-2.0999
X4.7953Y-2.0873
X4.8189Y-2.2276
X4.827Y-2.1256
X4.8504Y-2.0965
X4.8504Y-2.126
X4.8646Y-2.0769
X4.8656Y-2.2435
X5.0236Y-2.2756
M30
