%TF.GenerationSoftware,KiCad,Pcbnew,9.0.7*%
%TF.CreationDate,2026-05-14T04:55:41+05:30*%
%TF.ProjectId,prj-kicad,70726a2d-6b69-4636-9164-2e6b69636164,rev?*%
%TF.SameCoordinates,Original*%
%TF.FileFunction,Copper,L1,Top*%
%TF.FilePolarity,Positive*%
%FSLAX45Y45*%
G04 Gerber Fmt 4.5, Leading zero omitted, Abs format (unit mm)*
G04 Created by KiCad (PCBNEW 9.0.7) date 2026-05-14 04:55:41*
%MOMM*%
%LPD*%
G01*
G04 APERTURE LIST*
G04 Aperture macros list*
%AMRoundRect*
0 Rectangle with rounded corners*
0 $1 Rounding radius*
0 $2 $3 $4 $5 $6 $7 $8 $9 X,Y pos of 4 corners*
0 Add a 4 corners polygon primitive as box body*
4,1,4,$2,$3,$4,$5,$6,$7,$8,$9,$2,$3,0*
0 Add four circle primitives for the rounded corners*
1,1,$1+$1,$2,$3*
1,1,$1+$1,$4,$5*
1,1,$1+$1,$6,$7*
1,1,$1+$1,$8,$9*
0 Add four rect primitives between the rounded corners*
20,1,$1+$1,$2,$3,$4,$5,0*
20,1,$1+$1,$4,$5,$6,$7,0*
20,1,$1+$1,$6,$7,$8,$9,0*
20,1,$1+$1,$8,$9,$2,$3,0*%
G04 Aperture macros list end*
%TA.AperFunction,SMDPad,CuDef*%
%ADD10R,1.600200X0.863600*%
%TD*%
%TA.AperFunction,SMDPad,CuDef*%
%ADD11RoundRect,0.160000X-0.197500X-0.160000X0.197500X-0.160000X0.197500X0.160000X-0.197500X0.160000X0*%
%TD*%
%TA.AperFunction,SMDPad,CuDef*%
%ADD12RoundRect,0.155000X0.155000X-0.212500X0.155000X0.212500X-0.155000X0.212500X-0.155000X-0.212500X0*%
%TD*%
%TA.AperFunction,SMDPad,CuDef*%
%ADD13R,0.762000X0.254000*%
%TD*%
%TA.AperFunction,SMDPad,CuDef*%
%ADD14R,0.254000X0.762000*%
%TD*%
%TA.AperFunction,SMDPad,CuDef*%
%ADD15R,3.606800X3.606800*%
%TD*%
%TA.AperFunction,SMDPad,CuDef*%
%ADD16RoundRect,0.250000X-0.250000X-0.750000X0.250000X-0.750000X0.250000X0.750000X-0.250000X0.750000X0*%
%TD*%
%TA.AperFunction,SMDPad,CuDef*%
%ADD17RoundRect,0.150000X0.512500X0.150000X-0.512500X0.150000X-0.512500X-0.150000X0.512500X-0.150000X0*%
%TD*%
%TA.AperFunction,SMDPad,CuDef*%
%ADD18RoundRect,0.155000X0.212500X0.155000X-0.212500X0.155000X-0.212500X-0.155000X0.212500X-0.155000X0*%
%TD*%
%TA.AperFunction,TestPad*%
%ADD19O,1.200000X1.200000*%
%TD*%
%TA.AperFunction,SMDPad,CuDef*%
%ADD20RoundRect,0.160000X0.160000X-0.222500X0.160000X0.222500X-0.160000X0.222500X-0.160000X-0.222500X0*%
%TD*%
%TA.AperFunction,SMDPad,CuDef*%
%ADD21RoundRect,0.160000X0.160000X-0.197500X0.160000X0.197500X-0.160000X0.197500X-0.160000X-0.197500X0*%
%TD*%
%TA.AperFunction,SMDPad,CuDef*%
%ADD22R,0.850000X0.750000*%
%TD*%
%TA.AperFunction,SMDPad,CuDef*%
%ADD23RoundRect,0.155000X-0.155000X0.212500X-0.155000X-0.212500X0.155000X-0.212500X0.155000X0.212500X0*%
%TD*%
%TA.AperFunction,ViaPad*%
%ADD24C,0.300000*%
%TD*%
%TA.AperFunction,Conductor*%
%ADD25C,0.200000*%
%TD*%
G04 APERTURE END LIST*
D10*
%TO.P,U6,1,1*%
%TO.N,Net-(L1-Pad2)*%
X13040000Y-5584760D03*
%TO.P,U6,2,2*%
%TO.N,GND*%
X13040000Y-5280000D03*
%TD*%
D11*
%TO.P,R4,1*%
%TO.N,/IMU/3p3V*%
X11240000Y-5560000D03*
%TO.P,R4,2*%
%TO.N,/IMU/IMU_INT*%
X11359500Y-5560000D03*
%TD*%
D12*
%TO.P,C9,1*%
%TO.N,Net-(U2-ANT)*%
X12740000Y-5700000D03*
%TO.P,C9,2*%
%TO.N,GND*%
X12740000Y-5586500D03*
%TD*%
D13*
%TO.P,U2,1,DEC1*%
%TO.N,/IMU/3p3V*%
X11780000Y-5462430D03*
%TO.P,U2,2,P0.00/XL1*%
%TO.N,unconnected-(U2-P0.00{slash}XL1-Pad2)*%
X11780000Y-5512430D03*
%TO.P,U2,3,P0.01/XL2*%
%TO.N,unconnected-(U2-P0.01{slash}XL2-Pad3)*%
X11780000Y-5562430D03*
%TO.P,U2,4,P0.04/AIN2*%
%TO.N,unconnected-(U2-P0.04{slash}AIN2-Pad4)*%
X11780000Y-5612430D03*
%TO.P,U2,5,P0.05/AIN3*%
%TO.N,unconnected-(U2-P0.05{slash}AIN3-Pad5)*%
X11780000Y-5662430D03*
%TO.P,U2,6,P0.06*%
%TO.N,unconnected-(U2-P0.06-Pad6)*%
X11780000Y-5712430D03*
%TO.P,U2,7,P0.09*%
%TO.N,/IMU/IMU_INT*%
X11780000Y-5762430D03*
%TO.P,U2,8,P0.10*%
%TO.N,/MCU/PPG_INT*%
X11780000Y-5812430D03*
D14*
%TO.P,U2,9,VDD*%
%TO.N,/IMU/3p3V*%
X11847570Y-5880000D03*
%TO.P,U2,10,P0.12*%
%TO.N,unconnected-(U2-P0.12-Pad10)*%
X11897570Y-5880000D03*
%TO.P,U2,11,P0.14*%
%TO.N,unconnected-(U2-P0.14-Pad11)*%
X11947570Y-5880000D03*
%TO.P,U2,12,P0.15*%
%TO.N,unconnected-(U2-P0.15-Pad12)*%
X11997570Y-5880000D03*
%TO.P,U2,13,P0.16*%
%TO.N,unconnected-(U2-P0.16-Pad13)*%
X12047570Y-5880000D03*
%TO.P,U2,14,P0.18*%
%TO.N,unconnected-(U2-P0.18-Pad14)*%
X12097570Y-5880000D03*
%TO.P,U2,15,P0.20*%
%TO.N,unconnected-(U2-P0.20-Pad15)*%
X12147570Y-5880000D03*
%TO.P,U2,16,P0.21/nRESET*%
%TO.N,/MCU/RESET*%
X12197570Y-5880000D03*
D13*
%TO.P,U2,17,SWDCLK*%
%TO.N,/MCU/SWDCLK*%
X12265140Y-5812430D03*
%TO.P,U2,18,SWDIO*%
%TO.N,/MCU/SWDIO*%
X12265140Y-5762430D03*
%TO.P,U2,19,ANT*%
%TO.N,Net-(U2-ANT)*%
X12265140Y-5712430D03*
%TO.P,U2,20,VSS*%
%TO.N,GND*%
X12265140Y-5662430D03*
%TO.P,U2,21,DEC2*%
%TO.N,/IMU/3p3V*%
X12265140Y-5612430D03*
%TO.P,U2,22,DEC3*%
X12265140Y-5562430D03*
%TO.P,U2,23,XC1*%
%TO.N,Net-(U2-XC1)*%
X12265140Y-5512430D03*
%TO.P,U2,24,XC2*%
%TO.N,Net-(U2-XC2)*%
X12265140Y-5462430D03*
D14*
%TO.P,U2,25,VDD*%
%TO.N,/IMU/3p3V*%
X12197570Y-5394860D03*
%TO.P,U2,26,P0.25*%
%TO.N,unconnected-(U2-P0.25-Pad26)*%
X12147570Y-5394860D03*
%TO.P,U2,27,P0.28/AIN4*%
%TO.N,/IMU/I2C.SDA*%
X12097570Y-5394860D03*
%TO.P,U2,28,P0.30/AIN6*%
%TO.N,/IMU/I2C.SCL*%
X12047570Y-5394860D03*
%TO.P,U2,29,VSS*%
%TO.N,GND*%
X11997570Y-5394860D03*
%TO.P,U2,30,DEC4*%
%TO.N,/IMU/3p3V*%
X11947570Y-5394860D03*
%TO.P,U2,31,DCC*%
%TO.N,unconnected-(U2-DCC-Pad31)*%
X11897570Y-5394860D03*
%TO.P,U2,32,VDD*%
%TO.N,/IMU/3p3V*%
X11847570Y-5394860D03*
D15*
%TO.P,U2,33,VSS*%
%TO.N,GND*%
X12022570Y-5637430D03*
%TD*%
D16*
%TO.P,J2,1,Pin_1*%
%TO.N,GND*%
X11000000Y-5580000D03*
%TD*%
D17*
%TO.P,U1,1,STAT*%
%TO.N,unconnected-(U1-STAT-Pad1)*%
X11420000Y-5430000D03*
%TO.P,U1,2,V_{SS}*%
%TO.N,GND*%
X11420000Y-5335000D03*
%TO.P,U1,3,V_{BAT}*%
%TO.N,/IMU/3p3V*%
X11420000Y-5240000D03*
%TO.P,U1,4,V_{DD}*%
%TO.N,/Pad-conn/CRG_5V*%
X11192500Y-5240000D03*
%TO.P,U1,5,PROG*%
%TO.N,Net-(U1-PROG)*%
X11192500Y-5430000D03*
%TD*%
%TO.P,U4,1,IN*%
%TO.N,/IMU/3p3V*%
X11420000Y-5890000D03*
%TO.P,U4,2,GND*%
%TO.N,GND*%
X11420000Y-5795000D03*
%TO.P,U4,3,EN*%
%TO.N,/IMU/3p3V*%
X11420000Y-5700000D03*
%TO.P,U4,4,GND*%
%TO.N,GND*%
X11192500Y-5700000D03*
%TO.P,U4,5,OUT*%
%TO.N,/bat-conn/BatP*%
X11192500Y-5890000D03*
%TD*%
D18*
%TO.P,C2,1*%
%TO.N,/IMU/3p3V*%
X11413500Y-5100000D03*
%TO.P,C2,2*%
%TO.N,GND*%
X11300000Y-5100000D03*
%TD*%
D19*
%TO.P,J4,1,Pin_1*%
%TO.N,/MCU/RESET*%
X12440000Y-5920000D03*
%TO.P,J4,2,Pin_2*%
%TO.N,/MCU/SWDCLK*%
X12440000Y-5780000D03*
%TO.P,J4,3,Pin_3*%
%TO.N,/MCU/SWDIO*%
X12440000Y-5640000D03*
%TO.P,J4,4,Pin_4*%
%TO.N,GND*%
X12440000Y-5500000D03*
%TO.P,J4,5,Pin_5*%
%TO.N,/IMU/3p3V*%
X12440000Y-5360000D03*
%TD*%
D12*
%TO.P,C12,1*%
%TO.N,GND*%
X12300000Y-5260000D03*
%TO.P,C12,2*%
%TO.N,Net-(U2-XC2)*%
X12300000Y-5146500D03*
%TD*%
D20*
%TO.P,L1,1,1*%
%TO.N,Net-(U2-ANT)*%
X12840000Y-5700000D03*
%TO.P,L1,2,2*%
%TO.N,Net-(L1-Pad2)*%
X12840000Y-5585500D03*
%TD*%
D16*
%TO.P,J1,1,Pin_1*%
%TO.N,/bat-conn/BatP*%
X11000000Y-5840000D03*
%TD*%
D21*
%TO.P,R1,1*%
%TO.N,Net-(U1-PROG)*%
X11000000Y-5380000D03*
%TO.P,R1,2*%
%TO.N,GND*%
X11000000Y-5260500D03*
%TD*%
D22*
%TO.P,Y2,1,IN/OUT*%
%TO.N,Net-(U2-XC2)*%
X12115000Y-5135000D03*
%TO.P,Y2,2,GND*%
%TO.N,GND*%
X11980000Y-5135000D03*
%TO.P,Y2,3,OUT/IN*%
%TO.N,Net-(U2-XC1)*%
X11980000Y-5240000D03*
%TO.P,Y2,4,GND*%
%TO.N,GND*%
X12115000Y-5240000D03*
%TD*%
D23*
%TO.P,C13,1*%
%TO.N,GND*%
X11860000Y-5146500D03*
%TO.P,C13,2*%
%TO.N,Net-(U2-XC1)*%
X11860000Y-5260000D03*
%TD*%
D19*
%TO.P,J3,1,Pin_1*%
%TO.N,GND*%
X11140000Y-5120000D03*
%TO.P,J3,2,Pin_2*%
%TO.N,/Pad-conn/CRG_5V*%
X11000000Y-5120000D03*
%TD*%
D24*
%TO.N,/Pad-conn/CRG_5V*%
X11152350Y-5238152D03*
%TO.N,GND*%
X11301750Y-5753137D03*
X11420000Y-5795000D03*
X11072111Y-5075000D03*
X11283704Y-5257987D03*
X11000000Y-5260500D03*
X11160000Y-5780000D03*
X11290620Y-5376834D03*
X12240000Y-5658056D03*
X12022570Y-5637430D03*
X11115000Y-5560000D03*
X12000000Y-5106500D03*
X11760000Y-5106500D03*
X12040000Y-5460000D03*
X11336750Y-5116750D03*
X11321300Y-5366750D03*
%TO.N,/IMU/3p3V*%
X12119913Y-5333694D03*
X11820000Y-5880000D03*
X11486332Y-5847364D03*
X11240000Y-5645000D03*
X11460000Y-5180000D03*
X11760500Y-5340000D03*
X11240890Y-5560000D03*
X11275000Y-5199785D03*
%TO.N,/bat-conn/BatP*%
X11240000Y-5820000D03*
%TO.N,Net-(U2-ANT)*%
X12358612Y-5698612D03*
X12760000Y-5780000D03*
%TO.N,Net-(U2-XC2)*%
X12356000Y-5275250D03*
X12260681Y-5399053D03*
%TO.N,Net-(U2-XC1)*%
X12180131Y-5301660D03*
X12040000Y-5282403D03*
X12320000Y-5400000D03*
X12320000Y-5325000D03*
%TO.N,/IMU/IMU_INT*%
X11500000Y-5600000D03*
X11359500Y-5560000D03*
%TO.N,/IMU/I2C.SCL*%
X12035772Y-5397500D03*
%TO.N,/IMU/I2C.SDA*%
X12097514Y-5396991D03*
%TO.N,/MCU/PPG_INT*%
X11780500Y-5820000D03*
%TD*%
D25*
%TO.N,/Pad-conn/CRG_5V*%
X11120000Y-5240000D02*
X11192500Y-5240000D01*
X11000000Y-5120000D02*
X11120000Y-5240000D01*
%TO.N,GND*%
X11072111Y-5075000D02*
X11095000Y-5075000D01*
X12440000Y-5480000D02*
X12533203Y-5480000D01*
X13039046Y-5275240D02*
X13080000Y-5275240D01*
X12099800Y-5240000D02*
X12115000Y-5240000D01*
X11420000Y-5335000D02*
X11425000Y-5335000D01*
X12308270Y-5662430D02*
X12300000Y-5662430D01*
X11997570Y-5452960D02*
X12004610Y-5460000D01*
X11160000Y-5100000D02*
X11140000Y-5120000D01*
X11997570Y-5357430D02*
X12018340Y-5336660D01*
X11420000Y-5335000D02*
X11360718Y-5335000D01*
X12323240Y-5662430D02*
X12359900Y-5625770D01*
X11095000Y-5075000D02*
X11140000Y-5120000D01*
X11320000Y-5100000D02*
X11336750Y-5116750D01*
X11300704Y-5366750D02*
X11290620Y-5376834D01*
X12115000Y-5288968D02*
X12115000Y-5240000D01*
X12265140Y-5662430D02*
X12300000Y-5662430D01*
X11248613Y-5700000D02*
X11301750Y-5753137D01*
X11321300Y-5366750D02*
X11300704Y-5366750D01*
X11871500Y-5135000D02*
X11860000Y-5146500D01*
X11000000Y-5580000D02*
X11072500Y-5580000D01*
X12440000Y-5506721D02*
X12440000Y-5480000D01*
X12022570Y-5637430D02*
X11997570Y-5612430D01*
X12000000Y-5106500D02*
X12047500Y-5154000D01*
X13020000Y-5275240D02*
X12919990Y-5275240D01*
X11980000Y-5135000D02*
X11871500Y-5135000D01*
X12300000Y-5662430D02*
X12323240Y-5662430D01*
X12004610Y-5460000D02*
X12040000Y-5460000D01*
X11072500Y-5580000D02*
X11192500Y-5700000D01*
X12018340Y-5336660D02*
X12067308Y-5336660D01*
X12047500Y-5154000D02*
X12047500Y-5187700D01*
X11115000Y-5560000D02*
X11092500Y-5560000D01*
X11997570Y-5394860D02*
X11997570Y-5452960D01*
X11420000Y-5335000D02*
X11353050Y-5335000D01*
X11160000Y-5780000D02*
X11160000Y-5732500D01*
X12067308Y-5336660D02*
X12115000Y-5288968D01*
X11360718Y-5335000D02*
X11283704Y-5257987D01*
X11160000Y-5732500D02*
X11192500Y-5700000D01*
X12268317Y-5240000D02*
X12284028Y-5255711D01*
X11300000Y-5100000D02*
X11320000Y-5100000D01*
X11606807Y-5259693D02*
X11760000Y-5106500D01*
X12265140Y-5662430D02*
X12047570Y-5662430D01*
X12115000Y-5240000D02*
X12268317Y-5240000D01*
X11353050Y-5335000D02*
X11321300Y-5366750D01*
X12022570Y-5637430D02*
X12002570Y-5637430D01*
X11192500Y-5700000D02*
X11248613Y-5700000D01*
X11092500Y-5560000D02*
X11072500Y-5580000D01*
X12359900Y-5625770D02*
X12359900Y-5586821D01*
X11997570Y-5612430D02*
X11997570Y-5394860D01*
X12359900Y-5586821D02*
X12440000Y-5506721D01*
X12919990Y-5275240D02*
X12740000Y-5455230D01*
X12047570Y-5662430D02*
X12022570Y-5637430D01*
X11300000Y-5100000D02*
X11160000Y-5100000D01*
X12740000Y-5455230D02*
X12740000Y-5586500D01*
X12047500Y-5187700D02*
X12099800Y-5240000D01*
X12533203Y-5480000D02*
G75*
G02*
X12755631Y-5572136I-4J-314560D01*
G01*
X11425000Y-5335000D02*
G75*
G03*
X11606806Y-5259692I0J257110D01*
G01*
%TO.N,/IMU/3p3V*%
X11506350Y-5726350D02*
X11480000Y-5700000D01*
X12232430Y-5360000D02*
X12197570Y-5394860D01*
X11506350Y-5824955D02*
X11506350Y-5726350D01*
X12122878Y-5336660D02*
X12119913Y-5333694D01*
X12341724Y-5562430D02*
X12360000Y-5544154D01*
X11847570Y-5394860D02*
X11815360Y-5394860D01*
X11420000Y-5180000D02*
X11460000Y-5180000D01*
X12360000Y-5420000D02*
X12440000Y-5340000D01*
X11315215Y-5240000D02*
X11275000Y-5199785D01*
X12197570Y-5353860D02*
X12180370Y-5336660D01*
X11420000Y-5890000D02*
X11441305Y-5890000D01*
X12197570Y-5394860D02*
X12197570Y-5353860D01*
X11420000Y-5240000D02*
X11315215Y-5240000D01*
X11847570Y-5394860D02*
X11847570Y-5336760D01*
X11240000Y-5560000D02*
X11240000Y-5645000D01*
X11420000Y-5240000D02*
X11420000Y-5180000D01*
X11947470Y-5336660D02*
X11947570Y-5336760D01*
X11847570Y-5336760D02*
X11847670Y-5336660D01*
X12400000Y-5340000D02*
X12380000Y-5360000D01*
X11847570Y-5880000D02*
X11820000Y-5880000D01*
X11947570Y-5336760D02*
X11947570Y-5394860D01*
X12265140Y-5562430D02*
X12265140Y-5612430D01*
X12180370Y-5336660D02*
X12122878Y-5336660D01*
X12360000Y-5544154D02*
X12360000Y-5420000D01*
X11815360Y-5394860D02*
X11760500Y-5340000D01*
X12265140Y-5562430D02*
X12341724Y-5562430D01*
X11847670Y-5336660D02*
X11947470Y-5336660D01*
X11380000Y-5700000D02*
X11420000Y-5700000D01*
X11441305Y-5890000D02*
X11506350Y-5824955D01*
X11780000Y-5462430D02*
X11847570Y-5394860D01*
X11413500Y-5100000D02*
X11413500Y-5233500D01*
X12380000Y-5360000D02*
X12232430Y-5360000D01*
X11413500Y-5233500D02*
X11420000Y-5240000D01*
X11480000Y-5700000D02*
X11420000Y-5700000D01*
X11240000Y-5560000D02*
X11380000Y-5700000D01*
%TO.N,/bat-conn/BatP*%
X11192500Y-5890000D02*
X11192500Y-5867500D01*
X11050000Y-5890000D02*
X11192500Y-5890000D01*
X11000000Y-5840000D02*
X11050000Y-5890000D01*
X11192500Y-5867500D02*
X11240000Y-5820000D01*
%TO.N,Net-(U2-ANT)*%
X12344794Y-5712430D02*
X12358612Y-5698612D01*
X12740000Y-5760000D02*
X12760000Y-5780000D01*
X12740000Y-5700000D02*
X12740000Y-5760000D01*
X12265140Y-5712430D02*
X12344794Y-5712430D01*
X12740000Y-5700000D02*
X12840000Y-5700000D01*
%TO.N,Net-(U2-XC2)*%
X12115000Y-5135000D02*
X12288500Y-5135000D01*
X12356000Y-5202500D02*
X12356000Y-5275250D01*
X12288500Y-5135000D02*
X12300000Y-5146500D01*
X12260964Y-5458254D02*
X12265140Y-5462430D01*
X12260681Y-5399053D02*
X12260964Y-5399336D01*
X12260964Y-5399336D02*
X12260964Y-5458254D01*
X12300000Y-5146500D02*
X12356000Y-5202500D01*
%TO.N,Net-(U2-XC1)*%
X11980000Y-5240000D02*
X11880000Y-5240000D01*
X12187938Y-5301660D02*
X12216178Y-5329900D01*
X12040000Y-5282403D02*
X12022403Y-5282403D01*
X12323340Y-5403340D02*
X12320000Y-5400000D01*
X12022403Y-5282403D02*
X11980000Y-5240000D01*
X12323240Y-5512430D02*
X12323340Y-5512330D01*
X12216178Y-5329900D02*
X12315100Y-5329900D01*
X11880000Y-5240000D02*
X11860000Y-5260000D01*
X12315100Y-5329900D02*
X12320000Y-5325000D01*
X12265140Y-5512430D02*
X12323240Y-5512430D01*
X12180131Y-5301660D02*
X12187938Y-5301660D01*
X12323340Y-5512330D02*
X12323340Y-5403340D01*
%TO.N,Net-(L1-Pad2)*%
X13074500Y-5585500D02*
X13080000Y-5580000D01*
X12845500Y-5580000D02*
X12840000Y-5585500D01*
X13080000Y-5580000D02*
X12875500Y-5580000D01*
%TO.N,Net-(U1-PROG)*%
X11142500Y-5380000D02*
X11192500Y-5430000D01*
X11000000Y-5380000D02*
X11142500Y-5380000D01*
%TO.N,/IMU/IMU_INT*%
X11780000Y-5762430D02*
X11662430Y-5762430D01*
X11662430Y-5762430D02*
G75*
G02*
X11500000Y-5600000I0J162430D01*
G01*
%TO.N,/IMU/I2C.SCL*%
X12044930Y-5397500D02*
X12047570Y-5394860D01*
X12035772Y-5397500D02*
X12044930Y-5397500D01*
%TO.N,/MCU/PPG_INT*%
X11780000Y-5812430D02*
X11780000Y-5819500D01*
X11780000Y-5819500D02*
X11780500Y-5820000D01*
%TO.N,/MCU/RESET*%
X12420000Y-5900000D02*
X12217570Y-5900000D01*
X12217570Y-5900000D02*
X12197570Y-5880000D01*
%TO.N,/MCU/SWDIO*%
X12265140Y-5762430D02*
X12344291Y-5762430D01*
X12344291Y-5762430D02*
X12440000Y-5666721D01*
X12440000Y-5666721D02*
X12440000Y-5640000D01*
X12420000Y-5666721D02*
X12420000Y-5620000D01*
%TO.N,/MCU/SWDCLK*%
X12407570Y-5812430D02*
X12440000Y-5780000D01*
X12265140Y-5812430D02*
X12407570Y-5812430D01*
%TD*%
%TA.AperFunction,Conductor*%
%TO.N,GND*%
G36*
X12894304Y-5062019D02*
G01*
X12898879Y-5067299D01*
X12900000Y-5072450D01*
X12900000Y-5490926D01*
X12898031Y-5497630D01*
X12892751Y-5502206D01*
X12885835Y-5503200D01*
X12883911Y-5502765D01*
X12874964Y-5499977D01*
X12867993Y-5497805D01*
X12861338Y-5497200D01*
X12861338Y-5497200D01*
X12818661Y-5497200D01*
X12812007Y-5497805D01*
X12812007Y-5497805D01*
X12796693Y-5502577D01*
X12796693Y-5502577D01*
X12793892Y-5504270D01*
X12787137Y-5506053D01*
X12782540Y-5504728D01*
X12782436Y-5504969D01*
X12781719Y-5504659D01*
X12765828Y-5500042D01*
X12765828Y-5500042D01*
X12765000Y-5499977D01*
X12765000Y-5529718D01*
X12763475Y-5535188D01*
X12763634Y-5535259D01*
X12763326Y-5535943D01*
X12758555Y-5551257D01*
X12758555Y-5551257D01*
X12757950Y-5557912D01*
X12757950Y-5574100D01*
X12755982Y-5580804D01*
X12750701Y-5585379D01*
X12745550Y-5586500D01*
X12740000Y-5586500D01*
X12740000Y-5599100D01*
X12738031Y-5605804D01*
X12732751Y-5610379D01*
X12727600Y-5611500D01*
X12659000Y-5611500D01*
X12659000Y-5614366D01*
X12659292Y-5618078D01*
X12659292Y-5618078D01*
X12663909Y-5633969D01*
X12663909Y-5633970D01*
X12665635Y-5636889D01*
X12667354Y-5643661D01*
X12665635Y-5649513D01*
X12663863Y-5652510D01*
X12663863Y-5652510D01*
X12659242Y-5668414D01*
X12659242Y-5668414D01*
X12658950Y-5672129D01*
X12658950Y-5727869D01*
X12658950Y-5727871D01*
X12659242Y-5731585D01*
X12663863Y-5747490D01*
X12672293Y-5761745D01*
X12672294Y-5761745D01*
X12672294Y-5761745D01*
X12678148Y-5767600D01*
X12678724Y-5768494D01*
X12679293Y-5768918D01*
X12680209Y-5770800D01*
X12680990Y-5772013D01*
X12681202Y-5772577D01*
X12684042Y-5783178D01*
X12686772Y-5787906D01*
X12691548Y-5796179D01*
X12691948Y-5796871D01*
X12691948Y-5796872D01*
X12698109Y-5803033D01*
X12700797Y-5807055D01*
X12702353Y-5810813D01*
X12702354Y-5810813D01*
X12709472Y-5821467D01*
X12709473Y-5821467D01*
X12718533Y-5830527D01*
X12718533Y-5830528D01*
X12729187Y-5837646D01*
X12729187Y-5837647D01*
X12729265Y-5837679D01*
X12741026Y-5842550D01*
X12741026Y-5842550D01*
X12741026Y-5842550D01*
X12753593Y-5845050D01*
X12753593Y-5845050D01*
X12766407Y-5845050D01*
X12774861Y-5843368D01*
X12778974Y-5842550D01*
X12790813Y-5837646D01*
X12801467Y-5830528D01*
X12810528Y-5821467D01*
X12817646Y-5810813D01*
X12822550Y-5798974D01*
X12822688Y-5798281D01*
X12825926Y-5792090D01*
X12831998Y-5788632D01*
X12834850Y-5788300D01*
X12861339Y-5788300D01*
X12867993Y-5787695D01*
X12867993Y-5787695D01*
X12867993Y-5787695D01*
X12878990Y-5784268D01*
X12883911Y-5782735D01*
X12890897Y-5782620D01*
X12896836Y-5786300D01*
X12899843Y-5792607D01*
X12900000Y-5794574D01*
X12900000Y-5967550D01*
X12898031Y-5974254D01*
X12892751Y-5978829D01*
X12887600Y-5979950D01*
X12553201Y-5979950D01*
X12546497Y-5977981D01*
X12541921Y-5972701D01*
X12540927Y-5965785D01*
X12541894Y-5962734D01*
X12541801Y-5962695D01*
X12541987Y-5962245D01*
X12541987Y-5962245D01*
X12541987Y-5962244D01*
X12547340Y-5945770D01*
X12550050Y-5928661D01*
X12550050Y-5911339D01*
X12547340Y-5894230D01*
X12541987Y-5877755D01*
X12534123Y-5862321D01*
X12533079Y-5860885D01*
X12530467Y-5857289D01*
X12528119Y-5850708D01*
X12529701Y-5843903D01*
X12530467Y-5842711D01*
X12534123Y-5837679D01*
X12541987Y-5822244D01*
X12547340Y-5805770D01*
X12550050Y-5788661D01*
X12550050Y-5771339D01*
X12547340Y-5754230D01*
X12541987Y-5737755D01*
X12534123Y-5722321D01*
X12530467Y-5717289D01*
X12528119Y-5710708D01*
X12529701Y-5703903D01*
X12530467Y-5702711D01*
X12530742Y-5702333D01*
X12534123Y-5697679D01*
X12541987Y-5682244D01*
X12547340Y-5665770D01*
X12550050Y-5648661D01*
X12550050Y-5631339D01*
X12547340Y-5614230D01*
X12541987Y-5597755D01*
X12534123Y-5582321D01*
X12534123Y-5582321D01*
X12534123Y-5582321D01*
X12530436Y-5577246D01*
X12529756Y-5575340D01*
X12528632Y-5573656D01*
X12528605Y-5572116D01*
X12528088Y-5570665D01*
X12528546Y-5568694D01*
X12528511Y-5566670D01*
X12529490Y-5564635D01*
X12529670Y-5563860D01*
X12529922Y-5563435D01*
X12532890Y-5558636D01*
X12659000Y-5558636D01*
X12659000Y-5561500D01*
X12715000Y-5561500D01*
X12715000Y-5499977D01*
X12714172Y-5500042D01*
X12698280Y-5504659D01*
X12698280Y-5504659D01*
X12684036Y-5513083D01*
X12684035Y-5513084D01*
X12672334Y-5524785D01*
X12672333Y-5524786D01*
X12663909Y-5539030D01*
X12663909Y-5539031D01*
X12659292Y-5554922D01*
X12659292Y-5554922D01*
X12659000Y-5558632D01*
X12659000Y-5558636D01*
X12532890Y-5558636D01*
X12536805Y-5552305D01*
X12541941Y-5542226D01*
X12547291Y-5525758D01*
X12547411Y-5525000D01*
X12452400Y-5525000D01*
X12445696Y-5523032D01*
X12441121Y-5517751D01*
X12440000Y-5512600D01*
X12440000Y-5487400D01*
X12441968Y-5480696D01*
X12447249Y-5476121D01*
X12452400Y-5475000D01*
X12547411Y-5475000D01*
X12547411Y-5475000D01*
X12547291Y-5474242D01*
X12541941Y-5457774D01*
X12534080Y-5442347D01*
X12530436Y-5437331D01*
X12528088Y-5430751D01*
X12529670Y-5423945D01*
X12530434Y-5422756D01*
X12534123Y-5417679D01*
X12541987Y-5402245D01*
X12547340Y-5385770D01*
X12550050Y-5368661D01*
X12550050Y-5351339D01*
X12547340Y-5334230D01*
X12541987Y-5317756D01*
X12534123Y-5302321D01*
X12523941Y-5288307D01*
X12511693Y-5276059D01*
X12497679Y-5265877D01*
X12482244Y-5258013D01*
X12465770Y-5252660D01*
X12465770Y-5252660D01*
X12465770Y-5252660D01*
X12450491Y-5250240D01*
X12448661Y-5249950D01*
X12431339Y-5249950D01*
X12431338Y-5249950D01*
X12430389Y-5250100D01*
X12423460Y-5249205D01*
X12418115Y-5244705D01*
X12416051Y-5238030D01*
X12416050Y-5237853D01*
X12416050Y-5211406D01*
X12416050Y-5211405D01*
X12416050Y-5194594D01*
X12415883Y-5193970D01*
X12411958Y-5179322D01*
X12410088Y-5176084D01*
X12404052Y-5165629D01*
X12404052Y-5165628D01*
X12384682Y-5146258D01*
X12381333Y-5140126D01*
X12381050Y-5137490D01*
X12381050Y-5118631D01*
X12381050Y-5118628D01*
X12380758Y-5114915D01*
X12380758Y-5114914D01*
X12376137Y-5099010D01*
X12367706Y-5084755D01*
X12367706Y-5084754D01*
X12367706Y-5084754D01*
X12364170Y-5081218D01*
X12360821Y-5075086D01*
X12361320Y-5068117D01*
X12365507Y-5062523D01*
X12372053Y-5060082D01*
X12372938Y-5060050D01*
X12887600Y-5060050D01*
X12894304Y-5062019D01*
G37*
%TD.AperFunction*%
%TA.AperFunction,Conductor*%
G36*
X11115909Y-5775325D02*
G01*
X11131000Y-5779710D01*
X11131001Y-5779710D01*
X11134685Y-5780000D01*
X11134687Y-5780000D01*
X11165140Y-5780000D01*
X11167265Y-5780624D01*
X11169473Y-5780782D01*
X11170552Y-5781589D01*
X11171844Y-5781968D01*
X11173294Y-5783642D01*
X11175067Y-5784969D01*
X11175537Y-5786231D01*
X11176420Y-5787249D01*
X11176735Y-5789440D01*
X11177509Y-5791515D01*
X11177222Y-5792831D01*
X11177414Y-5794165D01*
X11176494Y-5796179D01*
X11176023Y-5798343D01*
X11174696Y-5800115D01*
X11174511Y-5800520D01*
X11173908Y-5801168D01*
X11168758Y-5806318D01*
X11162626Y-5809667D01*
X11159990Y-5809950D01*
X11134680Y-5809950D01*
X11130993Y-5810240D01*
X11115909Y-5814622D01*
X11113284Y-5814615D01*
X11110685Y-5814988D01*
X11109846Y-5814605D01*
X11108922Y-5814602D01*
X11106718Y-5813177D01*
X11104330Y-5812086D01*
X11103830Y-5811309D01*
X11103055Y-5810808D01*
X11101972Y-5808417D01*
X11100552Y-5806208D01*
X11100358Y-5804856D01*
X11100171Y-5804444D01*
X11100050Y-5802715D01*
X11100050Y-5787233D01*
X11102018Y-5780529D01*
X11107299Y-5775954D01*
X11114215Y-5774959D01*
X11115909Y-5775325D01*
G37*
%TD.AperFunction*%
%TA.AperFunction,Conductor*%
G36*
X11793837Y-5062019D02*
G01*
X11798412Y-5067299D01*
X11799406Y-5074215D01*
X11796504Y-5080570D01*
X11795901Y-5081218D01*
X11792334Y-5084785D01*
X11792333Y-5084786D01*
X11783909Y-5099030D01*
X11783909Y-5099031D01*
X11779292Y-5114922D01*
X11779292Y-5114922D01*
X11779000Y-5118634D01*
X11779000Y-5121500D01*
X11874500Y-5121500D01*
X11874874Y-5121126D01*
X11876468Y-5115696D01*
X11881749Y-5111121D01*
X11886900Y-5110000D01*
X11967600Y-5110000D01*
X11968468Y-5110255D01*
X11969365Y-5110126D01*
X11971769Y-5111224D01*
X11974304Y-5111969D01*
X11974897Y-5112653D01*
X11975720Y-5113029D01*
X11977149Y-5115252D01*
X11978879Y-5117249D01*
X11979108Y-5118300D01*
X11979498Y-5118907D01*
X11980000Y-5122400D01*
X11980000Y-5140050D01*
X11978031Y-5146754D01*
X11972751Y-5151329D01*
X11967600Y-5152450D01*
X11932713Y-5152450D01*
X11932712Y-5152450D01*
X11926752Y-5153091D01*
X11913267Y-5158120D01*
X11913266Y-5158121D01*
X11901745Y-5166745D01*
X11901118Y-5167373D01*
X11900974Y-5167228D01*
X11896313Y-5170718D01*
X11891979Y-5171500D01*
X11779000Y-5171500D01*
X11779000Y-5174366D01*
X11779292Y-5178078D01*
X11779292Y-5178078D01*
X11783909Y-5193969D01*
X11783909Y-5193970D01*
X11785635Y-5196889D01*
X11787354Y-5203661D01*
X11785635Y-5209513D01*
X11783863Y-5212510D01*
X11783863Y-5212510D01*
X11779242Y-5228414D01*
X11779242Y-5228414D01*
X11778950Y-5232129D01*
X11778950Y-5262550D01*
X11776981Y-5269254D01*
X11771701Y-5273829D01*
X11766550Y-5274950D01*
X11754093Y-5274950D01*
X11741526Y-5277450D01*
X11741525Y-5277450D01*
X11729687Y-5282353D01*
X11729687Y-5282354D01*
X11719033Y-5289472D01*
X11719033Y-5289473D01*
X11709973Y-5298533D01*
X11709972Y-5298533D01*
X11702854Y-5309187D01*
X11702853Y-5309188D01*
X11697950Y-5321026D01*
X11697950Y-5321026D01*
X11695450Y-5333593D01*
X11695450Y-5333593D01*
X11695450Y-5346407D01*
X11695450Y-5346407D01*
X11695450Y-5346407D01*
X11697950Y-5358974D01*
X11697950Y-5358974D01*
X11702853Y-5370812D01*
X11702854Y-5370813D01*
X11709972Y-5381467D01*
X11709973Y-5381467D01*
X11716806Y-5388301D01*
X11720155Y-5394433D01*
X11719656Y-5401402D01*
X11715469Y-5406996D01*
X11706145Y-5413976D01*
X11697521Y-5425497D01*
X11697520Y-5425497D01*
X11692491Y-5438981D01*
X11692491Y-5438982D01*
X11691850Y-5444943D01*
X11691850Y-5444944D01*
X11691850Y-5444944D01*
X11691850Y-5479917D01*
X11691850Y-5479918D01*
X11692515Y-5486105D01*
X11692515Y-5488756D01*
X11692491Y-5488982D01*
X11692491Y-5488982D01*
X11691850Y-5494943D01*
X11691850Y-5494943D01*
X11691850Y-5494943D01*
X11691850Y-5529917D01*
X11691850Y-5529918D01*
X11692515Y-5536105D01*
X11692515Y-5538756D01*
X11692491Y-5538982D01*
X11692491Y-5538982D01*
X11691850Y-5544943D01*
X11691850Y-5544943D01*
X11691850Y-5544943D01*
X11691850Y-5579917D01*
X11691850Y-5579918D01*
X11692515Y-5586105D01*
X11692515Y-5588756D01*
X11692491Y-5588982D01*
X11692491Y-5588982D01*
X11691850Y-5594943D01*
X11691850Y-5594943D01*
X11691850Y-5594943D01*
X11691850Y-5629917D01*
X11691850Y-5629918D01*
X11692515Y-5636105D01*
X11692515Y-5638756D01*
X11692491Y-5638982D01*
X11692491Y-5638982D01*
X11691850Y-5644943D01*
X11691850Y-5644943D01*
X11691850Y-5644943D01*
X11691850Y-5679917D01*
X11691850Y-5679918D01*
X11692515Y-5686105D01*
X11692515Y-5688755D01*
X11692491Y-5688982D01*
X11692241Y-5691305D01*
X11689568Y-5697760D01*
X11683829Y-5701745D01*
X11679912Y-5702380D01*
X11662971Y-5702380D01*
X11661891Y-5702333D01*
X11659913Y-5702160D01*
X11645733Y-5700919D01*
X11643604Y-5700544D01*
X11628461Y-5696486D01*
X11626430Y-5695747D01*
X11612224Y-5689122D01*
X11610352Y-5688042D01*
X11597510Y-5679049D01*
X11595854Y-5677660D01*
X11584770Y-5666576D01*
X11583380Y-5664920D01*
X11580555Y-5660885D01*
X11574388Y-5652078D01*
X11573308Y-5650207D01*
X11566683Y-5635999D01*
X11565944Y-5633968D01*
X11563032Y-5623104D01*
X11562848Y-5617475D01*
X11565050Y-5606407D01*
X11565050Y-5593593D01*
X11562550Y-5581026D01*
X11562550Y-5581026D01*
X11562550Y-5581026D01*
X11557646Y-5569187D01*
X11557646Y-5569187D01*
X11557646Y-5569187D01*
X11550528Y-5558533D01*
X11550527Y-5558533D01*
X11541467Y-5549473D01*
X11541467Y-5549472D01*
X11530813Y-5542354D01*
X11530812Y-5542353D01*
X11518974Y-5537450D01*
X11518974Y-5537450D01*
X11506407Y-5534950D01*
X11506407Y-5534950D01*
X11493593Y-5534950D01*
X11493593Y-5534950D01*
X11481026Y-5537450D01*
X11481025Y-5537450D01*
X11469187Y-5542353D01*
X11469186Y-5542354D01*
X11464333Y-5545597D01*
X11461281Y-5546552D01*
X11458280Y-5547658D01*
X11457969Y-5547589D01*
X11457665Y-5547684D01*
X11454581Y-5546838D01*
X11451458Y-5546146D01*
X11451234Y-5545920D01*
X11450927Y-5545836D01*
X11448790Y-5543456D01*
X11446537Y-5541186D01*
X11446429Y-5540828D01*
X11446258Y-5540638D01*
X11445317Y-5537874D01*
X11445162Y-5537148D01*
X11444695Y-5532007D01*
X11442697Y-5525595D01*
X11442578Y-5525038D01*
X11442800Y-5522099D01*
X11442752Y-5519153D01*
X11443060Y-5518655D01*
X11443104Y-5518071D01*
X11444880Y-5515718D01*
X11446432Y-5513214D01*
X11446961Y-5512962D01*
X11447314Y-5512494D01*
X11450078Y-5511475D01*
X11452739Y-5510207D01*
X11453737Y-5510127D01*
X11453870Y-5510078D01*
X11453997Y-5510106D01*
X11454705Y-5510050D01*
X11477819Y-5510050D01*
X11477819Y-5510050D01*
X11481507Y-5509760D01*
X11481507Y-5509760D01*
X11481507Y-5509760D01*
X11485669Y-5508551D01*
X11497290Y-5505174D01*
X11511436Y-5496808D01*
X11523058Y-5485187D01*
X11531424Y-5471040D01*
X11536010Y-5455257D01*
X11536300Y-5451569D01*
X11536300Y-5408431D01*
X11536010Y-5404743D01*
X11535284Y-5402245D01*
X11531424Y-5388961D01*
X11531424Y-5388961D01*
X11531424Y-5388960D01*
X11531424Y-5388960D01*
X11531307Y-5388762D01*
X11531263Y-5388587D01*
X11531115Y-5388245D01*
X11531170Y-5388221D01*
X11529590Y-5381990D01*
X11531125Y-5376760D01*
X11531068Y-5376736D01*
X11531268Y-5376274D01*
X11531308Y-5376138D01*
X11531378Y-5376020D01*
X11535960Y-5360249D01*
X11535979Y-5360000D01*
X11535979Y-5360000D01*
X11509431Y-5360000D01*
X11503119Y-5358273D01*
X11497290Y-5354826D01*
X11497289Y-5354825D01*
X11481507Y-5350240D01*
X11481507Y-5350240D01*
X11477820Y-5349950D01*
X11477819Y-5349950D01*
X11362181Y-5349950D01*
X11362180Y-5349950D01*
X11358493Y-5350240D01*
X11358493Y-5350240D01*
X11342711Y-5354825D01*
X11342710Y-5354826D01*
X11336881Y-5358273D01*
X11330568Y-5360000D01*
X11304020Y-5360000D01*
X11301594Y-5362625D01*
X11295598Y-5366211D01*
X11288614Y-5365987D01*
X11284649Y-5363547D01*
X11284553Y-5363670D01*
X11283936Y-5363192D01*
X11269790Y-5354826D01*
X11269789Y-5354825D01*
X11254007Y-5350240D01*
X11254007Y-5350240D01*
X11250320Y-5349950D01*
X11250319Y-5349950D01*
X11202510Y-5349950D01*
X11199566Y-5349086D01*
X11196567Y-5348433D01*
X11196066Y-5348058D01*
X11195806Y-5347982D01*
X11193742Y-5346318D01*
X11192725Y-5345302D01*
X11190552Y-5343129D01*
X11190552Y-5343128D01*
X11188642Y-5341218D01*
X11185293Y-5335086D01*
X11185792Y-5328117D01*
X11189979Y-5322523D01*
X11196525Y-5320082D01*
X11197410Y-5320050D01*
X11250319Y-5320050D01*
X11250319Y-5320050D01*
X11254007Y-5319760D01*
X11254007Y-5319760D01*
X11254007Y-5319760D01*
X11258169Y-5318551D01*
X11269790Y-5315174D01*
X11283936Y-5306808D01*
X11283937Y-5306808D01*
X11284553Y-5306330D01*
X11284683Y-5306499D01*
X11289851Y-5303676D01*
X11296820Y-5304174D01*
X11301594Y-5307375D01*
X11304020Y-5310000D01*
X11330568Y-5310000D01*
X11336881Y-5311727D01*
X11342710Y-5315174D01*
X11346872Y-5316384D01*
X11358493Y-5319760D01*
X11358493Y-5319760D01*
X11358493Y-5319760D01*
X11362181Y-5320050D01*
X11362181Y-5320050D01*
X11477819Y-5320050D01*
X11477819Y-5320050D01*
X11481507Y-5319760D01*
X11481507Y-5319760D01*
X11481507Y-5319760D01*
X11485669Y-5318551D01*
X11497290Y-5315174D01*
X11503119Y-5311727D01*
X11509431Y-5310000D01*
X11535979Y-5310000D01*
X11535979Y-5310000D01*
X11535960Y-5309751D01*
X11535960Y-5309751D01*
X11531378Y-5293981D01*
X11531378Y-5293980D01*
X11531308Y-5293861D01*
X11531281Y-5293756D01*
X11531068Y-5293264D01*
X11531148Y-5293230D01*
X11529589Y-5287089D01*
X11531151Y-5281771D01*
X11531115Y-5281756D01*
X11531242Y-5281461D01*
X11531308Y-5281237D01*
X11531424Y-5281040D01*
X11531424Y-5281040D01*
X11535026Y-5268644D01*
X11536010Y-5265257D01*
X11536010Y-5265257D01*
X11536300Y-5261569D01*
X11536300Y-5218431D01*
X11536010Y-5214743D01*
X11535361Y-5212510D01*
X11531424Y-5198961D01*
X11531424Y-5198960D01*
X11531424Y-5198960D01*
X11526777Y-5191102D01*
X11525050Y-5184789D01*
X11525050Y-5173593D01*
X11522550Y-5161026D01*
X11522550Y-5161026D01*
X11522550Y-5161026D01*
X11517646Y-5149187D01*
X11517646Y-5149187D01*
X11517646Y-5149187D01*
X11510528Y-5138533D01*
X11510527Y-5138533D01*
X11503891Y-5131896D01*
X11500542Y-5125764D01*
X11500312Y-5122365D01*
X11500290Y-5122364D01*
X11500298Y-5122165D01*
X11500297Y-5122154D01*
X11500300Y-5122122D01*
X11500300Y-5122122D01*
X11500300Y-5122120D01*
X11500300Y-5077880D01*
X11500008Y-5074164D01*
X11500007Y-5074164D01*
X11499958Y-5073533D01*
X11500224Y-5073512D01*
X11500833Y-5067730D01*
X11505205Y-5062280D01*
X11511829Y-5060059D01*
X11512300Y-5060050D01*
X11787133Y-5060050D01*
X11793837Y-5062019D01*
G37*
%TD.AperFunction*%
%TA.AperFunction,Conductor*%
G36*
X11115859Y-5505363D02*
G01*
X11130993Y-5509760D01*
X11134681Y-5510050D01*
X11144795Y-5510050D01*
X11151499Y-5512019D01*
X11156074Y-5517299D01*
X11157069Y-5524215D01*
X11156633Y-5526138D01*
X11155518Y-5529718D01*
X11154805Y-5532007D01*
X11154200Y-5538662D01*
X11154200Y-5581339D01*
X11154805Y-5587993D01*
X11154805Y-5587993D01*
X11159765Y-5603911D01*
X11159880Y-5610897D01*
X11156200Y-5616836D01*
X11149893Y-5619843D01*
X11147926Y-5620000D01*
X11134685Y-5620000D01*
X11131001Y-5620290D01*
X11115859Y-5624689D01*
X11108872Y-5624669D01*
X11103005Y-5620875D01*
X11100121Y-5614511D01*
X11100000Y-5612781D01*
X11100000Y-5605000D01*
X11012400Y-5605000D01*
X11005696Y-5603031D01*
X11001121Y-5597751D01*
X11000000Y-5592600D01*
X11000000Y-5567400D01*
X11001969Y-5560696D01*
X11007249Y-5556121D01*
X11012400Y-5555000D01*
X11100000Y-5555000D01*
X11100000Y-5517271D01*
X11101968Y-5510567D01*
X11107249Y-5505991D01*
X11114165Y-5504997D01*
X11115859Y-5505363D01*
G37*
%TD.AperFunction*%
%TA.AperFunction,Conductor*%
G36*
X12290254Y-5236969D02*
G01*
X12293444Y-5240650D01*
X12294067Y-5241204D01*
X12294135Y-5241447D01*
X12294829Y-5242249D01*
X12295950Y-5247400D01*
X12295950Y-5247773D01*
X12295931Y-5247868D01*
X12295949Y-5247932D01*
X12295402Y-5251419D01*
X12295230Y-5251978D01*
X12293450Y-5256276D01*
X12292611Y-5260490D01*
X12292425Y-5261096D01*
X12290834Y-5263503D01*
X12289496Y-5266060D01*
X12288931Y-5266382D01*
X12288573Y-5266925D01*
X12285933Y-5268090D01*
X12283425Y-5269518D01*
X12282775Y-5269483D01*
X12282180Y-5269745D01*
X12280573Y-5269850D01*
X12246187Y-5269850D01*
X12239484Y-5267882D01*
X12237419Y-5266218D01*
X12236697Y-5265496D01*
X12236697Y-5265495D01*
X12227369Y-5256168D01*
X12224021Y-5250036D01*
X12224519Y-5243067D01*
X12228707Y-5237473D01*
X12235253Y-5235032D01*
X12236138Y-5235000D01*
X12283550Y-5235000D01*
X12290254Y-5236969D01*
G37*
%TD.AperFunction*%
%TA.AperFunction,Conductor*%
G36*
X11294304Y-5076969D02*
G01*
X11298879Y-5082249D01*
X11300000Y-5087400D01*
X11300000Y-5112600D01*
X11298031Y-5119304D01*
X11292751Y-5123879D01*
X11287600Y-5125000D01*
X11263000Y-5125000D01*
X11263000Y-5126060D01*
X11262491Y-5127792D01*
X11262485Y-5129597D01*
X11261528Y-5131075D01*
X11261031Y-5132764D01*
X11259668Y-5133946D01*
X11258686Y-5135461D01*
X11256041Y-5137088D01*
X11255751Y-5137340D01*
X11255711Y-5137358D01*
X11255530Y-5137440D01*
X11244187Y-5142138D01*
X11242183Y-5143477D01*
X11241254Y-5143898D01*
X11238763Y-5144247D01*
X11236364Y-5144998D01*
X11236143Y-5145000D01*
X11152400Y-5145000D01*
X11145696Y-5143032D01*
X11141121Y-5137751D01*
X11140000Y-5132600D01*
X11140000Y-5107400D01*
X11141969Y-5100696D01*
X11147249Y-5096121D01*
X11152400Y-5095000D01*
X11200250Y-5095000D01*
X11200250Y-5087400D01*
X11202218Y-5080696D01*
X11207499Y-5076121D01*
X11212650Y-5075000D01*
X11287600Y-5075000D01*
X11294304Y-5076969D01*
G37*
%TD.AperFunction*%
%TD*%
M02*
