%TF.GenerationSoftware,KiCad,Pcbnew,9.0.7*%
%TF.CreationDate,2026-05-14T04:55:41+05:30*%
%TF.ProjectId,prj-kicad,70726a2d-6b69-4636-9164-2e6b69636164,rev?*%
%TF.SameCoordinates,Original*%
%TF.FileFunction,Copper,L2,Bot*%
%TF.FilePolarity,Positive*%
%FSLAX45Y45*%
G04 Gerber Fmt 4.5, Leading zero omitted, Abs format (unit mm)*
G04 Created by KiCad (PCBNEW 9.0.7) date 2026-05-14 04:55:41*
%MOMM*%
%LPD*%
G01*
G04 APERTURE LIST*
G04 Aperture macros list*
%AMRoundRect*
0 Rectangle with rounded corners*
0 $1 Rounding radius*
0 $2 $3 $4 $5 $6 $7 $8 $9 X,Y pos of 4 corners*
0 Add a 4 corners polygon primitive as box body*
4,1,4,$2,$3,$4,$5,$6,$7,$8,$9,$2,$3,0*
0 Add four circle primitives for the rounded corners*
1,1,$1+$1,$2,$3*
1,1,$1+$1,$4,$5*
1,1,$1+$1,$6,$7*
1,1,$1+$1,$8,$9*
0 Add four rect primitives between the rounded corners*
20,1,$1+$1,$2,$3,$4,$5,0*
20,1,$1+$1,$4,$5,$6,$7,0*
20,1,$1+$1,$6,$7,$8,$9,0*
20,1,$1+$1,$8,$9,$2,$3,0*%
G04 Aperture macros list end*
%TA.AperFunction,SMDPad,CuDef*%
%ADD10RoundRect,0.155000X-0.155000X0.212500X-0.155000X-0.212500X0.155000X-0.212500X0.155000X0.212500X0*%
%TD*%
%TA.AperFunction,SMDPad,CuDef*%
%ADD11R,0.533400X0.304800*%
%TD*%
%TA.AperFunction,SMDPad,CuDef*%
%ADD12R,0.304800X0.533400*%
%TD*%
%TA.AperFunction,SMDPad,CuDef*%
%ADD13RoundRect,0.160000X0.197500X0.160000X-0.197500X0.160000X-0.197500X-0.160000X0.197500X-0.160000X0*%
%TD*%
%TA.AperFunction,SMDPad,CuDef*%
%ADD14RoundRect,0.155000X-0.212500X-0.155000X0.212500X-0.155000X0.212500X0.155000X-0.212500X0.155000X0*%
%TD*%
%TA.AperFunction,SMDPad,CuDef*%
%ADD15RoundRect,0.155000X0.212500X0.155000X-0.212500X0.155000X-0.212500X-0.155000X0.212500X-0.155000X0*%
%TD*%
%TA.AperFunction,SMDPad,CuDef*%
%ADD16RoundRect,0.087500X-0.087500X0.287500X-0.087500X-0.287500X0.087500X-0.287500X0.087500X0.287500X0*%
%TD*%
%TA.AperFunction,SMDPad,CuDef*%
%ADD17RoundRect,0.155000X0.155000X-0.212500X0.155000X0.212500X-0.155000X0.212500X-0.155000X-0.212500X0*%
%TD*%
%TA.AperFunction,SMDPad,CuDef*%
%ADD18RoundRect,0.160000X-0.197500X-0.160000X0.197500X-0.160000X0.197500X0.160000X-0.197500X0.160000X0*%
%TD*%
%TA.AperFunction,ViaPad*%
%ADD19C,0.300000*%
%TD*%
%TA.AperFunction,Conductor*%
%ADD20C,0.200000*%
%TD*%
G04 APERTURE END LIST*
D10*
%TO.P,C18,1*%
%TO.N,GND*%
X12100000Y-5106500D03*
%TO.P,C18,2*%
%TO.N,/IMU/3p3V*%
X12100000Y-5220000D03*
%TD*%
D11*
%TO.P,U3,1,AP_SDO/AP_AD0*%
%TO.N,GND*%
X11321300Y-5366750D03*
%TO.P,U3,2,RESV*%
%TO.N,unconnected-(U3-RESV-Pad2)*%
X11321300Y-5416750D03*
%TO.P,U3,3,RESV*%
%TO.N,unconnected-(U3-RESV-Pad3)*%
X11321300Y-5466750D03*
%TO.P,U3,4,INT1/INT*%
%TO.N,/IMU/IMU_INT*%
X11321300Y-5516750D03*
D12*
%TO.P,U3,5,VDDIO*%
%TO.N,/IMU/3p3V*%
X11250650Y-5537000D03*
%TO.P,U3,6,GND*%
%TO.N,GND*%
X11200650Y-5537000D03*
%TO.P,U3,7,FSYNC*%
X11150650Y-5537000D03*
D11*
%TO.P,U3,8,VDD*%
%TO.N,/IMU/3p3V*%
X11080000Y-5516750D03*
%TO.P,U3,9,INT2*%
%TO.N,unconnected-(U3-INT2-Pad9)*%
X11080000Y-5466750D03*
%TO.P,U3,10,RESV*%
%TO.N,unconnected-(U3-RESV-Pad10)*%
X11080000Y-5416750D03*
%TO.P,U3,11,RESV*%
%TO.N,unconnected-(U3-RESV-Pad11)*%
X11080000Y-5366750D03*
D12*
%TO.P,U3,12,AP_CS*%
%TO.N,/IMU/3p3V*%
X11150650Y-5346500D03*
%TO.P,U3,13,AP_SCL/AP_SCLK*%
%TO.N,/IMU/I2C.SCL*%
X11200650Y-5346500D03*
%TO.P,U3,14,AP_SDA/AP_SDIO/AP_SDI*%
%TO.N,/IMU/I2C.SDA*%
X11250650Y-5346500D03*
%TD*%
D13*
%TO.P,R7,1*%
%TO.N,/IMU/3p3V*%
X12119500Y-5340000D03*
%TO.P,R7,2*%
%TO.N,/IMU/I2C.SDA*%
X12000000Y-5340000D03*
%TD*%
D14*
%TO.P,C3,1*%
%TO.N,/bat-conn/BatP*%
X11240000Y-5760000D03*
%TO.P,C3,2*%
%TO.N,GND*%
X11353500Y-5760000D03*
%TD*%
D15*
%TO.P,C8,1*%
%TO.N,GND*%
X12300000Y-5920000D03*
%TO.P,C8,2*%
%TO.N,/PPG/VLED+*%
X12186500Y-5920000D03*
%TD*%
%TO.P,C22,1*%
%TO.N,GND*%
X11353500Y-5660000D03*
%TO.P,C22,2*%
%TO.N,/IMU/3p3V*%
X11240000Y-5660000D03*
%TD*%
D14*
%TO.P,C16,1*%
%TO.N,GND*%
X11960000Y-5920000D03*
%TO.P,C16,2*%
%TO.N,/PPG/VLED+*%
X12073500Y-5920000D03*
%TD*%
D16*
%TO.P,U5,1,NC*%
%TO.N,unconnected-(U5-NC-Pad1)*%
X11800000Y-5460000D03*
%TO.P,U5,2,SCL*%
%TO.N,/IMU/I2C.SCL*%
X11880000Y-5460000D03*
%TO.P,U5,3,SDA*%
%TO.N,/IMU/I2C.SDA*%
X11960000Y-5460000D03*
%TO.P,U5,4,PGND*%
%TO.N,GND*%
X12040000Y-5460000D03*
%TO.P,U5,5,NC*%
%TO.N,unconnected-(U5-NC-Pad5)*%
X12120000Y-5460000D03*
%TO.P,U5,6,NC*%
%TO.N,unconnected-(U5-NC-Pad6)*%
X12200000Y-5460000D03*
%TO.P,U5,7,NC*%
%TO.N,unconnected-(U5-NC-Pad7)*%
X12280000Y-5460000D03*
%TO.P,U5,8,NC*%
%TO.N,unconnected-(U5-NC-Pad8)*%
X12280000Y-5700000D03*
%TO.P,U5,9,VLED+*%
%TO.N,/PPG/VLED+*%
X12200000Y-5700000D03*
%TO.P,U5,10,VLED+*%
X12120000Y-5700000D03*
%TO.P,U5,11,VDD*%
%TO.N,/PPG/VDD*%
X12040000Y-5700000D03*
%TO.P,U5,12,GND*%
%TO.N,GND*%
X11960000Y-5700000D03*
%TO.P,U5,13,~{INT}*%
%TO.N,/MCU/PPG_INT*%
X11880000Y-5700000D03*
%TO.P,U5,14,NC*%
%TO.N,unconnected-(U5-NC-Pad14)*%
X11800000Y-5700000D03*
%TD*%
D17*
%TO.P,C15,1*%
%TO.N,GND*%
X12460000Y-5920000D03*
%TO.P,C15,2*%
%TO.N,/PPG/VDD*%
X12460000Y-5806500D03*
%TD*%
D14*
%TO.P,C1,1*%
%TO.N,GND*%
X10986500Y-5220000D03*
%TO.P,C1,2*%
%TO.N,/Pad-conn/CRG_5V*%
X11100000Y-5220000D03*
%TD*%
D10*
%TO.P,C17,1*%
%TO.N,GND*%
X12000000Y-5106500D03*
%TO.P,C17,2*%
%TO.N,/IMU/3p3V*%
X12000000Y-5220000D03*
%TD*%
D18*
%TO.P,R8,1*%
%TO.N,/MCU/PPG_INT*%
X11780500Y-5820000D03*
%TO.P,R8,2*%
%TO.N,/IMU/3p3V*%
X11900000Y-5820000D03*
%TD*%
D15*
%TO.P,C21,1*%
%TO.N,GND*%
X11336750Y-5216750D03*
%TO.P,C21,2*%
%TO.N,/IMU/3p3V*%
X11223250Y-5216750D03*
%TD*%
%TO.P,C19,1*%
%TO.N,GND*%
X11336750Y-5116750D03*
%TO.P,C19,2*%
%TO.N,/IMU/3p3V*%
X11223250Y-5116750D03*
%TD*%
D17*
%TO.P,C5,1*%
%TO.N,/IMU/3p3V*%
X11900000Y-5220000D03*
%TO.P,C5,2*%
%TO.N,GND*%
X11900000Y-5106500D03*
%TD*%
D10*
%TO.P,C14,1*%
%TO.N,GND*%
X11760000Y-5106500D03*
%TO.P,C14,2*%
%TO.N,/IMU/3p3V*%
X11760000Y-5220000D03*
%TD*%
D14*
%TO.P,C7,1*%
%TO.N,GND*%
X12020000Y-5820000D03*
%TO.P,C7,2*%
%TO.N,/PPG/VDD*%
X12133500Y-5820000D03*
%TD*%
D10*
%TO.P,C6,1*%
%TO.N,GND*%
X12400000Y-5106500D03*
%TO.P,C6,2*%
%TO.N,/IMU/3p3V*%
X12400000Y-5220000D03*
%TD*%
D18*
%TO.P,R6,1*%
%TO.N,/IMU/3p3V*%
X11760500Y-5340000D03*
%TO.P,R6,2*%
%TO.N,/IMU/I2C.SCL*%
X11880000Y-5340000D03*
%TD*%
D10*
%TO.P,C4,1*%
%TO.N,/IMU/3p3V*%
X11080000Y-5666500D03*
%TO.P,C4,2*%
%TO.N,GND*%
X11080000Y-5780000D03*
%TD*%
%TO.P,C10,1*%
%TO.N,GND*%
X12200000Y-5106500D03*
%TO.P,C10,2*%
%TO.N,/IMU/3p3V*%
X12200000Y-5220000D03*
%TD*%
%TO.P,C11,1*%
%TO.N,GND*%
X12300000Y-5100000D03*
%TO.P,C11,2*%
%TO.N,/IMU/3p3V*%
X12300000Y-5213500D03*
%TD*%
D19*
%TO.N,/Pad-conn/CRG_5V*%
X11152350Y-5238152D03*
%TO.N,GND*%
X11301750Y-5753137D03*
X11420000Y-5795000D03*
X11072111Y-5075000D03*
X11283704Y-5257987D03*
X11000000Y-5260500D03*
X11160000Y-5780000D03*
X11290620Y-5376834D03*
X12240000Y-5658056D03*
X12022570Y-5637430D03*
X11115000Y-5560000D03*
X12000000Y-5106500D03*
X11760000Y-5106500D03*
X12040000Y-5460000D03*
X11336750Y-5116750D03*
X11321300Y-5366750D03*
%TO.N,/IMU/3p3V*%
X12119913Y-5333694D03*
X11820000Y-5880000D03*
X11486332Y-5847364D03*
X11240000Y-5645000D03*
X11460000Y-5180000D03*
X11760500Y-5340000D03*
X11240890Y-5560000D03*
X11275000Y-5199785D03*
%TO.N,/bat-conn/BatP*%
X11240000Y-5820000D03*
%TO.N,Net-(U2-ANT)*%
X12358612Y-5698612D03*
X12760000Y-5780000D03*
%TO.N,Net-(U2-XC2)*%
X12356000Y-5275250D03*
X12260681Y-5399053D03*
%TO.N,Net-(U2-XC1)*%
X12180131Y-5301660D03*
X12040000Y-5282403D03*
X12320000Y-5400000D03*
X12320000Y-5325000D03*
%TO.N,/IMU/IMU_INT*%
X11500000Y-5600000D03*
X11359500Y-5560000D03*
%TO.N,/IMU/I2C.SCL*%
X12035772Y-5397500D03*
%TO.N,/IMU/I2C.SDA*%
X12097514Y-5396991D03*
%TO.N,/MCU/PPG_INT*%
X11780500Y-5820000D03*
%TD*%
D20*
%TO.N,/Pad-conn/CRG_5V*%
X11100000Y-5220000D02*
X11134198Y-5220000D01*
X11134198Y-5220000D02*
X11152350Y-5238152D01*
%TO.N,GND*%
X11283704Y-5257987D02*
X11295513Y-5257987D01*
X12008500Y-5106500D02*
X11980000Y-5135000D01*
X12300000Y-5920000D02*
X12240000Y-5860000D01*
X12240000Y-5860000D02*
X12240000Y-5658056D01*
X12020000Y-5760000D02*
X11960000Y-5700000D01*
X11900000Y-5106500D02*
X11760000Y-5106500D01*
X12300000Y-5920000D02*
X12480000Y-5920000D01*
X11080000Y-5780000D02*
X11160000Y-5780000D01*
X10986500Y-5247000D02*
X11000000Y-5260500D01*
X11200650Y-5466804D02*
X11290620Y-5376834D01*
X11346637Y-5753137D02*
X11353500Y-5760000D01*
X12020000Y-5860000D02*
X11960000Y-5920000D01*
X10986500Y-5220000D02*
X10986500Y-5160611D01*
X11336750Y-5216750D02*
X11336750Y-5116750D01*
X12306500Y-5106500D02*
X12300000Y-5100000D01*
X12300000Y-5100000D02*
X12206500Y-5100000D01*
X10986500Y-5220000D02*
X10986500Y-5247000D01*
X11200650Y-5537000D02*
X11200650Y-5466804D01*
X11353500Y-5760000D02*
X11385000Y-5760000D01*
X12020000Y-5820000D02*
X12020000Y-5860000D01*
X11353500Y-5760000D02*
X11353500Y-5660000D01*
X12206500Y-5100000D02*
X12200000Y-5106500D01*
X12200000Y-5106500D02*
X12100000Y-5106500D01*
X11385000Y-5760000D02*
X11420000Y-5795000D01*
X11150650Y-5537000D02*
X11138000Y-5537000D01*
X10986500Y-5160611D02*
X11072111Y-5075000D01*
X11900000Y-5106500D02*
X12000000Y-5106500D01*
X12400000Y-5106500D02*
X12306500Y-5106500D01*
X11301750Y-5753137D02*
X11346637Y-5753137D01*
X12000000Y-5106500D02*
X12100000Y-5106500D01*
X12100000Y-5106500D02*
X12008500Y-5106500D01*
X11960000Y-5700000D02*
X12022570Y-5637430D01*
X11295513Y-5257987D02*
X11336750Y-5216750D01*
X11138000Y-5537000D02*
X11115000Y-5560000D01*
X11150650Y-5537000D02*
X11200650Y-5537000D01*
X12020000Y-5820000D02*
X12020000Y-5760000D01*
%TO.N,/IMU/3p3V*%
X11086500Y-5660000D02*
X11080000Y-5666500D01*
X11150650Y-5289350D02*
X11223250Y-5216750D01*
X12220000Y-5320000D02*
X12220000Y-5240000D01*
X11760500Y-5340000D02*
X11760500Y-5220500D01*
X12119500Y-5239500D02*
X12100000Y-5220000D01*
X11460000Y-5180000D02*
X11720000Y-5180000D01*
X11080000Y-5516750D02*
X11033330Y-5516750D01*
X11760000Y-5220000D02*
X11900000Y-5220000D01*
X12200000Y-5220000D02*
X12100000Y-5220000D01*
X12306500Y-5220000D02*
X12300000Y-5213500D01*
X11240215Y-5199785D02*
X11223250Y-5216750D01*
X12119500Y-5340000D02*
X12200000Y-5340000D01*
X12200000Y-5340000D02*
X12220000Y-5320000D01*
X11760500Y-5220500D02*
X11760000Y-5220000D01*
X12209500Y-5229500D02*
X12200000Y-5220000D01*
X11033230Y-5516650D02*
X11033230Y-5331410D01*
X12400000Y-5220000D02*
X12306500Y-5220000D01*
X11135560Y-5331410D02*
X11150650Y-5346500D01*
X11033230Y-5331410D02*
X11135560Y-5331410D01*
X11240000Y-5660000D02*
X11086500Y-5660000D01*
X11150650Y-5346500D02*
X11150650Y-5289350D01*
X12100000Y-5220000D02*
X12000000Y-5220000D01*
X12220000Y-5240000D02*
X12200000Y-5220000D01*
X11250650Y-5550240D02*
X11240890Y-5560000D01*
X11223250Y-5116750D02*
X11223250Y-5216750D01*
X11080000Y-5666500D02*
X11080000Y-5516750D01*
X11250650Y-5537000D02*
X11250650Y-5550240D01*
X12000000Y-5220000D02*
X11900000Y-5220000D01*
X12206500Y-5213500D02*
X12200000Y-5220000D01*
X11033330Y-5516750D02*
X11033230Y-5516650D01*
X11275000Y-5199785D02*
X11240215Y-5199785D01*
X12300000Y-5213500D02*
X12206500Y-5213500D01*
X11840000Y-5880000D02*
X11900000Y-5820000D01*
X11820000Y-5880000D02*
X11518968Y-5880000D01*
X11820000Y-5880000D02*
X11840000Y-5880000D01*
X11518968Y-5880000D02*
G75*
G02*
X11486330Y-5847364I2J32640D01*
G01*
X11720000Y-5180000D02*
G75*
G02*
X11760000Y-5220000I0J-40000D01*
G01*
%TO.N,/bat-conn/BatP*%
X11240000Y-5820000D02*
X11240000Y-5760000D01*
%TO.N,/PPG/VDD*%
X12160000Y-5580000D02*
X12040000Y-5700000D01*
X12323512Y-5713151D02*
X12416861Y-5806500D01*
X12133500Y-5793500D02*
X12040000Y-5700000D01*
X12416861Y-5806500D02*
X12480000Y-5806500D01*
X12340000Y-5580000D02*
X12323512Y-5596488D01*
X12340000Y-5580000D02*
X12160000Y-5580000D01*
X12323512Y-5596488D02*
X12323512Y-5713151D01*
X12133500Y-5820000D02*
X12133500Y-5793500D01*
%TO.N,/PPG/VLED+*%
X12186500Y-5920000D02*
X12200000Y-5906500D01*
X12200000Y-5700000D02*
X12120000Y-5700000D01*
X12200000Y-5906500D02*
X12200000Y-5700000D01*
X12186500Y-5920000D02*
X12073500Y-5920000D01*
%TO.N,Net-(U2-ANT)*%
X12563512Y-5698612D02*
X12358612Y-5698612D01*
X12760000Y-5780000D02*
X12759934Y-5780000D01*
X12759934Y-5780000D02*
X12754823Y-5774889D01*
X12754823Y-5774889D02*
G75*
G03*
X12563512Y-5698610I-191383J-201951D01*
G01*
%TO.N,Net-(U2-XC2)*%
X12260964Y-5328414D02*
X12314128Y-5275250D01*
X12356000Y-5275250D02*
X12314128Y-5275250D01*
X12260681Y-5399053D02*
X12260964Y-5398771D01*
X12260964Y-5398771D02*
X12260964Y-5328414D01*
%TO.N,Net-(U2-XC1)*%
X12180131Y-5301660D02*
X12174764Y-5301660D01*
X12174764Y-5301660D02*
X12161004Y-5287900D01*
X12161004Y-5287900D02*
X12045497Y-5287900D01*
X12045497Y-5287900D02*
X12040000Y-5282403D01*
X12320000Y-5400000D02*
X12320000Y-5325000D01*
%TO.N,/IMU/IMU_INT*%
X11416750Y-5516750D02*
X11321300Y-5516750D01*
X11500000Y-5600000D02*
X11416750Y-5516750D01*
X11321300Y-5516750D02*
X11321300Y-5521800D01*
X11321300Y-5521800D02*
X11359500Y-5560000D01*
%TO.N,/IMU/I2C.SCL*%
X11719845Y-5386662D02*
X11725353Y-5392100D01*
X11525556Y-5300537D02*
X11540963Y-5302055D01*
X11540963Y-5302055D02*
X11556277Y-5304327D01*
X11601293Y-5315603D02*
X11615869Y-5320819D01*
X11200701Y-5331845D02*
X11201556Y-5325346D01*
X11708374Y-5376265D02*
X11719845Y-5386662D01*
X11209038Y-5307283D02*
X11213028Y-5302083D01*
X11502352Y-5299730D02*
X11510093Y-5299778D01*
X11657821Y-5340661D02*
X11671100Y-5348620D01*
X11615869Y-5320819D02*
X11630172Y-5326743D01*
X11586478Y-5311109D02*
X11601293Y-5315603D01*
X11201556Y-5325346D02*
X11203253Y-5319015D01*
X11725353Y-5392100D02*
X11795647Y-5392100D01*
X11510093Y-5299778D02*
X11525556Y-5300537D01*
X11683972Y-5357221D02*
X11696407Y-5366443D01*
X11630172Y-5326743D02*
X11644167Y-5333363D01*
X11200650Y-5346500D02*
X11200650Y-5335122D01*
X11556277Y-5304327D02*
X11571461Y-5307347D01*
X11205761Y-5312960D02*
X11209038Y-5307283D01*
X11213028Y-5302083D02*
X11215310Y-5299730D01*
X11696407Y-5366443D02*
X11708374Y-5376265D01*
X11571461Y-5307347D02*
X11586478Y-5311109D01*
X11880000Y-5340000D02*
X11880000Y-5460000D01*
X11200650Y-5335122D02*
X11200701Y-5331845D01*
X11795647Y-5392100D02*
X11799470Y-5392053D01*
X11671100Y-5348620D02*
X11683972Y-5357221D01*
X11203253Y-5319015D02*
X11205761Y-5312960D01*
X11937500Y-5397500D02*
X12035772Y-5397500D01*
X11850707Y-5369293D02*
X11880000Y-5340000D01*
X11644167Y-5333363D02*
X11657821Y-5340661D01*
X11880000Y-5340000D02*
X11937500Y-5397500D01*
X11215310Y-5299730D02*
X11502352Y-5299730D01*
X11799470Y-5392053D02*
G75*
G03*
X11850708Y-5369294I-3730J77453D01*
G01*
%TO.N,/IMU/I2C.SDA*%
X11265711Y-5331439D02*
X11250650Y-5346500D01*
X12027911Y-5340000D02*
X12084902Y-5396991D01*
X11960000Y-5460000D02*
X12017600Y-5517600D01*
X12082400Y-5497600D02*
X12082400Y-5412105D01*
X12000000Y-5340000D02*
X12027911Y-5340000D01*
X11900943Y-5517600D02*
X11901636Y-5517566D01*
X11779057Y-5517600D02*
X11900943Y-5517600D01*
X11762400Y-5500943D02*
X11779057Y-5517600D01*
X12084902Y-5396991D02*
X12097514Y-5396991D01*
X11903431Y-5516570D02*
X11960000Y-5460000D01*
X12017600Y-5517600D02*
X12062400Y-5517600D01*
X12082400Y-5412105D02*
X12097514Y-5396991D01*
X11353182Y-5331439D02*
X11265711Y-5331439D01*
X12062400Y-5517600D02*
X12082400Y-5497600D01*
X11901636Y-5517566D02*
G75*
G03*
X11903431Y-5516570I-576J3156D01*
G01*
X11353182Y-5331439D02*
G75*
G02*
X11762399Y-5500944I-2J-578721D01*
G01*
%TO.N,/MCU/PPG_INT*%
X11780500Y-5799500D02*
X11880000Y-5700000D01*
%TD*%
%TA.AperFunction,Conductor*%
%TO.N,GND*%
G36*
X10963679Y-5301016D02*
G01*
X10966692Y-5302069D01*
X10969754Y-5302969D01*
X10969967Y-5303215D01*
X10970275Y-5303322D01*
X10972240Y-5305838D01*
X10974329Y-5308249D01*
X10974376Y-5308571D01*
X10974576Y-5308828D01*
X10974870Y-5312006D01*
X10975324Y-5315165D01*
X10975188Y-5315461D01*
X10975218Y-5315785D01*
X10975028Y-5316609D01*
X10974999Y-5316717D01*
X10973180Y-5323504D01*
X10973180Y-5507983D01*
X10973180Y-5507985D01*
X10973180Y-5524556D01*
X10973180Y-5524556D01*
X10973180Y-5524556D01*
X10977272Y-5539829D01*
X10977272Y-5539829D01*
X10977272Y-5539829D01*
X10978730Y-5542354D01*
X10978730Y-5542354D01*
X10985178Y-5553521D01*
X10985178Y-5553522D01*
X10985178Y-5553522D01*
X10985278Y-5553622D01*
X10996458Y-5564802D01*
X11002789Y-5568457D01*
X11010152Y-5572708D01*
X11012048Y-5573216D01*
X11013233Y-5573827D01*
X11014835Y-5575355D01*
X11016725Y-5576507D01*
X11017314Y-5577719D01*
X11018290Y-5578649D01*
X11018811Y-5580800D01*
X11019778Y-5582791D01*
X11019950Y-5584848D01*
X11019950Y-5591962D01*
X11017982Y-5598666D01*
X11016318Y-5600730D01*
X11012294Y-5604754D01*
X11012293Y-5604755D01*
X11003863Y-5619010D01*
X11003863Y-5619010D01*
X10999242Y-5634914D01*
X10999242Y-5634914D01*
X10998950Y-5638629D01*
X10998950Y-5694369D01*
X10998950Y-5694371D01*
X10999242Y-5698085D01*
X10999242Y-5698086D01*
X10999242Y-5698086D01*
X11000870Y-5703688D01*
X11003863Y-5713990D01*
X11005635Y-5716987D01*
X11007354Y-5723759D01*
X11005636Y-5729611D01*
X11003909Y-5732530D01*
X11003909Y-5732530D01*
X10999292Y-5748422D01*
X10999292Y-5748422D01*
X10999000Y-5752134D01*
X10999000Y-5755000D01*
X11067600Y-5755000D01*
X11074304Y-5756968D01*
X11078879Y-5762249D01*
X11080000Y-5767400D01*
X11080000Y-5780000D01*
X11092600Y-5780000D01*
X11099304Y-5781968D01*
X11103879Y-5787249D01*
X11105000Y-5792400D01*
X11105000Y-5866523D01*
X11105000Y-5866523D01*
X11105828Y-5866458D01*
X11105828Y-5866458D01*
X11121719Y-5861841D01*
X11121720Y-5861841D01*
X11135964Y-5853417D01*
X11135965Y-5853416D01*
X11147666Y-5841715D01*
X11147666Y-5841714D01*
X11153853Y-5831253D01*
X11158960Y-5826485D01*
X11165834Y-5825234D01*
X11172293Y-5827899D01*
X11176286Y-5833632D01*
X11176688Y-5835146D01*
X11177450Y-5838974D01*
X11177450Y-5838974D01*
X11182353Y-5850812D01*
X11182354Y-5850813D01*
X11189472Y-5861467D01*
X11189473Y-5861467D01*
X11198533Y-5870527D01*
X11198533Y-5870528D01*
X11209187Y-5877646D01*
X11209187Y-5877647D01*
X11210467Y-5878176D01*
X11221026Y-5882550D01*
X11221026Y-5882550D01*
X11221026Y-5882550D01*
X11233593Y-5885050D01*
X11233593Y-5885050D01*
X11246407Y-5885050D01*
X11254861Y-5883368D01*
X11258974Y-5882550D01*
X11270813Y-5877646D01*
X11281467Y-5870528D01*
X11290528Y-5861467D01*
X11297646Y-5850813D01*
X11299740Y-5845759D01*
X11304124Y-5840319D01*
X11310753Y-5838112D01*
X11314655Y-5838597D01*
X11321922Y-5840708D01*
X11321922Y-5840708D01*
X11325634Y-5841000D01*
X11325636Y-5841000D01*
X11328500Y-5841000D01*
X11328500Y-5735000D01*
X11378500Y-5735000D01*
X11440023Y-5735000D01*
X11439958Y-5734172D01*
X11435341Y-5718280D01*
X11435341Y-5718280D01*
X11434177Y-5716312D01*
X11432458Y-5709540D01*
X11434177Y-5703688D01*
X11435341Y-5701720D01*
X11435341Y-5701719D01*
X11439958Y-5685828D01*
X11440023Y-5685000D01*
X11378500Y-5685000D01*
X11378500Y-5735000D01*
X11328500Y-5735000D01*
X11328500Y-5672400D01*
X11330468Y-5665696D01*
X11335749Y-5661121D01*
X11340900Y-5660000D01*
X11353500Y-5660000D01*
X11353500Y-5647400D01*
X11355468Y-5640696D01*
X11360749Y-5636121D01*
X11365900Y-5635000D01*
X11438523Y-5635000D01*
X11445227Y-5636968D01*
X11448834Y-5640511D01*
X11449472Y-5641467D01*
X11458533Y-5650527D01*
X11458533Y-5650528D01*
X11469187Y-5657646D01*
X11469187Y-5657646D01*
X11469187Y-5657646D01*
X11481026Y-5662550D01*
X11481026Y-5662550D01*
X11481026Y-5662550D01*
X11493593Y-5665050D01*
X11493593Y-5665050D01*
X11506407Y-5665050D01*
X11514861Y-5663368D01*
X11518974Y-5662550D01*
X11530813Y-5657646D01*
X11541467Y-5650528D01*
X11550528Y-5641467D01*
X11557646Y-5630813D01*
X11562550Y-5618974D01*
X11563537Y-5614012D01*
X11565050Y-5606407D01*
X11565050Y-5593593D01*
X11562550Y-5581026D01*
X11562550Y-5581026D01*
X11562550Y-5581026D01*
X11557646Y-5569187D01*
X11557646Y-5569187D01*
X11557646Y-5569187D01*
X11550528Y-5558533D01*
X11550527Y-5558533D01*
X11541467Y-5549473D01*
X11541467Y-5549472D01*
X11530813Y-5542354D01*
X11530813Y-5542354D01*
X11527055Y-5540797D01*
X11523033Y-5538109D01*
X11465509Y-5480586D01*
X11465509Y-5480585D01*
X11453622Y-5468698D01*
X11453621Y-5468698D01*
X11441587Y-5461750D01*
X11441587Y-5461750D01*
X11440886Y-5461345D01*
X11439929Y-5460792D01*
X11424656Y-5456700D01*
X11410231Y-5456700D01*
X11410011Y-5456635D01*
X11409788Y-5456692D01*
X11406674Y-5455656D01*
X11403527Y-5454732D01*
X11403377Y-5454558D01*
X11403159Y-5454486D01*
X11401099Y-5451929D01*
X11398951Y-5449451D01*
X11398874Y-5449168D01*
X11398775Y-5449045D01*
X11397902Y-5445626D01*
X11397628Y-5443075D01*
X11397628Y-5440425D01*
X11398020Y-5436777D01*
X11398020Y-5407532D01*
X11398479Y-5405968D01*
X11398439Y-5404337D01*
X11399443Y-5402685D01*
X11399988Y-5400829D01*
X11401221Y-5399760D01*
X11402068Y-5398367D01*
X11403807Y-5397520D01*
X11405269Y-5396253D01*
X11406945Y-5395991D01*
X11408349Y-5395307D01*
X11411877Y-5395219D01*
X11433836Y-5397818D01*
X11434797Y-5397970D01*
X11473785Y-5405725D01*
X11474731Y-5405952D01*
X11512991Y-5416743D01*
X11513914Y-5417043D01*
X11546098Y-5428916D01*
X11551211Y-5430802D01*
X11552111Y-5431175D01*
X11588212Y-5447818D01*
X11589078Y-5448259D01*
X11611287Y-5460697D01*
X11623761Y-5467683D01*
X11624591Y-5468192D01*
X11657643Y-5490277D01*
X11658431Y-5490849D01*
X11689648Y-5515458D01*
X11690388Y-5516091D01*
X11714208Y-5538109D01*
X11719788Y-5543268D01*
X11720139Y-5543606D01*
X11730571Y-5554037D01*
X11730572Y-5554039D01*
X11731005Y-5554472D01*
X11731005Y-5554472D01*
X11742186Y-5565652D01*
X11742186Y-5565652D01*
X11742186Y-5565652D01*
X11747044Y-5568457D01*
X11747045Y-5568457D01*
X11755878Y-5573557D01*
X11755878Y-5573557D01*
X11755879Y-5573558D01*
X11771152Y-5577650D01*
X11771152Y-5577650D01*
X11893216Y-5577650D01*
X11893333Y-5577651D01*
X11894596Y-5577662D01*
X11896006Y-5577967D01*
X11900957Y-5577722D01*
X11901319Y-5577726D01*
X11901383Y-5577745D01*
X11901961Y-5577748D01*
X11905238Y-5577950D01*
X11905238Y-5577949D01*
X11905238Y-5577950D01*
X11905776Y-5577851D01*
X11906635Y-5577726D01*
X11907316Y-5577650D01*
X11908848Y-5577650D01*
X11909930Y-5577360D01*
X11910864Y-5577257D01*
X11911038Y-5577287D01*
X11911619Y-5577196D01*
X11912492Y-5577153D01*
X11915578Y-5576161D01*
X11915583Y-5576159D01*
X11916331Y-5575921D01*
X11917489Y-5575709D01*
X11921405Y-5574309D01*
X11921614Y-5574243D01*
X11921650Y-5574242D01*
X11922158Y-5574084D01*
X11924121Y-5573558D01*
X11924121Y-5573558D01*
X11924872Y-5573247D01*
X11924892Y-5573294D01*
X11925943Y-5572828D01*
X11927544Y-5572313D01*
X11930103Y-5570662D01*
X11930809Y-5570240D01*
X11936243Y-5567227D01*
X11936763Y-5566816D01*
X11938253Y-5565804D01*
X11938517Y-5565652D01*
X11940302Y-5564621D01*
X11943189Y-5561734D01*
X11944343Y-5560822D01*
X11946862Y-5558061D01*
X11951232Y-5553692D01*
X11957364Y-5550343D01*
X11964333Y-5550842D01*
X11968768Y-5553692D01*
X11969114Y-5554037D01*
X11969115Y-5554039D01*
X11969548Y-5554472D01*
X11969548Y-5554472D01*
X11980728Y-5565652D01*
X11980729Y-5565652D01*
X11980729Y-5565652D01*
X11985587Y-5568457D01*
X11985588Y-5568457D01*
X11994421Y-5573557D01*
X11994421Y-5573558D01*
X11994421Y-5573558D01*
X11994421Y-5573558D01*
X12009694Y-5577650D01*
X12009695Y-5577650D01*
X12026265Y-5577650D01*
X12026267Y-5577650D01*
X12047490Y-5577650D01*
X12054194Y-5579619D01*
X12058770Y-5584899D01*
X12059764Y-5591815D01*
X12056862Y-5598170D01*
X12056258Y-5598818D01*
X12046258Y-5608818D01*
X12045781Y-5609079D01*
X12045480Y-5609533D01*
X12042747Y-5610735D01*
X12040126Y-5612167D01*
X12039291Y-5612256D01*
X12039085Y-5612347D01*
X12038827Y-5612306D01*
X12037490Y-5612450D01*
X12027395Y-5612450D01*
X12017177Y-5613795D01*
X12015900Y-5613963D01*
X12015900Y-5613963D01*
X12015900Y-5613964D01*
X12004680Y-5618611D01*
X11997733Y-5619358D01*
X11995190Y-5618611D01*
X11984087Y-5614012D01*
X11977500Y-5613145D01*
X11977500Y-5644896D01*
X11977245Y-5645764D01*
X11977374Y-5646660D01*
X11976556Y-5649641D01*
X11973964Y-5655900D01*
X11973963Y-5655900D01*
X11972450Y-5667395D01*
X11972450Y-5687600D01*
X11972195Y-5688468D01*
X11972324Y-5689365D01*
X11971226Y-5691769D01*
X11970481Y-5694304D01*
X11969797Y-5694897D01*
X11969421Y-5695720D01*
X11967198Y-5697149D01*
X11965201Y-5698879D01*
X11964150Y-5699108D01*
X11963543Y-5699498D01*
X11960050Y-5700000D01*
X11959950Y-5700000D01*
X11953246Y-5698031D01*
X11948671Y-5692751D01*
X11947550Y-5687600D01*
X11947550Y-5667397D01*
X11947550Y-5667395D01*
X11946912Y-5662550D01*
X11946036Y-5655900D01*
X11944720Y-5652723D01*
X11943444Y-5649641D01*
X11942500Y-5644896D01*
X11942500Y-5613145D01*
X11942500Y-5613145D01*
X11935914Y-5614012D01*
X11935913Y-5614012D01*
X11924810Y-5618611D01*
X11917863Y-5619358D01*
X11915320Y-5618611D01*
X11904100Y-5613964D01*
X11904100Y-5613963D01*
X11904100Y-5613963D01*
X11901545Y-5613627D01*
X11892605Y-5612450D01*
X11892604Y-5612450D01*
X11867396Y-5612450D01*
X11867395Y-5612450D01*
X11857177Y-5613795D01*
X11855900Y-5613963D01*
X11855900Y-5613963D01*
X11855900Y-5613964D01*
X11844745Y-5618584D01*
X11837798Y-5619331D01*
X11835255Y-5618584D01*
X11824100Y-5613964D01*
X11824100Y-5613963D01*
X11824100Y-5613963D01*
X11821545Y-5613627D01*
X11812605Y-5612450D01*
X11812604Y-5612450D01*
X11787396Y-5612450D01*
X11787395Y-5612450D01*
X11777177Y-5613795D01*
X11775900Y-5613963D01*
X11775900Y-5613963D01*
X11775900Y-5613964D01*
X11761596Y-5619888D01*
X11749313Y-5629313D01*
X11739888Y-5641596D01*
X11733964Y-5655900D01*
X11733963Y-5655900D01*
X11732450Y-5667395D01*
X11732450Y-5732603D01*
X11732450Y-5732605D01*
X11732773Y-5735056D01*
X11731696Y-5741959D01*
X11727058Y-5747185D01*
X11726894Y-5747286D01*
X11719717Y-5751624D01*
X11719716Y-5751625D01*
X11708375Y-5762966D01*
X11708374Y-5762967D01*
X11700077Y-5776693D01*
X11700076Y-5776693D01*
X11695305Y-5792006D01*
X11694700Y-5798662D01*
X11694700Y-5807550D01*
X11692731Y-5814254D01*
X11687451Y-5818829D01*
X11682300Y-5819950D01*
X11552878Y-5819950D01*
X11546174Y-5817981D01*
X11542567Y-5814439D01*
X11536860Y-5805897D01*
X11527799Y-5796836D01*
X11527799Y-5796836D01*
X11517145Y-5789717D01*
X11517144Y-5789717D01*
X11505306Y-5784814D01*
X11505306Y-5784813D01*
X11492739Y-5782314D01*
X11492739Y-5782314D01*
X11479925Y-5782314D01*
X11479925Y-5782314D01*
X11467358Y-5784813D01*
X11467357Y-5784814D01*
X11455451Y-5789745D01*
X11448504Y-5790492D01*
X11442256Y-5787365D01*
X11441600Y-5786706D01*
X11440023Y-5785000D01*
X11378500Y-5785000D01*
X11378500Y-5841000D01*
X11381364Y-5841000D01*
X11381366Y-5841000D01*
X11385078Y-5840708D01*
X11385078Y-5840708D01*
X11400969Y-5836091D01*
X11400970Y-5836091D01*
X11402570Y-5835144D01*
X11409342Y-5833426D01*
X11415968Y-5835642D01*
X11420345Y-5841088D01*
X11421282Y-5845817D01*
X11421282Y-5853771D01*
X11421282Y-5853771D01*
X11421282Y-5853771D01*
X11423782Y-5866337D01*
X11423782Y-5866338D01*
X11428685Y-5878176D01*
X11428686Y-5878177D01*
X11436143Y-5889337D01*
X11436110Y-5889359D01*
X11436578Y-5890034D01*
X11442755Y-5900732D01*
X11453180Y-5913154D01*
X11453180Y-5913154D01*
X11453180Y-5913155D01*
X11457610Y-5916872D01*
X11465603Y-5923578D01*
X11479647Y-5931686D01*
X11484751Y-5933544D01*
X11494886Y-5937233D01*
X11494886Y-5937233D01*
X11494886Y-5937233D01*
X11510857Y-5940050D01*
X11511062Y-5940050D01*
X11511063Y-5940050D01*
X11518965Y-5940050D01*
X11526257Y-5940050D01*
X11526257Y-5940050D01*
X11527014Y-5940050D01*
X11527019Y-5940050D01*
X11792523Y-5940050D01*
X11797268Y-5940994D01*
X11800516Y-5942339D01*
X11801026Y-5942550D01*
X11801026Y-5942550D01*
X11801026Y-5942550D01*
X11813593Y-5945050D01*
X11813593Y-5945050D01*
X11826407Y-5945050D01*
X11836554Y-5943031D01*
X11838974Y-5942550D01*
X11842731Y-5940994D01*
X11844710Y-5940363D01*
X11846076Y-5940050D01*
X11847906Y-5940050D01*
X11858624Y-5937178D01*
X11858847Y-5937127D01*
X11862114Y-5937325D01*
X11865389Y-5937403D01*
X11865585Y-5937536D01*
X11865821Y-5937550D01*
X11868463Y-5939484D01*
X11871175Y-5941319D01*
X11871304Y-5941563D01*
X11871459Y-5941677D01*
X11871714Y-5942339D01*
X11873521Y-5945755D01*
X11878159Y-5961720D01*
X11878469Y-5962435D01*
X11878207Y-5962549D01*
X11879593Y-5968009D01*
X11877377Y-5974635D01*
X11871931Y-5979012D01*
X11867201Y-5979950D01*
X10952450Y-5979950D01*
X10945746Y-5977981D01*
X10941171Y-5972701D01*
X10940050Y-5967550D01*
X10940050Y-5807866D01*
X10999000Y-5807866D01*
X10999292Y-5811578D01*
X10999292Y-5811578D01*
X11003909Y-5827469D01*
X11003909Y-5827470D01*
X11012333Y-5841714D01*
X11012334Y-5841715D01*
X11024035Y-5853416D01*
X11024036Y-5853417D01*
X11038280Y-5861841D01*
X11038281Y-5861841D01*
X11054172Y-5866458D01*
X11054172Y-5866458D01*
X11055000Y-5866523D01*
X11055000Y-5866523D01*
X11055000Y-5805000D01*
X10999000Y-5805000D01*
X10999000Y-5807866D01*
X10940050Y-5807866D01*
X10940050Y-5312861D01*
X10940394Y-5311691D01*
X10940282Y-5310476D01*
X10941360Y-5308401D01*
X10942019Y-5306158D01*
X10942940Y-5305359D01*
X10943503Y-5304276D01*
X10945532Y-5303113D01*
X10947299Y-5301582D01*
X10948506Y-5301408D01*
X10949565Y-5300802D01*
X10953079Y-5300477D01*
X10963679Y-5301016D01*
G37*
%TD.AperFunction*%
%TA.AperFunction,Conductor*%
G36*
X11673842Y-5062019D02*
G01*
X11678418Y-5067299D01*
X11679412Y-5074215D01*
X11679337Y-5074678D01*
X11679292Y-5074922D01*
X11679000Y-5078632D01*
X11679000Y-5078636D01*
X11679000Y-5081500D01*
X12206000Y-5081500D01*
X12208868Y-5078632D01*
X12215000Y-5075283D01*
X12217636Y-5075000D01*
X12382364Y-5075000D01*
X12389068Y-5076969D01*
X12391132Y-5078632D01*
X12394000Y-5081500D01*
X12481000Y-5081500D01*
X12481000Y-5078636D01*
X12481000Y-5078632D01*
X12480708Y-5074922D01*
X12480663Y-5074678D01*
X12480678Y-5074541D01*
X12480658Y-5074290D01*
X12480704Y-5074287D01*
X12481395Y-5067730D01*
X12485767Y-5062280D01*
X12492392Y-5060059D01*
X12492861Y-5060050D01*
X12887600Y-5060050D01*
X12894304Y-5062019D01*
X12898879Y-5067299D01*
X12900000Y-5072450D01*
X12900000Y-5967550D01*
X12898031Y-5974254D01*
X12892751Y-5978829D01*
X12887600Y-5979950D01*
X12548980Y-5979950D01*
X12542276Y-5977981D01*
X12537701Y-5972701D01*
X12536706Y-5965785D01*
X12537073Y-5964090D01*
X12540708Y-5951578D01*
X12540708Y-5951578D01*
X12541000Y-5947866D01*
X12541000Y-5947864D01*
X12541000Y-5945000D01*
X12312400Y-5945000D01*
X12305696Y-5943031D01*
X12301121Y-5937751D01*
X12300000Y-5932600D01*
X12300000Y-5920000D01*
X12287400Y-5920000D01*
X12280696Y-5918031D01*
X12276121Y-5912751D01*
X12275000Y-5907600D01*
X12275000Y-5839000D01*
X12272450Y-5839000D01*
X12265746Y-5837031D01*
X12261171Y-5831751D01*
X12260050Y-5826600D01*
X12260050Y-5799950D01*
X12262018Y-5793246D01*
X12267299Y-5788671D01*
X12272450Y-5787550D01*
X12292603Y-5787550D01*
X12292604Y-5787550D01*
X12304100Y-5786036D01*
X12304100Y-5786036D01*
X12304553Y-5785977D01*
X12311457Y-5787053D01*
X12314940Y-5789502D01*
X12344156Y-5818718D01*
X12347504Y-5824850D01*
X12347006Y-5831820D01*
X12342819Y-5837413D01*
X12336272Y-5839855D01*
X12331928Y-5839394D01*
X12331578Y-5839292D01*
X12331578Y-5839292D01*
X12327866Y-5839000D01*
X12325000Y-5839000D01*
X12325000Y-5895000D01*
X12541000Y-5895000D01*
X12541000Y-5892136D01*
X12541000Y-5892134D01*
X12540708Y-5888422D01*
X12540708Y-5888422D01*
X12536091Y-5872530D01*
X12536091Y-5872530D01*
X12534364Y-5869611D01*
X12532646Y-5862839D01*
X12534364Y-5856987D01*
X12536137Y-5853990D01*
X12539885Y-5841088D01*
X12540757Y-5838086D01*
X12540758Y-5838086D01*
X12541050Y-5834370D01*
X12541050Y-5778630D01*
X12540758Y-5774914D01*
X12540643Y-5774521D01*
X12540644Y-5774292D01*
X12540644Y-5774291D01*
X12540644Y-5774291D01*
X12540651Y-5771896D01*
X12540277Y-5769297D01*
X12540661Y-5768457D01*
X12540663Y-5767534D01*
X12542089Y-5765330D01*
X12543180Y-5762942D01*
X12543956Y-5762442D01*
X12544458Y-5761667D01*
X12546849Y-5760584D01*
X12549058Y-5759164D01*
X12550409Y-5758970D01*
X12550821Y-5758783D01*
X12552551Y-5758662D01*
X12563159Y-5758662D01*
X12563834Y-5758680D01*
X12586413Y-5759910D01*
X12587747Y-5760056D01*
X12609731Y-5763665D01*
X12611042Y-5763954D01*
X12615991Y-5765330D01*
X12632508Y-5769920D01*
X12633778Y-5770348D01*
X12654474Y-5778600D01*
X12655689Y-5779162D01*
X12675372Y-5789604D01*
X12676522Y-5790296D01*
X12694959Y-5802802D01*
X12696027Y-5803615D01*
X12698908Y-5806063D01*
X12702002Y-5810310D01*
X12702066Y-5810276D01*
X12702314Y-5810738D01*
X12702334Y-5810766D01*
X12702353Y-5810812D01*
X12702354Y-5810813D01*
X12709472Y-5821467D01*
X12709473Y-5821467D01*
X12718533Y-5830527D01*
X12718533Y-5830528D01*
X12729187Y-5837646D01*
X12729187Y-5837647D01*
X12731481Y-5838597D01*
X12741026Y-5842550D01*
X12741026Y-5842550D01*
X12741026Y-5842550D01*
X12753593Y-5845050D01*
X12753593Y-5845050D01*
X12766407Y-5845050D01*
X12774861Y-5843368D01*
X12778974Y-5842550D01*
X12790813Y-5837646D01*
X12801467Y-5830528D01*
X12810528Y-5821467D01*
X12817646Y-5810813D01*
X12822550Y-5798974D01*
X12823936Y-5792007D01*
X12825050Y-5786407D01*
X12825050Y-5773593D01*
X12822550Y-5761026D01*
X12822550Y-5761026D01*
X12822550Y-5761026D01*
X12817646Y-5749187D01*
X12817646Y-5749187D01*
X12817646Y-5749187D01*
X12810528Y-5738533D01*
X12810527Y-5738533D01*
X12801467Y-5729472D01*
X12798803Y-5727693D01*
X12790813Y-5722353D01*
X12790812Y-5722353D01*
X12790812Y-5722353D01*
X12790812Y-5722353D01*
X12784600Y-5719780D01*
X12781706Y-5718091D01*
X12759210Y-5700496D01*
X12759208Y-5700495D01*
X12732177Y-5683208D01*
X12732177Y-5683208D01*
X12730057Y-5682120D01*
X12703629Y-5668556D01*
X12703629Y-5668556D01*
X12703629Y-5668556D01*
X12673823Y-5656672D01*
X12673823Y-5656672D01*
X12643027Y-5647663D01*
X12643026Y-5647663D01*
X12627270Y-5644635D01*
X12611514Y-5641608D01*
X12611514Y-5641608D01*
X12611514Y-5641608D01*
X12579572Y-5638563D01*
X12579571Y-5638563D01*
X12572075Y-5638562D01*
X12572075Y-5638562D01*
X12571418Y-5638562D01*
X12571417Y-5638562D01*
X12563530Y-5638562D01*
X12563527Y-5638562D01*
X12555504Y-5638560D01*
X12555471Y-5638562D01*
X12396298Y-5638562D01*
X12389594Y-5636593D01*
X12385018Y-5631313D01*
X12384024Y-5624397D01*
X12385821Y-5619529D01*
X12386557Y-5618367D01*
X12388052Y-5616872D01*
X12393608Y-5607247D01*
X12395958Y-5603178D01*
X12400050Y-5587906D01*
X12400050Y-5572094D01*
X12395958Y-5556822D01*
X12392954Y-5551619D01*
X12388052Y-5543128D01*
X12376872Y-5531948D01*
X12368190Y-5526936D01*
X12363178Y-5524042D01*
X12353346Y-5521408D01*
X12352741Y-5521176D01*
X12350458Y-5519434D01*
X12348005Y-5517939D01*
X12347715Y-5517341D01*
X12347186Y-5516937D01*
X12346207Y-5514237D01*
X12344952Y-5511654D01*
X12345028Y-5510985D01*
X12344805Y-5510369D01*
X12345392Y-5507784D01*
X12345725Y-5504852D01*
X12346036Y-5504100D01*
X12347550Y-5492604D01*
X12347550Y-5466455D01*
X12349518Y-5459751D01*
X12353061Y-5456144D01*
X12358860Y-5452270D01*
X12361467Y-5450528D01*
X12370528Y-5441467D01*
X12377646Y-5430813D01*
X12382550Y-5418974D01*
X12385050Y-5406407D01*
X12385050Y-5393593D01*
X12385050Y-5393593D01*
X12382550Y-5381026D01*
X12382550Y-5381026D01*
X12382550Y-5381026D01*
X12380994Y-5377269D01*
X12380831Y-5376451D01*
X12380552Y-5376017D01*
X12380050Y-5372523D01*
X12380050Y-5352477D01*
X12380994Y-5347731D01*
X12382550Y-5343974D01*
X12383436Y-5339521D01*
X12386674Y-5333330D01*
X12388708Y-5331630D01*
X12397467Y-5325778D01*
X12406528Y-5316717D01*
X12409104Y-5312861D01*
X12409472Y-5312311D01*
X12414833Y-5307830D01*
X12419782Y-5306800D01*
X12422119Y-5306800D01*
X12422120Y-5306800D01*
X12425836Y-5306508D01*
X12441740Y-5301887D01*
X12455995Y-5293456D01*
X12467706Y-5281745D01*
X12476137Y-5267490D01*
X12480284Y-5253217D01*
X12480757Y-5251586D01*
X12480758Y-5251586D01*
X12480806Y-5250964D01*
X12481050Y-5247870D01*
X12481050Y-5192130D01*
X12480758Y-5188414D01*
X12476137Y-5172510D01*
X12474364Y-5169513D01*
X12472646Y-5162741D01*
X12474365Y-5156889D01*
X12476090Y-5153970D01*
X12476091Y-5153969D01*
X12480708Y-5138078D01*
X12480708Y-5138078D01*
X12481000Y-5134366D01*
X12481000Y-5134364D01*
X12481000Y-5131500D01*
X12343116Y-5131500D01*
X12339656Y-5131008D01*
X12325836Y-5126993D01*
X12325836Y-5126992D01*
X12325836Y-5126992D01*
X12325835Y-5126992D01*
X12322121Y-5126700D01*
X12312836Y-5126700D01*
X12307047Y-5125000D01*
X12292394Y-5125000D01*
X12289799Y-5126417D01*
X12287164Y-5126700D01*
X12277880Y-5126700D01*
X12274164Y-5126992D01*
X12260344Y-5131008D01*
X12256884Y-5131500D01*
X11770136Y-5131500D01*
X11763936Y-5129839D01*
X11762444Y-5128978D01*
X11762444Y-5128977D01*
X11760000Y-5128088D01*
X11760000Y-5128088D01*
X11745994Y-5122990D01*
X11728753Y-5119950D01*
X11728753Y-5119950D01*
X11727906Y-5119950D01*
X11487477Y-5119950D01*
X11482731Y-5119006D01*
X11478975Y-5117450D01*
X11478974Y-5117450D01*
X11466407Y-5114950D01*
X11466407Y-5114950D01*
X11453593Y-5114950D01*
X11453593Y-5114950D01*
X11441026Y-5117450D01*
X11441025Y-5117450D01*
X11429187Y-5122353D01*
X11429187Y-5122354D01*
X11418533Y-5129472D01*
X11418533Y-5129473D01*
X11409887Y-5138118D01*
X11403755Y-5141467D01*
X11401119Y-5141750D01*
X11361750Y-5141750D01*
X11361750Y-5176993D01*
X11359781Y-5183697D01*
X11354501Y-5188272D01*
X11347585Y-5189267D01*
X11341230Y-5186364D01*
X11337947Y-5181305D01*
X11337783Y-5181373D01*
X11332647Y-5168972D01*
X11332646Y-5168971D01*
X11325528Y-5158318D01*
X11325527Y-5158318D01*
X11316467Y-5149257D01*
X11316283Y-5149106D01*
X11316213Y-5149003D01*
X11316163Y-5148954D01*
X11316030Y-5148893D01*
X11314226Y-5146086D01*
X11312350Y-5143332D01*
X11312316Y-5143113D01*
X11312252Y-5143015D01*
X11311750Y-5139521D01*
X11311750Y-5129150D01*
X11313718Y-5122446D01*
X11318999Y-5117871D01*
X11324150Y-5116750D01*
X11336750Y-5116750D01*
X11336750Y-5104150D01*
X11338718Y-5097446D01*
X11343999Y-5092871D01*
X11349150Y-5091750D01*
X11423273Y-5091750D01*
X11423208Y-5090922D01*
X11418846Y-5075910D01*
X11418866Y-5068923D01*
X11422660Y-5063056D01*
X11429024Y-5060171D01*
X11430754Y-5060050D01*
X11667139Y-5060050D01*
X11673842Y-5062019D01*
G37*
%TD.AperFunction*%
%TA.AperFunction,Conductor*%
G36*
X11180623Y-5423220D02*
G01*
X11220677Y-5423220D01*
X11220677Y-5423220D01*
X11220678Y-5423220D01*
X11224324Y-5422828D01*
X11226975Y-5422828D01*
X11230623Y-5423220D01*
X11232180Y-5423220D01*
X11232593Y-5423341D01*
X11233015Y-5423248D01*
X11235917Y-5424317D01*
X11238883Y-5425188D01*
X11239166Y-5425514D01*
X11239571Y-5425664D01*
X11241434Y-5428131D01*
X11243459Y-5430468D01*
X11243594Y-5430993D01*
X11243781Y-5431240D01*
X11244080Y-5432880D01*
X11244545Y-5434686D01*
X11244580Y-5435153D01*
X11244580Y-5436777D01*
X11244993Y-5440620D01*
X11245008Y-5440815D01*
X11244972Y-5440983D01*
X11244972Y-5443075D01*
X11244580Y-5446722D01*
X11244580Y-5447880D01*
X11242611Y-5454584D01*
X11237331Y-5459159D01*
X11232181Y-5460280D01*
X11230623Y-5460280D01*
X11230621Y-5460280D01*
X11226740Y-5460697D01*
X11224090Y-5460697D01*
X11220673Y-5460330D01*
X11215890Y-5460330D01*
X11214179Y-5462041D01*
X11213921Y-5462919D01*
X11213532Y-5463338D01*
X11213417Y-5463646D01*
X11210921Y-5466142D01*
X11205241Y-5470394D01*
X11198695Y-5472836D01*
X11191867Y-5471351D01*
X11186927Y-5466410D01*
X11185410Y-5460467D01*
X11185410Y-5460330D01*
X11180626Y-5460330D01*
X11176975Y-5460723D01*
X11174772Y-5460762D01*
X11168242Y-5460299D01*
X11165363Y-5459227D01*
X11162416Y-5458362D01*
X11162119Y-5458019D01*
X11161694Y-5457861D01*
X11159852Y-5455402D01*
X11157841Y-5453081D01*
X11157729Y-5452570D01*
X11157504Y-5452270D01*
X11157425Y-5451171D01*
X11156720Y-5447930D01*
X11156720Y-5446723D01*
X11156720Y-5446721D01*
X11156328Y-5443075D01*
X11156292Y-5440815D01*
X11156307Y-5440622D01*
X11156720Y-5436777D01*
X11156720Y-5435153D01*
X11156755Y-5434685D01*
X11157831Y-5431837D01*
X11158689Y-5428916D01*
X11159053Y-5428600D01*
X11159223Y-5428149D01*
X11161669Y-5426334D01*
X11163969Y-5424341D01*
X11164513Y-5424222D01*
X11164834Y-5423984D01*
X11165954Y-5423909D01*
X11169120Y-5423220D01*
X11170677Y-5423220D01*
X11170679Y-5423220D01*
X11174324Y-5422828D01*
X11176975Y-5422828D01*
X11180623Y-5423220D01*
G37*
%TD.AperFunction*%
%TA.AperFunction,Conductor*%
G36*
X11135898Y-5062019D02*
G01*
X11140473Y-5067299D01*
X11141468Y-5074215D01*
X11141102Y-5075910D01*
X11136742Y-5090914D01*
X11136742Y-5090914D01*
X11136450Y-5094629D01*
X11136450Y-5126550D01*
X11134482Y-5133254D01*
X11129201Y-5137829D01*
X11124050Y-5138950D01*
X11072131Y-5138950D01*
X11072128Y-5138950D01*
X11068414Y-5139242D01*
X11052510Y-5143863D01*
X11052510Y-5143863D01*
X11049513Y-5145636D01*
X11042740Y-5147354D01*
X11036889Y-5145636D01*
X11033970Y-5143909D01*
X11033969Y-5143909D01*
X11018078Y-5139292D01*
X11018078Y-5139292D01*
X11014366Y-5139000D01*
X11011500Y-5139000D01*
X11011500Y-5207600D01*
X11009532Y-5214304D01*
X11004251Y-5218879D01*
X10999100Y-5220000D01*
X10973900Y-5220000D01*
X10967196Y-5218032D01*
X10962621Y-5212751D01*
X10961500Y-5207600D01*
X10961500Y-5139000D01*
X10958634Y-5139000D01*
X10954922Y-5139292D01*
X10954677Y-5139337D01*
X10954539Y-5139322D01*
X10954290Y-5139342D01*
X10954287Y-5139296D01*
X10947729Y-5138605D01*
X10942279Y-5134232D01*
X10940059Y-5127607D01*
X10940050Y-5127139D01*
X10940050Y-5072450D01*
X10942019Y-5065746D01*
X10947299Y-5061171D01*
X10952450Y-5060050D01*
X11129194Y-5060050D01*
X11135898Y-5062019D01*
G37*
%TD.AperFunction*%
%TD*%
M02*
